<?xml version="1.0" encoding="UTF-8"?>
<svg data-name="Ebene 1" version="1.1" viewBox="0 0 101 101" xmlns="http://www.w3.org/2000/svg">
 <defs>
  <style>.cls-1{fill:none;}.cls-2{clip-path:url(#clip-path);}.cls-3{fill:#009fe3;}.cls-4{fill:#fff;}.cls-5{fill:#575756;}</style>
  <clipPath id="clip-path" transform="translate(-247.05 -356.06)">
   <rect class="cls-1" x="247.05" y="384.34" width="101.11" height="101.11"/>
  </clipPath>
 </defs>
 <g class="layer">
  <title>Layer 1</title>
  <rect class="cls-3" width="101.11" height="101.11"/>
  <polygon class="cls-4" points="44.84 32.13 44.84 49.01 30.77 49.01 30.77 32.13 20.22 32.13 20.22 20.31 55.37 20.31 55.37 32.13"/>
  <polygon class="cls-4" points="62.66 32.12 80.85 32.12 63.93 49.01 81.72 65.91 63.56 65.91 46.67 49.01"/>
  <g class="cls-2" clip-path="url(#clip-path)">
   <path class="cls-4" transform="translate(-247.05 -356.06)" d="m277.35 414.31a1.08 1.08 0 0 1 0.76 0.23 1.06 1.06 0 0 1 0 1.34 1.37 1.37 0 0 1-1.52 0 1.06 1.06 0 0 1 0-1.34 1.08 1.08 0 0 1 0.76-0.23m-0.82 2.92 1.64-0.23v7.09h-1.64v-6.86z"/>
   <path class="cls-4" transform="translate(-247.05 -356.06)" d="m285.36 417.66a3 3 0 0 0-2.14-0.71 3.82 3.82 0 0 0-1.43 0.24 2.53 2.53 0 0 0-1 0.69 2.87 2.87 0 0 0-0.58 1.06 4.89 4.89 0 0 0-0.18 1.37v0.57a5.8 5.8 0 0 0 0.17 1.46 2.33 2.33 0 0 0 0.57 1.05 2.37 2.37 0 0 0 1 0.65 5.14 5.14 0 0 0 1.58 0.22h0.61l0.61-0.07a4.34 4.34 0 0 0 0.54-0.09l0.44-0.12 0.21-1.17c-0.37 0.07-0.71 0.12-1 0.15s-0.58 0-0.88 0a3.77 3.77 0 0 1-1.49-0.23 1.22 1.22 0 0 1-0.67-0.82l4.22-1.87a0.2 0.2 0 0 0 0.12-0.19v-0.13a2.66 2.66 0 0 0-0.75-2m-3.36 1a1.38 1.38 0 0 1 1.18-0.48 1.4 1.4 0 0 1 1 0.31 1.46 1.46 0 0 1 0.38 0.86l-2.93 1.31v-0.44a2.62 2.62 0 0 1 0.36-1.56"/>
   <path class="cls-4" transform="translate(-247.05 -356.06)" d="m328.47 431.33-0.4-0.08a2.42 2.42 0 0 0-0.47 0 1.64 1.64 0 0 0-1.3 0.47 2.14 2.14 0 0 0-0.4 1.43v3.84h-1.66v-7l1.43-0.21 0.12 0.95a2.35 2.35 0 0 1 0.84-0.7 2.81 2.81 0 0 1 1.21-0.23 3.68 3.68 0 0 1 0.49 0 2.83 2.83 0 0 1 0.44 0.11l-0.3 1.42z"/>
   <polygon class="cls-4" points="27.75 71.2 27.56 72.61 24.75 72.61 24.75 80.88 23.05 80.88 23.05 72.61 20.05 72.61 20.22 71.2"/>
   <path class="cls-4" transform="translate(-247.05 -356.06)" d="m286.9 436.82a5.84 5.84 0 0 1-0.88 0.2 6.48 6.48 0 0 1-0.9 0.06 4.26 4.26 0 0 1-1.54-0.24 2.34 2.34 0 0 1-1-0.68 2.59 2.59 0 0 1-0.52-1.05 5.7 5.7 0 0 1-0.16-1.36v-0.69a4.46 4.46 0 0 1 0.2-1.36 2.62 2.62 0 0 1 0.61-1.05 2.51 2.51 0 0 1 1-0.66 4.23 4.23 0 0 1 1.51-0.24 5.31 5.31 0 0 1 1 0.09 6.41 6.41 0 0 1 0.86 0.2l-0.27 1.2a4.43 4.43 0 0 0-0.6-0.14 3.94 3.94 0 0 0-0.72-0.05 2 2 0 0 0-1.51 0.46 2.27 2.27 0 0 0-0.43 1.57v0.58a2.34 2.34 0 0 0 0.47 1.65 2.12 2.12 0 0 0 1.57 0.48 6.3 6.3 0 0 0 0.75-0.05l0.7-0.11-0.14 1.19z"/>
   <path class="cls-4" transform="translate(-247.05 -356.06)" d="m288.82 436.95v-10l1.65-0.23v3.76a2.38 2.38 0 0 1 0.86-0.58 3.17 3.17 0 0 1 1.14-0.19 3.39 3.39 0 0 1 1 0.15 2.29 2.29 0 0 1 0.81 0.45 2.12 2.12 0 0 1 0.53 0.77 2.8 2.8 0 0 1 0.19 1.09v4.76h-1.66v-4.31a1.86 1.86 0 0 0-0.31-1.22 1.33 1.33 0 0 0-1.05-0.36 1.49 1.49 0 0 0-1.17 0.42 2 2 0 0 0-0.38 1.35v4.12l-1.61 0.02z"/>
   <path class="cls-4" transform="translate(-247.05 -356.06)" d="m297.18 436.95v-7l1.42-0.21 0.13 0.87a2 2 0 0 1 0.87-0.68 3 3 0 0 1 1.23-0.24 3.39 3.39 0 0 1 1 0.15 2.29 2.29 0 0 1 0.81 0.45 2.12 2.12 0 0 1 0.53 0.77 2.8 2.8 0 0 1 0.19 1.09v4.76h-1.66v-4.31a1.86 1.86 0 0 0-0.31-1.22 1.33 1.33 0 0 0-1.05-0.36 1.49 1.49 0 0 0-1.17 0.42 2 2 0 0 0-0.38 1.35v4.12l-1.61 0.04z"/>
   <path class="cls-4" transform="translate(-247.05 -356.06)" d="m306.36 427.06a1 1 0 0 1 0.77 0.24 0.9 0.9 0 0 1 0.24 0.67 0.92 0.92 0 0 1-0.24 0.68 1 1 0 0 1-0.77 0.23 1 1 0 0 1-0.76-0.23 0.92 0.92 0 0 1-0.24-0.68 0.9 0.9 0 0 1 0.24-0.67 1 1 0 0 1 0.76-0.24m-0.82 3 1.65-0.23v7.17h-1.65v-6.94z"/>
   <polygon class="cls-4" points="63.97 77.64 63.97 80.88 62.38 80.88 62.38 70.91 63.97 70.67 63.97 76.42 66.69 73.83 68.56 73.83 65.26 76.97 68.68 80.88 66.74 80.88"/>
   <path class="cls-4" transform="translate(-247.05 -356.06)" d="m279.73 430.45a3 3 0 0 0-2.16-0.72 3.88 3.88 0 0 0-1.44 0.24 2.61 2.61 0 0 0-1 0.7 2.58 2.58 0 0 0-0.58 1.07 5 5 0 0 0-0.18 1.39v0.59a5.85 5.85 0 0 0 0.16 1.47 2.58 2.58 0 0 0 0.58 1.07 2.34 2.34 0 0 0 1 0.65 4.94 4.94 0 0 0 1.6 0.22h0.61l0.61-0.06c0.2 0 0.39-0.06 0.55-0.1a2.44 2.44 0 0 0 0.45-0.12l0.21-1.18c-0.38 0.07-0.71 0.12-1 0.15s-0.59 0-0.89 0a3.88 3.88 0 0 1-1.51-0.23 1.24 1.24 0 0 1-0.67-0.83l4.26-1.89a0.19 0.19 0 0 0 0.13-0.19v-0.19a2.67 2.67 0 0 0-0.77-2m-3.39 1a1.4 1.4 0 0 1 1.19-0.48 1.43 1.43 0 0 1 1 0.32 1.41 1.41 0 0 1 0.39 0.87l-3 1.31v-0.43a2.7 2.7 0 0 1 0.36-1.59"/>
   <path class="cls-4" transform="translate(-247.05 -356.06)" d="m321.85 430.45a3 3 0 0 0-2.16-0.72 3.89 3.89 0 0 0-1.45 0.24 2.65 2.65 0 0 0-1.58 1.77 5 5 0 0 0-0.18 1.39v0.59a5.4 5.4 0 0 0 0.17 1.47 2.35 2.35 0 0 0 1.62 1.72 4.88 4.88 0 0 0 1.59 0.22h0.62l0.61-0.06 0.55-0.1a2.55 2.55 0 0 0 0.44-0.12l0.22-1.18c-0.38 0.07-0.72 0.12-1 0.15s-0.58 0-0.88 0a3.85 3.85 0 0 1-1.51-0.23 1.25 1.25 0 0 1-0.68-0.83l4.27-1.89a0.2 0.2 0 0 0 0.12-0.19v-0.19a2.66 2.66 0 0 0-0.76-2m-3.39 1a1.38 1.38 0 0 1 1.19-0.48 1.43 1.43 0 0 1 1 0.32 1.46 1.46 0 0 1 0.38 0.87l-2.95 1.31v-0.43a2.7 2.7 0 0 1 0.36-1.59"/>
   <path class="cls-4" transform="translate(-247.05 -356.06)" d="m267.5 414.51h3a5.5 5.5 0 0 1 2 0.32 3.1 3.1 0 0 1 1.92 2.26 7.05 7.05 0 0 1 0.19 1.71v1a7.23 7.23 0 0 1-0.2 1.74 3.47 3.47 0 0 1-0.67 1.36 3.1 3.1 0 0 1-1.28 0.89 5.41 5.41 0 0 1-2 0.31h-3.23v-9.38a0.26 0.26 0 0 1 0.23-0.24m1.54 8.24h1.41a3.77 3.77 0 0 0 1.12-0.14 1.81 1.81 0 0 0 0.79-0.5 2.17 2.17 0 0 0 0.48-0.92 5.73 5.73 0 0 0 0.16-1.44v-0.79a5.3 5.3 0 0 0-0.16-1.44 2.05 2.05 0 0 0-0.47-0.92 1.76 1.76 0 0 0-0.78-0.49 4.13 4.13 0 0 0-1.12-0.14h-1.43v6.78z"/>
  </g>
 </g>
</svg>
