<?xml version="1.0" encoding="UTF-8"?>
<svg clip-rule="evenodd" fill-rule="evenodd" stroke-linecap="round" stroke-linejoin="round" stroke-miterlimit="1.5" version="1.1" viewBox="0 0 726 316" xml:space="preserve" xmlns="http://www.w3.org/2000/svg">
    <rect x="-389" y="-266" width="1309" height="1071" stroke="#fff" stroke-width="1px"/>
    <g transform="translate(-38 -25.5)">
        <rect x="41" y="126" width="53" height="115" fill="none" stroke="#fff" stroke-linecap="square" stroke-linejoin="miter" stroke-width="3px"/>
    </g>
    <g transform="matrix(.78333 0 0 .84193 -20.5 -22.258)">
        <rect x="30" y="30" width="240" height="88.569" fill="#83a8f2"/>
    </g>
    <g transform="matrix(1.0124 0 0 .79034 -27.372 221.29)">
        <rect x="30" y="30" width="240" height="88.569" fill="#83a8f2"/>
    </g>
    <g transform="matrix(.74419 0 0 2.5294 -6.5814 -257.94)">
        <rect x="158" y="151" width="43" height="34" fill="#9330bb"/>
    </g>
    <g transform="matrix(.74419 0 0 .5 -6.5814 31.5)">
        <rect x="158" y="151" width="43" height="34" fill="#b9e891"/>
    </g>
    <g transform="matrix(.74419 0 0 3.0294 68.419 -350.44)">
        <rect x="158" y="151" width="43" height="34" fill="#f9f497"/>
    </g>
    <g transform="translate(-68.927 -21.303)">
        <g transform="matrix(16 0 0 16 118.62 67.285)">
            <path d="m0.056-0v-0.719h0.571c0.027 0 0.052 7e-3 0.074 0.02 0.023 0.013 0.041 0.031 0.055 0.054 0.013 0.023 0.02 0.047 0.02 0.074v0.186c0 0.027-7e-3 0.051-0.02 0.074-0.014 0.023-0.032 0.041-0.055 0.054-0.022 0.013-0.047 0.02-0.074 0.02l-0.416 1e-3v0.236h-0.155zm0.155-0.393h0.408v-0.171h-0.408v0.171z" fill-rule="nonzero"/>
        </g>
        <g transform="matrix(16 0 0 16 131.28 67.285)">
            <path d="m0.204-0c-0.027 0-0.052-7e-3 -0.074-0.02-0.023-0.013-0.041-0.031-0.054-0.054-0.013-0.022-0.02-0.047-0.02-0.074v-0.424c0-0.027 7e-3 -0.052 0.02-0.075 0.013-0.022 0.031-0.04 0.054-0.053 0.022-0.013 0.047-0.02 0.074-0.02h0.57v0.156h-0.53c-0.011 0-0.019 3e-3 -0.024 8e-3 -6e-3 5e-3 -9e-3 0.014-9e-3 0.025v0.342c0 0.011 3e-3 0.019 9e-3 0.024 5e-3 6e-3 0.013 9e-3 0.024 9e-3h0.53v0.156h-0.57z" fill-rule="nonzero"/>
        </g>
        <g transform="matrix(16 0 0 16 144.43 67.285)">
            <rect x=".059" y="-.372" width=".417" height=".153" fill-rule="nonzero"/>
        </g>
        <g transform="matrix(16 0 0 16 152.7 67.285)">
            <path d="m0.615-0-0.209-0.249h0.203l0.166 0.196v0.053h-0.16zm-0.559 0v-0.719h0.571c0.027 0 0.052 7e-3 0.074 0.02 0.023 0.013 0.041 0.031 0.055 0.054 0.013 0.023 0.02 0.047 0.02 0.074v0.186c0 0.027-7e-3 0.051-0.02 0.074-0.014 0.023-0.032 0.041-0.055 0.054-0.022 0.013-0.047 0.02-0.074 0.02l-0.416 1e-3v0.236h-0.155zm0.155-0.393h0.408v-0.171h-0.408v0.171z" fill-rule="nonzero"/>
        </g>
        <g transform="matrix(16 0 0 16 165.9 67.285)">
            <path d="m0.196-0c-0.026 0-0.05-7e-3 -0.072-0.02s-0.04-0.031-0.053-0.053-0.02-0.046-0.02-0.072v-0.29c0-0.026 7e-3 -0.05 0.02-0.072s0.031-0.04 0.053-0.053 0.046-0.02 0.072-0.02h0.298c0.027 0 0.051 7e-3 0.073 0.02s0.039 0.031 0.052 0.053 0.02 0.046 0.02 0.072v0.222h-0.435v0.06h0.435v0.153h-0.443zm8e-3 -0.347h0.282v-0.08h-0.282v0.08z" fill-rule="nonzero"/>
        </g>
        <g transform="matrix(16 0 0 16 176.98 67.285)">
            <path d="m0.052-0v-0.58h0.153v0.58h-0.153zm0-0.616v-0.154h0.153v0.154h-0.153z" fill-rule="nonzero"/>
        </g>
        <g transform="matrix(16 0 0 16 180.3 67.285)">
            <path d="m0.054-0v-0.77h0.153v0.19h0.29c0.026 0 0.05 7e-3 0.072 0.02s0.04 0.031 0.053 0.053 0.02 0.046 0.02 0.072v0.435h-0.153v-0.427h-0.282v0.427h-0.153z" fill-rule="nonzero"/>
        </g>
        <g transform="matrix(16 0 0 16 190.99 67.285)">
            <path d="m0.196-0c-0.026 0-0.05-7e-3 -0.072-0.02s-0.04-0.031-0.053-0.053-0.02-0.046-0.02-0.072v-0.29c0-0.026 7e-3 -0.05 0.02-0.072s0.031-0.04 0.053-0.053 0.046-0.02 0.072-0.02h0.298c0.027 0 0.051 7e-3 0.073 0.02s0.039 0.031 0.052 0.053 0.02 0.046 0.02 0.072v0.222h-0.435v0.06h0.435v0.153h-0.443zm8e-3 -0.347h0.282v-0.08h-0.282v0.08z" fill-rule="nonzero"/>
        </g>
        <g transform="matrix(16 0 0 16 202.06 67.285)">
            <path d="m0.054-0v-0.58h0.443c0.027 0 0.051 7e-3 0.073 0.02s0.04 0.031 0.053 0.053 0.019 0.046 0.019 0.072v0.435h-0.153v-0.427h-0.282v0.427h-0.153z" fill-rule="nonzero"/>
        </g>
    </g>
    <g transform="translate(-41.441 218.88)">
        <g transform="matrix(16,0,0,16,118.62,67.285)">
            <path d="m0.056 0v-0.719h0.571c0.027 0 0.052 7e-3 0.074 0.02 0.023 0.013 0.041 0.031 0.055 0.054 0.013 0.023 0.02 0.047 0.02 0.074v0.186c0 0.027-7e-3 0.051-0.02 0.074-0.014 0.023-0.032 0.041-0.055 0.054-0.022 0.013-0.047 0.02-0.074 0.02l-0.416 1e-3v0.236zm0.155-0.393h0.408v-0.171h-0.408z" fill-rule="nonzero"/>
        </g>
        <g transform="matrix(16,0,0,16,131.28,67.285)">
            <path d="m0.204 0c-0.027 0-0.052-7e-3 -0.074-0.02-0.023-0.013-0.041-0.031-0.054-0.054-0.013-0.022-0.02-0.047-0.02-0.074v-0.424c0-0.027 7e-3 -0.052 0.02-0.075 0.013-0.022 0.031-0.04 0.054-0.053 0.022-0.013 0.047-0.02 0.074-0.02h0.57v0.156h-0.53c-0.011 0-0.019 3e-3 -0.024 8e-3 -6e-3 5e-3 -9e-3 0.014-9e-3 0.025v0.342c0 0.011 3e-3 0.019 9e-3 0.024 5e-3 6e-3 0.013 9e-3 0.024 9e-3h0.53v0.156z" fill-rule="nonzero"/>
        </g>
        <g transform="matrix(16,0,0,16,144.43,67.285)">
            <rect x=".059" y="-.372" width=".417" height=".153" fill-rule="nonzero"/>
        </g>
        <g transform="matrix(16,0,0,16,152.7,67.285)">
            <path d="m0.615 0-0.209-0.249h0.203l0.166 0.196v0.053zm-0.559 0v-0.719h0.571c0.027 0 0.052 7e-3 0.074 0.02 0.023 0.013 0.041 0.031 0.055 0.054 0.013 0.023 0.02 0.047 0.02 0.074v0.186c0 0.027-7e-3 0.051-0.02 0.074-0.014 0.023-0.032 0.041-0.055 0.054-0.022 0.013-0.047 0.02-0.074 0.02l-0.416 1e-3v0.236zm0.155-0.393h0.408v-0.171h-0.408z" fill-rule="nonzero"/>
        </g>
        <g transform="matrix(16,0,0,16,165.9,67.285)">
            <path d="m0.196 0c-0.026 0-0.05-7e-3 -0.072-0.02s-0.04-0.031-0.053-0.053-0.02-0.046-0.02-0.072v-0.29c0-0.026 7e-3 -0.05 0.02-0.072s0.031-0.04 0.053-0.053 0.046-0.02 0.072-0.02h0.298c0.027 0 0.051 7e-3 0.073 0.02s0.039 0.031 0.052 0.053 0.02 0.046 0.02 0.072v0.222h-0.435v0.06h0.435v0.153zm8e-3 -0.347h0.282v-0.08h-0.282z" fill-rule="nonzero"/>
        </g>
        <g transform="matrix(16,0,0,16,176.98,67.285)">
            <path d="m0.052 0v-0.58h0.153v0.58zm0-0.616v-0.154h0.153v0.154z" fill-rule="nonzero"/>
        </g>
        <g transform="matrix(16,0,0,16,180.3,67.285)">
            <path d="m0.054 0v-0.77h0.153v0.19h0.29c0.026 0 0.05 7e-3 0.072 0.02s0.04 0.031 0.053 0.053 0.02 0.046 0.02 0.072v0.435h-0.153v-0.427h-0.282v0.427z" fill-rule="nonzero"/>
        </g>
        <g transform="matrix(16,0,0,16,190.99,67.285)">
            <path d="m0.196 0c-0.026 0-0.05-7e-3 -0.072-0.02s-0.04-0.031-0.053-0.053-0.02-0.046-0.02-0.072v-0.29c0-0.026 7e-3 -0.05 0.02-0.072s0.031-0.04 0.053-0.053 0.046-0.02 0.072-0.02h0.298c0.027 0 0.051 7e-3 0.073 0.02s0.039 0.031 0.052 0.053 0.02 0.046 0.02 0.072v0.222h-0.435v0.06h0.435v0.153zm8e-3 -0.347h0.282v-0.08h-0.282z" fill-rule="nonzero"/>
        </g>
        <g transform="matrix(16,0,0,16,202.06,67.285)">
            <path d="m0.054 0v-0.58h0.443c0.027 0 0.051 7e-3 0.073 0.02s0.04 0.031 0.053 0.053 0.019 0.046 0.019 0.072v0.435h-0.153v-0.427h-0.282v0.427z" fill-rule="nonzero"/>
        </g>
    </g>
    <g transform="matrix(1.9389 0 0 1.9412 13.656 -46.118)">
        <rect x="158" y="151" width="43" height="34" fill="#f9f497"/>
    </g>
    <g transform="translate(221.17 218.88)">
        <g transform="matrix(16 0 0 16 103.53 67.285)">
            <path d="m0.056-0v-0.72h0.16l0.244 0.291 0.243-0.291h0.161v0.72h-0.156v-0.483l-0.248 0.296-0.249-0.295v0.482h-0.155z" fill-rule="nonzero"/>
        </g>
        <g transform="matrix(16 0 0 16 118.38 67.285)">
            <path d="m0.198-0c-0.027 0-0.051-7e-3 -0.073-0.02s-0.039-0.031-0.052-0.053c-0.014-0.022-0.02-0.046-0.02-0.072v-0.435h0.153v0.427h0.282v-0.427h0.153v0.435c0 0.026-6e-3 0.05-0.019 0.072-0.014 0.022-0.031 0.04-0.053 0.053s-0.046 0.02-0.073 0.02h-0.298z" fill-rule="nonzero"/>
        </g>
        <g transform="matrix(16 0 0 16 129.26 67.285)">
            <path d="m0.193-0c-0.026 0-0.05-7e-3 -0.072-0.02s-0.04-0.031-0.053-0.053-0.02-0.046-0.02-0.072v-0.029h0.153v0.021h0.282v-0.06h-0.29c-0.026 0-0.05-7e-3 -0.072-0.02s-0.04-0.031-0.053-0.053-0.02-0.046-0.02-0.072v-0.077c0-0.026 7e-3 -0.05 0.02-0.072s0.031-0.04 0.053-0.053 0.046-0.02 0.072-0.02h0.298c0.027 0 0.051 7e-3 0.073 0.02s0.04 0.031 0.053 0.053 0.02 0.046 0.02 0.072v0.029h-0.154v-0.021h-0.282v0.06h0.29c0.027 0 0.051 7e-3 0.073 0.02s0.04 0.031 0.053 0.053 0.02 0.046 0.02 0.072v0.077c0 0.026-7e-3 0.05-0.02 0.072s-0.031 0.04-0.053 0.053-0.046 0.02-0.073 0.02h-0.298z" fill-rule="nonzero"/>
        </g>
        <g transform="matrix(16 0 0 16 139.99 67.285)">
            <path d="m0.196-0c-0.026 0-0.05-7e-3 -0.072-0.02s-0.04-0.031-0.053-0.053-0.02-0.046-0.02-0.072v-0.29c0-0.026 7e-3 -0.05 0.02-0.072s0.031-0.04 0.053-0.053 0.046-0.02 0.072-0.02h0.298c0.027 0 0.051 7e-3 0.073 0.02s0.039 0.031 0.052 0.053 0.02 0.046 0.02 0.072v0.222h-0.435v0.06h0.435v0.153h-0.443zm8e-3 -0.347h0.282v-0.08h-0.282v0.08z" fill-rule="nonzero"/>
        </g>
        <g transform="matrix(16 0 0 16 151.06 67.285)">
            <path d="m0.198-0c-0.027 0-0.051-7e-3 -0.073-0.02s-0.039-0.031-0.052-0.053c-0.014-0.022-0.02-0.046-0.02-0.072v-0.435h0.153v0.427h0.282v-0.427h0.153v0.435c0 0.026-6e-3 0.05-0.019 0.072-0.014 0.022-0.031 0.04-0.053 0.053s-0.046 0.02-0.073 0.02h-0.298z" fill-rule="nonzero"/>
        </g>
        <g transform="matrix(16 0 0 16 161.86 67.285)">
            <path d="m0.054-0v-0.58h0.698c0.027 0 0.051 7e-3 0.073 0.02s0.04 0.031 0.053 0.053c0.012 0.022 0.019 0.046 0.019 0.072v0.435h-0.152v-0.427h-0.192v0.427h-0.154v-0.427h-0.192v0.427h-0.153z" fill-rule="nonzero"/>
        </g>
    </g>
    <g transform="matrix(1.6932 0 0 1.9567 -21.809 -50.466)">
        <rect x="158" y="151" width="43" height="34" fill="#f9f497"/>
    </g>
    <g transform="translate(141.72 216.73)">
        <g transform="matrix(16,0,0,16,125.9,67.285)">
            <path d="m0.452 0-0.417-0.72h0.18l0.302 0.523 0.302-0.523h0.179l-0.417 0.72z" fill-rule="nonzero"/>
        </g>
        <g transform="matrix(16,0,0,16,141.94,67.285)">
            <path d="m0.615 0-0.209-0.249h0.203l0.166 0.196v0.053zm-0.559 0v-0.719h0.571c0.027 0 0.052 7e-3 0.074 0.02 0.023 0.013 0.041 0.031 0.055 0.054 0.013 0.023 0.02 0.047 0.02 0.074v0.186c0 0.027-7e-3 0.051-0.02 0.074-0.014 0.023-0.032 0.041-0.055 0.054-0.022 0.013-0.047 0.02-0.074 0.02l-0.416 1e-3v0.236zm0.155-0.393h0.408v-0.171h-0.408z" fill-rule="nonzero"/>
        </g>
    </g>
    <g transform="matrix(2.3729 0 0 1.1306 -156.97 -71.52)">
        <rect x="158" y="151" width="43" height="34" fill="#f9f497"/>
    </g>
    <g transform="translate(153.83 49.994)">
        
        
        
        
        
        <g transform="matrix(10 0 0 10 71.081 73.901)" clip-rule="evenodd" fill-rule="evenodd" stroke-linecap="round" stroke-linejoin="round" stroke-miterlimit="1.5">
            <g transform="translate(0 -.020482)" fill-rule="nonzero"><g clip-rule="evenodd" stroke-linecap="round" stroke-linejoin="round" stroke-miterlimit="1.5"><g stroke-width="10"><path transform="matrix(.1 0 0 .1 -22.491 -12.39)" d="m257.86 122.48v-4.35c0-0.26 0.07-0.5 0.2-0.72s0.31-0.4 0.53-0.53 0.46-0.2 0.73-0.2h3.2v1.53h-3.13v4.27z"/><path transform="matrix(.1 0 0 .1 -22.491 -12.39)" d="m252.65 122.48c-0.26 0-0.51-0.07-0.73-0.2s-0.39-0.31-0.52-0.53-0.2-0.46-0.2-0.72v-2.22h4.35v-0.6h-4.35v-1.53h4.43c0.27 0 0.51 0.07 0.73 0.2s0.39 0.31 0.52 0.53 0.2 0.46 0.2 0.72v4.35zm0.08-1.53h2.82v-0.8h-2.82z"/><path transform="matrix(.1 0 0 .1 -22.491 -12.39)" d="m248.41 122.48c-0.27 0-0.51-0.07-0.73-0.2s-0.4-0.31-0.53-0.53-0.2-0.46-0.2-0.72v-6.07h1.53v1.72h2.15v1.53h-2.15v2.74h2.15v1.53z"/><path transform="matrix(.1 0 0 .1 -22.491 -12.39)" d="m244.52 122.48v-5.8h1.53v5.8zm0-6.16v-1.54h1.53v1.54z"/></g><path transform="translate(.8017 .014714)" d="m0.63271-0.15584c-0.027 0-0.051-7e-3 -0.073-0.02s-0.039-0.031-0.052-0.053c-0.014-0.022-0.02-0.046-0.02-0.072v-0.435h0.153v0.427h0.282v-0.427h0.153v0.435c0 0.026-6e-3 0.05-0.019 0.072-0.014 0.022-0.031 0.04-0.053 0.053s-0.046 0.02-0.073 0.02z"/></g><path d="m0.63871-0.14112c-0.027 0-0.052-7e-3 -0.074-0.02-0.023-0.013-0.041-0.031-0.054-0.054-0.013-0.022-0.02-0.047-0.02-0.074v-0.424c0-0.027 7e-3 -0.052 0.02-0.074 0.013-0.023 0.031-0.041 0.054-0.054 0.022-0.013 0.047-0.02 0.074-0.02h0.423c0.027 0 0.052 7e-3 0.074 0.02 0.023 0.013 0.041 0.031 0.055 0.054 0.013 0.022 0.02 0.047 0.02 0.074v0.068h-0.157v-0.06h-0.408v0.408h0.408v-0.108h-0.156v-0.156h0.313v0.272c0 0.027-7e-3 0.052-0.02 0.074-0.014 0.023-0.032 0.041-0.055 0.054-0.022 0.013-0.047 0.02-0.074 0.02z"/></g>
        </g>
        
        
        
        
    </g><g transform="matrix(1.2287 0 0 1.1306 23.974 .71034)" clip-rule="evenodd" fill-rule="evenodd" stroke-linecap="round" stroke-linejoin="round" stroke-miterlimit="1.5">
        <rect x="158" y="151" width="43" height="34" fill="#f9f497"/>
    </g><g transform="translate(103.97 122.22)" clip-rule="evenodd" fill-rule="evenodd" stroke-linecap="round" stroke-linejoin="round" stroke-miterlimit="1.5">
        <g transform="matrix(10 0 0 10 122.95 67.285)">
            <path d="m0.204 0c-0.027 0-0.052-7e-3 -0.074-0.02-0.023-0.013-0.041-0.031-0.054-0.054-0.013-0.022-0.02-0.047-0.02-0.074v-0.424c0-0.027 7e-3 -0.052 0.02-0.075 0.013-0.022 0.031-0.04 0.054-0.053 0.022-0.013 0.047-0.02 0.074-0.02h0.57v0.156h-0.53c-0.011 0-0.019 3e-3 -0.024 8e-3 -6e-3 5e-3 -9e-3 0.014-9e-3 0.025v0.342c0 0.011 3e-3 0.019 9e-3 0.024 5e-3 6e-3 0.013 9e-3 0.024 9e-3h0.53v0.156z" fill-rule="nonzero"/>
        </g>
        <g transform="matrix(10 0 0 10 131.17 67.285)">
            <path d="m0.196 0c-0.026 0-0.05-7e-3 -0.072-0.02s-0.04-0.031-0.053-0.053-0.02-0.046-0.02-0.072v-0.29c0-0.026 7e-3 -0.05 0.02-0.072s0.031-0.04 0.053-0.053 0.046-0.02 0.072-0.02h0.298c0.027 0 0.051 7e-3 0.073 0.02s0.039 0.031 0.052 0.053 0.02 0.046 0.02 0.072v0.29c0 0.026-7e-3 0.05-0.019 0.072-0.013 0.022-0.031 0.04-0.053 0.053s-0.046 0.02-0.073 0.02zm8e-3 -0.153h0.282v-0.274h-0.282z" fill-rule="nonzero"/>
        </g>
        <g transform="matrix(10 0 0 10 137.86 67.285)">
            <path d="m0.198 0c-0.027 0-0.051-7e-3 -0.073-0.02s-0.039-0.031-0.052-0.053c-0.014-0.022-0.02-0.046-0.02-0.072v-0.435h0.153v0.427h0.282v-0.427h0.153v0.435c0 0.026-6e-3 0.05-0.019 0.072-0.014 0.022-0.031 0.04-0.053 0.053s-0.046 0.02-0.073 0.02z" fill-rule="nonzero"/>
        </g>
        <g transform="matrix(10 0 0 10 144.61 67.285)">
            <path d="m0.196 0c-0.026 0-0.05-7e-3 -0.072-0.02s-0.04-0.031-0.053-0.053-0.02-0.046-0.02-0.072v-0.29c0-0.026 7e-3 -0.05 0.02-0.072s0.031-0.04 0.053-0.053 0.046-0.02 0.072-0.02h0.442v0.153h-0.434v0.274h0.435v0.153z" fill-rule="nonzero"/>
        </g>
        <g transform="matrix(10 0 0 10 151.41 67.285)">
            <path d="m0.054 0v-0.77h0.153v0.19h0.29c0.026 0 0.05 7e-3 0.072 0.02s0.04 0.031 0.053 0.053 0.02 0.046 0.02 0.072v0.435h-0.153v-0.427h-0.282v0.427z" fill-rule="nonzero"/>
        </g>
        <g transform="matrix(10 0 0 10 121.22 77.285)">
            <path d="m0.204 0c-0.027 0-0.052-7e-3 -0.074-0.02-0.023-0.013-0.041-0.031-0.054-0.054-0.013-0.022-0.02-0.047-0.02-0.074v-0.424c0-0.027 7e-3 -0.052 0.02-0.074 0.013-0.023 0.031-0.041 0.054-0.054 0.022-0.013 0.047-0.02 0.074-0.02h0.423c0.027 0 0.052 7e-3 0.074 0.02 0.023 0.013 0.041 0.031 0.055 0.054 0.013 0.022 0.02 0.047 0.02 0.074v0.068h-0.157v-0.06h-0.408v0.408h0.408v-0.108h-0.156v-0.156h0.313v0.272c0 0.027-7e-3 0.052-0.02 0.074-0.014 0.023-0.032 0.041-0.055 0.054-0.022 0.013-0.047 0.02-0.074 0.02z" fill-rule="nonzero"/>
        </g>
        <g transform="matrix(10 0 0 10 129.52 77.285)">
            <path d="m0.197 0c-0.026 0-0.051-7e-3 -0.073-0.02s-0.039-0.031-0.052-0.053-0.02-0.046-0.02-0.072v-0.222h0.435v-0.06h-0.435v-0.153h0.443c0.027 0 0.051 7e-3 0.073 0.02s0.039 0.031 0.052 0.053 0.02 0.046 0.02 0.072v0.435zm8e-3 -0.153h0.282v-0.08h-0.282z" fill-rule="nonzero"/>
        </g>
        <g transform="matrix(10 0 0 10 136.26 77.285)">
            <path d="m0.054 0v-0.58h0.698c0.027 0 0.051 7e-3 0.073 0.02s0.04 0.031 0.053 0.053c0.012 0.022 0.019 0.046 0.019 0.072v0.435h-0.152v-0.427h-0.192v0.427h-0.154v-0.427h-0.192v0.427z" fill-rule="nonzero"/>
        </g>
        <g transform="matrix(10 0 0 10 146.04 77.285)">
            <path d="m0.196 0c-0.026 0-0.05-7e-3 -0.072-0.02s-0.04-0.031-0.053-0.053-0.02-0.046-0.02-0.072v-0.29c0-0.026 7e-3 -0.05 0.02-0.072s0.031-0.04 0.053-0.053 0.046-0.02 0.072-0.02h0.298c0.027 0 0.051 7e-3 0.073 0.02s0.039 0.031 0.052 0.053 0.02 0.046 0.02 0.072v0.222h-0.435v0.06h0.435v0.153zm8e-3 -0.347h0.282v-0.08h-0.282z" fill-rule="nonzero"/>
        </g>
        <g transform="matrix(10 0 0 10 152.96 77.285)">
            <path d="m0.193 0c-0.026 0-0.05-7e-3 -0.072-0.02s-0.04-0.031-0.053-0.053-0.02-0.046-0.02-0.072v-0.029h0.153v0.021h0.282v-0.06h-0.29c-0.026 0-0.05-7e-3 -0.072-0.02s-0.04-0.031-0.053-0.053-0.02-0.046-0.02-0.072v-0.077c0-0.026 7e-3 -0.05 0.02-0.072s0.031-0.04 0.053-0.053 0.046-0.02 0.072-0.02h0.298c0.027 0 0.051 7e-3 0.073 0.02s0.04 0.031 0.053 0.053 0.02 0.046 0.02 0.072v0.029h-0.154v-0.021h-0.282v0.06h0.29c0.027 0 0.051 7e-3 0.073 0.02s0.04 0.031 0.053 0.053 0.02 0.046 0.02 0.072v0.077c0 0.026-7e-3 0.05-0.02 0.072s-0.031 0.04-0.053 0.053-0.046 0.02-0.073 0.02z" fill-rule="nonzero"/>
        </g>
    </g>
    <g transform="matrix(.57162 0 0 1.533 204.07 -67.222)">
        <rect x="158" y="151" width="43" height="34" fill="#f9f497"/>
    </g>
    <g transform="matrix(6.1232e-17 -1 1 6.1232e-17 238.13 331.28)">
        <g transform="matrix(10 0 0 10 124.65 67.285)">
            <path d="m0.204-0c-0.027 0-0.052-7e-3 -0.074-0.02-0.023-0.013-0.041-0.031-0.054-0.054-0.013-0.022-0.02-0.047-0.02-0.074v-0.424c0-0.027 7e-3 -0.052 0.02-0.074 0.013-0.023 0.031-0.041 0.054-0.054 0.022-0.013 0.047-0.02 0.074-0.02h0.423c0.027 0 0.052 7e-3 0.074 0.02 0.023 0.013 0.041 0.031 0.055 0.054 0.013 0.022 0.02 0.047 0.02 0.074v0.068h-0.157v-0.06h-0.408v0.408h0.408v-0.108h-0.156v-0.156h0.313v0.272c0 0.027-7e-3 0.052-0.02 0.074-0.014 0.023-0.032 0.041-0.055 0.054-0.022 0.013-0.047 0.02-0.074 0.02h-0.423z" fill-rule="nonzero"/>
        </g>
        <g transform="matrix(10 0 0 10 132.95 67.285)">
            <path d="m0.197-0c-0.026 0-0.051-7e-3 -0.073-0.02s-0.039-0.031-0.052-0.053-0.02-0.046-0.02-0.072v-0.222h0.435v-0.06h-0.435v-0.153h0.443c0.027 0 0.051 7e-3 0.073 0.02s0.039 0.031 0.052 0.053 0.02 0.046 0.02 0.072v0.435h-0.443zm8e-3 -0.153h0.282v-0.08h-0.282v0.08z" fill-rule="nonzero"/>
        </g>
        <g transform="matrix(10 0 0 10 139.69 67.285)">
            <path d="m0.054-0v-0.58h0.698c0.027 0 0.051 7e-3 0.073 0.02s0.04 0.031 0.053 0.053c0.012 0.022 0.019 0.046 0.019 0.072v0.435h-0.152v-0.427h-0.192v0.427h-0.154v-0.427h-0.192v0.427h-0.153z" fill-rule="nonzero"/>
        </g>
        <g transform="matrix(10 0 0 10 149.47 67.285)">
            <path d="m0.196-0c-0.026 0-0.05-7e-3 -0.072-0.02s-0.04-0.031-0.053-0.053-0.02-0.046-0.02-0.072v-0.29c0-0.026 7e-3 -0.05 0.02-0.072s0.031-0.04 0.053-0.053 0.046-0.02 0.072-0.02h0.298c0.027 0 0.051 7e-3 0.073 0.02s0.039 0.031 0.052 0.053 0.02 0.046 0.02 0.072v0.222h-0.435v0.06h0.435v0.153h-0.443zm8e-3 -0.347h0.282v-0.08h-0.282v0.08z" fill-rule="nonzero"/>
        </g>
        <g transform="matrix(10 0 0 10 129.94 76.285)">
            <path d="m0.057-0v-0.721h0.155v0.565h0.565v0.156h-0.72z" fill-rule="nonzero"/>
        </g>
        <g transform="matrix(10 0 0 10 137.74 76.285)">
            <path d="m0.197-0c-0.026 0-0.051-7e-3 -0.073-0.02s-0.039-0.031-0.052-0.053-0.02-0.046-0.02-0.072v-0.222h0.435v-0.06h-0.435v-0.153h0.443c0.027 0 0.051 7e-3 0.073 0.02s0.039 0.031 0.052 0.053 0.02 0.046 0.02 0.072v0.435h-0.443zm8e-3 -0.153h0.282v-0.08h-0.282v0.08z" fill-rule="nonzero"/>
        </g>
        <g transform="matrix(10 0 0 10 144.42 76.285)">
            <path d="m0.054-0v-0.77h0.153v0.19h0.29c0.027 0 0.051 7e-3 0.073 0.02s0.04 0.031 0.053 0.053 0.019 0.046 0.019 0.072v0.29c0 0.026-6e-3 0.05-0.019 0.072s-0.031 0.04-0.053 0.053-0.046 0.02-0.073 0.02h-0.443zm0.153-0.153h0.282v-0.274h-0.282v0.274z" fill-rule="nonzero"/>
        </g>
    </g>
    <g transform="matrix(1.9389 0 0 1.9412 101.66 -46.118)">
        <rect x="158" y="151" width="43" height="34" fill="#f9f497"/>
    </g>
    <g transform="translate(309.17 218.88)">
        <g transform="matrix(16 0 0 16 128.07 67.285)">
            <path d="m0.302-0v-0.564h-0.282v-0.156h0.72v0.156h-0.282v0.564h-0.156z" fill-rule="nonzero"/>
        </g>
        <g transform="matrix(16 0 0 16 140.22 67.285)">
            <path d="m0.057-0v-0.72h0.156v0.282h0.141l0.236-0.282h0.162v0.054l-0.257 0.306 0.257 0.306v0.054h-0.162l-0.236-0.282h-0.141v0.282h-0.156z" fill-rule="nonzero"/>
        </g>
    </g>
    <g transform="matrix(.97674 0 0 2.3745 394.36 -259.34)">
        <rect x="158" y="151" width="43" height="34" fill="#f9f497"/>
    </g>
    <g transform="matrix(2.6802 0 0 1.9412 72.536 -46.118)">
        <rect x="158" y="151" width="43" height="34" fill="#b9e891"/>
    </g>
    <g transform="translate(387.68 218.88)">
        <g transform="matrix(16 0 0 16 137.82 67.285)">
            <path d="m0.058-0v-0.72h0.665v0.156h-0.508v0.126h0.409v0.156h-0.409v0.126h0.508v0.156h-0.665z" fill-rule="nonzero"/>
        </g>
        <g transform="matrix(16 0 0 16 150.08 67.285)">
            <path d="m0.193-0c-0.026 0-0.05-7e-3 -0.072-0.02s-0.04-0.031-0.053-0.053-0.02-0.046-0.02-0.072v-0.029h0.153v0.021h0.282v-0.06h-0.29c-0.026 0-0.05-7e-3 -0.072-0.02s-0.04-0.031-0.053-0.053-0.02-0.046-0.02-0.072v-0.077c0-0.026 7e-3 -0.05 0.02-0.072s0.031-0.04 0.053-0.053 0.046-0.02 0.072-0.02h0.298c0.027 0 0.051 7e-3 0.073 0.02s0.04 0.031 0.053 0.053 0.02 0.046 0.02 0.072v0.029h-0.154v-0.021h-0.282v0.06h0.29c0.027 0 0.051 7e-3 0.073 0.02s0.04 0.031 0.053 0.053 0.02 0.046 0.02 0.072v0.077c0 0.026-7e-3 0.05-0.02 0.072s-0.031 0.04-0.053 0.053-0.046 0.02-0.073 0.02h-0.298z" fill-rule="nonzero"/>
        </g>
        <g transform="matrix(16 0 0 16 161.06 67.285)">
            <path d="m0.193-0c-0.026 0-0.05-7e-3 -0.072-0.02s-0.04-0.031-0.053-0.053-0.02-0.046-0.02-0.072v-0.029h0.153v0.021h0.282v-0.06h-0.29c-0.026 0-0.05-7e-3 -0.072-0.02s-0.04-0.031-0.053-0.053-0.02-0.046-0.02-0.072v-0.077c0-0.026 7e-3 -0.05 0.02-0.072s0.031-0.04 0.053-0.053 0.046-0.02 0.072-0.02h0.298c0.027 0 0.051 7e-3 0.073 0.02s0.04 0.031 0.053 0.053 0.02 0.046 0.02 0.072v0.029h-0.154v-0.021h-0.282v0.06h0.29c0.027 0 0.051 7e-3 0.073 0.02s0.04 0.031 0.053 0.053 0.02 0.046 0.02 0.072v0.077c0 0.026-7e-3 0.05-0.02 0.072s-0.031 0.04-0.053 0.053-0.046 0.02-0.073 0.02h-0.298z" fill-rule="nonzero"/>
        </g>
        <g transform="matrix(16 0 0 16 171.79 67.285)">
            <path d="m0.196-0c-0.026 0-0.05-7e-3 -0.072-0.02s-0.04-0.031-0.053-0.053-0.02-0.046-0.02-0.072v-0.29c0-0.026 7e-3 -0.05 0.02-0.072s0.031-0.04 0.053-0.053 0.046-0.02 0.072-0.02h0.298c0.027 0 0.051 7e-3 0.073 0.02s0.039 0.031 0.052 0.053 0.02 0.046 0.02 0.072v0.222h-0.435v0.06h0.435v0.153h-0.443zm8e-3 -0.347h0.282v-0.08h-0.282v0.08z" fill-rule="nonzero"/>
        </g>
        <g transform="matrix(16 0 0 16 182.86 67.285)">
            <path d="m0.054-0v-0.58h0.443c0.027 0 0.051 7e-3 0.073 0.02s0.04 0.031 0.053 0.053 0.019 0.046 0.019 0.072v0.435h-0.153v-0.427h-0.282v0.427h-0.153z" fill-rule="nonzero"/>
        </g>
    </g>
    <g transform="matrix(6.1232e-17 -1 1 6.1232e-17 140.73 298.08)">
        <g transform="matrix(16 0 0 16 110.18 67.285)">
            <path d="m0.615-0-0.209-0.249h0.203l0.166 0.196v0.053h-0.16zm-0.559 0v-0.719h0.571c0.027 0 0.052 7e-3 0.074 0.02 0.023 0.013 0.041 0.031 0.055 0.054 0.013 0.023 0.02 0.047 0.02 0.074v0.186c0 0.027-7e-3 0.051-0.02 0.074-0.014 0.023-0.032 0.041-0.055 0.054-0.022 0.013-0.047 0.02-0.074 0.02l-0.416 1e-3v0.236h-0.155zm0.155-0.393h0.408v-0.171h-0.408v0.171z" fill-rule="nonzero"/>
        </g>
        <g transform="matrix(16 0 0 16 123.38 67.285)">
            <path d="m0.196-0c-0.026 0-0.05-7e-3 -0.072-0.02s-0.04-0.031-0.053-0.053-0.02-0.046-0.02-0.072v-0.29c0-0.026 7e-3 -0.05 0.02-0.072s0.031-0.04 0.053-0.053 0.046-0.02 0.072-0.02h0.298c0.027 0 0.051 7e-3 0.073 0.02s0.039 0.031 0.052 0.053 0.02 0.046 0.02 0.072v0.222h-0.435v0.06h0.435v0.153h-0.443zm8e-3 -0.347h0.282v-0.08h-0.282v0.08z" fill-rule="nonzero"/>
        </g>
        <g transform="matrix(16 0 0 16 134.46 67.285)">
            <path d="m0.199-0c-0.027 0-0.051-7e-3 -0.073-0.02s-0.04-0.031-0.053-0.053-0.02-0.046-0.02-0.072v-0.607h0.153v0.172h0.215v0.153h-0.215v0.274h0.215v0.153h-0.222z" fill-rule="nonzero"/>
        </g>
        <g transform="matrix(16 0 0 16 141.02 67.285)">
            <path d="m0.052-0v-0.435c0-0.026 7e-3 -0.05 0.02-0.072s0.031-0.04 0.053-0.053 0.046-0.02 0.073-0.02h0.32v0.153h-0.313v0.427h-0.153z" fill-rule="nonzero"/>
        </g>
        <g transform="matrix(16 0 0 16 149.13 67.285)">
            <path d="m0.196-0c-0.026 0-0.05-7e-3 -0.072-0.02s-0.04-0.031-0.053-0.053-0.02-0.046-0.02-0.072v-0.29c0-0.026 7e-3 -0.05 0.02-0.072s0.031-0.04 0.053-0.053 0.046-0.02 0.072-0.02h0.298c0.027 0 0.051 7e-3 0.073 0.02s0.039 0.031 0.052 0.053 0.02 0.046 0.02 0.072v0.29c0 0.026-7e-3 0.05-0.019 0.072-0.013 0.022-0.031 0.04-0.053 0.053s-0.046 0.02-0.073 0.02h-0.298zm8e-3 -0.153h0.282v-0.274h-0.282v0.274z" fill-rule="nonzero"/>
        </g>
        <g transform="matrix(16 0 0 16 159.88 67.285)">
            <path d="m0.193-0c-0.026 0-0.05-7e-3 -0.072-0.02s-0.04-0.031-0.053-0.053-0.02-0.046-0.02-0.072v-0.029h0.153v0.021h0.282v-0.06h-0.29c-0.026 0-0.05-7e-3 -0.072-0.02s-0.04-0.031-0.053-0.053-0.02-0.046-0.02-0.072v-0.077c0-0.026 7e-3 -0.05 0.02-0.072s0.031-0.04 0.053-0.053 0.046-0.02 0.072-0.02h0.298c0.027 0 0.051 7e-3 0.073 0.02s0.04 0.031 0.053 0.053 0.02 0.046 0.02 0.072v0.029h-0.154v-0.021h-0.282v0.06h0.29c0.027 0 0.051 7e-3 0.073 0.02s0.04 0.031 0.053 0.053 0.02 0.046 0.02 0.072v0.077c0 0.026-7e-3 0.05-0.02 0.072s-0.031 0.04-0.053 0.053-0.046 0.02-0.073 0.02h-0.298z" fill-rule="nonzero"/>
        </g>
    </g>
    <g transform="matrix(1.3601 0 0 2.1797 -28.902 -325.67)">
        <rect x="158" y="151" width="43" height="34" fill="#f9f497"/>
    </g><g transform="translate(0 12.984)" clip-rule="evenodd" fill-rule="nonzero" stroke-linecap="round" stroke-linejoin="round" stroke-miterlimit="1.5"><g transform="translate(-.030705)" stroke-width="10"><path d="m196.94 36.031c-0.27 0-0.52-0.07-0.74-0.2-0.23-0.13-0.41-0.31-0.54-0.54-0.13-0.22-0.2-0.47-0.2-0.74v-4.24c0-0.27 0.07-0.52 0.2-0.74 0.13-0.23 0.31-0.41 0.54-0.54 0.22-0.13 0.47-0.2 0.74-0.2h4.23c0.27 0 0.52 0.07 0.74 0.2 0.23 0.13 0.41 0.31 0.55 0.54 0.13 0.22 0.2 0.47 0.2 0.74v0.68h-1.57v-0.6h-4.08v4.08h4.08v-1.08h-1.56v-1.56h3.13v2.72c0 0.27-0.07 0.52-0.2 0.74-0.14 0.23-0.32 0.41-0.55 0.54-0.22 0.13-0.47 0.2-0.74 0.2z"/><path d="m205.17 36.031c-0.26 0-0.51-0.07-0.73-0.2s-0.39-0.31-0.52-0.53-0.2-0.46-0.2-0.72v-2.22h4.35v-0.6h-4.35v-1.53h4.43c0.27 0 0.51 0.07 0.73 0.2s0.39 0.31 0.52 0.53 0.2 0.46 0.2 0.72v4.35zm0.08-1.53h2.82v-0.8h-2.82z"/><path d="m210.48 36.031v-5.8h6.98c0.27 0 0.51 0.07 0.73 0.2s0.4 0.31 0.53 0.53c0.12 0.22 0.19 0.46 0.19 0.72v4.35h-1.52v-4.27h-1.92v4.27h-1.54v-4.27h-1.92v4.27z"/><path d="m221.68 36.031c-0.26 0-0.5-0.07-0.72-0.2s-0.4-0.31-0.53-0.53-0.2-0.46-0.2-0.72v-2.9c0-0.26 0.07-0.5 0.2-0.72s0.31-0.4 0.53-0.53 0.46-0.2 0.72-0.2h2.98c0.27 0 0.51 0.07 0.73 0.2s0.39 0.31 0.52 0.53 0.2 0.46 0.2 0.72v2.22h-4.35v0.6h4.35v1.53zm0.08-3.47h2.82v-0.8h-2.82z"/><path d="m228.57 36.031c-0.26 0-0.5-0.07-0.72-0.2s-0.4-0.31-0.53-0.53-0.2-0.46-0.2-0.72v-0.29h1.53v0.21h2.82v-0.6h-2.9c-0.26 0-0.5-0.07-0.72-0.2s-0.4-0.31-0.53-0.53-0.2-0.46-0.2-0.72v-0.77c0-0.26 0.07-0.5 0.2-0.72s0.31-0.4 0.53-0.53 0.46-0.2 0.72-0.2h2.98c0.27 0 0.51 0.07 0.73 0.2s0.4 0.31 0.53 0.53 0.2 0.46 0.2 0.72v0.29h-1.54v-0.21h-2.82v0.6h2.9c0.27 0 0.51 0.07 0.73 0.2s0.4 0.31 0.53 0.53 0.2 0.46 0.2 0.72v0.77c0 0.26-0.07 0.5-0.2 0.72s-0.31 0.4-0.53 0.53-0.46 0.2-0.73 0.2z"/></g><g stroke-width="10"><path d="m222.55 26.729c-0.26 0-0.5-0.07-0.72-0.2s-0.4-0.31-0.53-0.53-0.2-0.46-0.2-0.72v-2.9c0-0.26 0.07-0.5 0.2-0.72s0.31-0.4 0.53-0.53 0.46-0.2 0.72-0.2h4.42v1.53h-4.34v2.74h4.35v1.53z"/><path d="m227.82 26.729v-7.7h1.53v1.9h2.9c0.26 0 0.5 0.07 0.72 0.2s0.4 0.31 0.53 0.53 0.2 0.46 0.2 0.72v4.35h-1.53v-4.27h-2.82v4.27z"/><path d="m218.14 26.729c-0.27 0-0.51-0.07-0.73-0.2s-0.4-0.31-0.53-0.53-0.2-0.46-0.2-0.72v-6.07h1.53v1.72h2.15v1.53h-2.15v2.74h2.15v1.53z"/><path d="m214.13 26.729v-5.8h1.53v5.8zm0-6.16v-1.54h1.53v1.54z"/></g><path d="m205.07 26.729-2.62-5.76h1.65l1.57 3.432 1.57-3.432h1.43l1.58 3.432 1.57-3.432h1.64l-2.62 5.76h-1.19l-1.7-3.704-1.69 3.704z" stroke-width="8.9443"/><path d="m196.19 26.729c-0.27 0-0.52-0.07-0.74-0.2-0.23-0.13-0.41-0.31-0.54-0.54-0.13-0.22-0.2-0.47-0.2-0.74v-0.67h1.55v0.59h4.08v-1.26h-4.15c-0.27 0-0.52-0.07-0.74-0.2-0.23-0.13-0.41-0.31-0.54-0.54-0.13-0.22-0.2-0.47-0.2-0.74v-1.42c0-0.27 0.07-0.52 0.2-0.74 0.13-0.23 0.31-0.41 0.54-0.54 0.22-0.13 0.47-0.2 0.74-0.2h4.24c0.27 0 0.51 0.07 0.74 0.2 0.22 0.13 0.4 0.31 0.54 0.54 0.13 0.22 0.2 0.47 0.2 0.74v0.67h-1.57v-0.59h-4.08v1.26h4.17c0.27 0 0.51 0.07 0.74 0.2 0.22 0.13 0.4 0.31 0.54 0.54 0.13 0.22 0.2 0.47 0.2 0.74v1.42c0 0.27-0.07 0.52-0.2 0.74-0.14 0.23-0.32 0.41-0.54 0.54-0.23 0.13-0.47 0.2-0.74 0.2z" stroke-width="10"/></g>
    
    <g transform="matrix(1 .00020294 -.00020294 1 -26.963 -27.065)" fill="none" stroke="#fff" stroke-linecap="square" stroke-linejoin="miter" stroke-width="1.5px">
        <path d="m298 125v42"/>
        <path d="m298 185v59h17"/>
        <path d="m347 244h-15"/>
    </g>
    <g transform="matrix(6.1232e-17 -1 1 6.1232e-17 -63.547 340.58)">
        <g transform="matrix(16 0 0 16 151.97 194.48)">
            <path d="m0.202-0c-0.027 0-0.052-7e-3 -0.074-0.02-0.023-0.013-0.041-0.031-0.054-0.054-0.013-0.022-0.02-0.047-0.02-0.074v-0.424c0-0.027 7e-3 -0.052 0.02-0.074 0.013-0.023 0.031-0.041 0.054-0.054 0.022-0.013 0.047-0.02 0.074-0.02h0.424c0.027 0 0.051 7e-3 0.074 0.02 0.022 0.013 0.04 0.031 0.054 0.054 0.013 0.022 0.02 0.047 0.02 0.074v0.424c0 0.027-7e-3 0.052-0.02 0.074-0.014 0.023-0.032 0.041-0.054 0.054-0.023 0.013-0.047 0.02-0.074 0.02h-0.424zm7e-3 -0.156h0.408v-0.408h-0.408v0.408z" fill-rule="nonzero"/>
        </g>
        <g transform="matrix(16 0 0 16 165.21 194.48)">
            <path d="m0.052-0v-0.435c0-0.026 7e-3 -0.05 0.02-0.072s0.031-0.04 0.053-0.053 0.046-0.02 0.073-0.02h0.32v0.153h-0.313v0.427h-0.153z" fill-rule="nonzero"/>
        </g>
        <g transform="matrix(16 0 0 16 173.41 194.48)">
            <path d="m0.133 0.229v-0.154h0.344v-0.075h-0.29c-0.027-0-0.051-7e-3 -0.073-0.02s-0.04-0.031-0.053-0.053-0.02-0.046-0.02-0.072v-0.29c0-0.026 7e-3 -0.05 0.02-0.072s0.031-0.04 0.053-0.053 0.047-0.02 0.073-0.02h0.298c0.027 0 0.051 7e-3 0.073 0.02s0.04 0.031 0.053 0.053 0.019 0.046 0.019 0.072v0.519c0 0.027-6e-3 0.051-0.019 0.073s-0.031 0.039-0.053 0.052-0.046 0.02-0.073 0.02h-0.352zm0.061-0.382h0.283v-0.274h-0.283v0.274z" fill-rule="nonzero"/>
        </g>
        <g transform="matrix(16 0 0 16 184.09 194.48)">
            <path d="m0.197-0c-0.026 0-0.051-7e-3 -0.073-0.02s-0.039-0.031-0.052-0.053-0.02-0.046-0.02-0.072v-0.222h0.435v-0.06h-0.435v-0.153h0.443c0.027 0 0.051 7e-3 0.073 0.02s0.039 0.031 0.052 0.053 0.02 0.046 0.02 0.072v0.435h-0.443zm8e-3 -0.153h0.282v-0.08h-0.282v0.08z" fill-rule="nonzero"/>
        </g>
    </g>
    <g transform="matrix(1.0926 0 0 .8 415.81 72.707)">
        <rect x="158" y="151" width="43" height="34" fill="#9330bb"/>
    </g>
    <g transform="translate(438.94 12.924)">
        <g transform="matrix(10 0 0 10 153.62 194.48)">
            <path d="m0.058-0v-0.72h0.665v0.156h-0.508v0.126h0.409v0.156h-0.409v0.126h0.508v0.156h-0.665z" fill-rule="nonzero"/>
        </g>
        <g transform="matrix(10 0 0 10 161.28 194.48)">
            <path d="m0.052-0v-0.58h0.153v0.58h-0.153zm0-0.616v-0.154h0.153v0.154h-0.153z" fill-rule="nonzero"/>
        </g>
        <g transform="matrix(10 0 0 10 163.21 194.48)">
            <path d="m0.054-0v-0.58h0.443c0.027 0 0.051 7e-3 0.073 0.02s0.04 0.031 0.053 0.053 0.019 0.046 0.019 0.072v0.435h-0.153v-0.427h-0.282v0.427h-0.153z" fill-rule="nonzero"/>
        </g>
        <g transform="matrix(10 0 0 10 170.17 194.48)">
            <path d="m0.197-0c-0.026 0-0.05-7e-3 -0.072-0.02s-0.04-0.031-0.053-0.053-0.02-0.046-0.02-0.072v-0.626h0.154v0.618h0.117v0.153h-0.126z" fill-rule="nonzero"/>
        </g>
        <g transform="matrix(10 0 0 10 173.09 194.48)">
            <path d="m0.197-0c-0.026 0-0.051-7e-3 -0.073-0.02s-0.039-0.031-0.052-0.053-0.02-0.046-0.02-0.072v-0.222h0.435v-0.06h-0.435v-0.153h0.443c0.027 0 0.051 7e-3 0.073 0.02s0.039 0.031 0.052 0.053 0.02 0.046 0.02 0.072v0.435h-0.443zm8e-3 -0.153h0.282v-0.08h-0.282v0.08z" fill-rule="nonzero"/>
        </g>
        <g transform="matrix(10 0 0 10 179.83 194.48)">
            <path d="m0.193-0c-0.026 0-0.05-7e-3 -0.072-0.02s-0.04-0.031-0.053-0.053-0.02-0.046-0.02-0.072v-0.029h0.153v0.021h0.282v-0.06h-0.29c-0.026 0-0.05-7e-3 -0.072-0.02s-0.04-0.031-0.053-0.053-0.02-0.046-0.02-0.072v-0.077c0-0.026 7e-3 -0.05 0.02-0.072s0.031-0.04 0.053-0.053 0.046-0.02 0.072-0.02h0.298c0.027 0 0.051 7e-3 0.073 0.02s0.04 0.031 0.053 0.053 0.02 0.046 0.02 0.072v0.029h-0.154v-0.021h-0.282v0.06h0.29c0.027 0 0.051 7e-3 0.073 0.02s0.04 0.031 0.053 0.053 0.02 0.046 0.02 0.072v0.077c0 0.026-7e-3 0.05-0.02 0.072s-0.031 0.04-0.053 0.053-0.046 0.02-0.073 0.02h-0.298z" fill-rule="nonzero"/>
        </g>
        <g transform="matrix(10 0 0 10 186.69 194.48)">
            <path d="m0.193-0c-0.026 0-0.05-7e-3 -0.072-0.02s-0.04-0.031-0.053-0.053-0.02-0.046-0.02-0.072v-0.029h0.153v0.021h0.282v-0.06h-0.29c-0.026 0-0.05-7e-3 -0.072-0.02s-0.04-0.031-0.053-0.053-0.02-0.046-0.02-0.072v-0.077c0-0.026 7e-3 -0.05 0.02-0.072s0.031-0.04 0.053-0.053 0.046-0.02 0.072-0.02h0.298c0.027 0 0.051 7e-3 0.073 0.02s0.04 0.031 0.053 0.053 0.02 0.046 0.02 0.072v0.029h-0.154v-0.021h-0.282v0.06h0.29c0.027 0 0.051 7e-3 0.073 0.02s0.04 0.031 0.053 0.053 0.02 0.046 0.02 0.072v0.077c0 0.026-7e-3 0.05-0.02 0.072s-0.031 0.04-0.053 0.053-0.046 0.02-0.073 0.02h-0.298z" fill-rule="nonzero"/>
        </g>
        <g transform="matrix(7 0 0 7 156.1 201.48)">
            <path d="m0.198-0c-0.026 0-0.05-7e-3 -0.072-0.02s-0.04-0.03-0.053-0.052c-0.013-0.021-0.02-0.046-0.02-0.073v-0.185c0-0.015 4e-3 -0.03 0.011-0.046s0.018-0.029 0.032-0.038c-5e-3 -0.011-7e-3 -0.029-7e-3 -0.053v-0.107c0-0.027 7e-3 -0.052 0.02-0.074s0.031-0.039 0.053-0.052 0.046-0.019 0.072-0.019h0.353c0.023 0 0.045 5e-3 0.066 0.015 0.021 0.011 0.038 0.025 0.052 0.043s0.023 0.038 0.027 0.061v0.088h-0.153v-0.053h-0.337v0.108l0.364 0.183v-0.095h0.153v0.161l0.115 0.068v0.158l-0.14-0.08c-0.014 0.019-0.032 0.034-0.053 0.045s-0.044 0.017-0.067 0.017h-0.416zm8e-3 -0.153h0.328l-0.311-0.157-0.015-8e-3c-1e-3 0-2e-3 3e-3 -2e-3 8e-3v0.157z" fill-rule="nonzero"/>
        </g>
        <g transform="matrix(7 0 0 7 162.67 201.48)">
            <path d="m0.452-0-0.417-0.72h0.18l0.302 0.523 0.302-0.523h0.179l-0.417 0.72h-0.129z" fill-rule="nonzero"/>
        </g>
        <g transform="matrix(7 0 0 7 169.69 201.48)">
            <path d="m0.196-0c-0.026 0-0.05-7e-3 -0.072-0.02s-0.04-0.031-0.053-0.053-0.02-0.046-0.02-0.072v-0.29c0-0.026 7e-3 -0.05 0.02-0.072s0.031-0.04 0.053-0.053 0.046-0.02 0.072-0.02h0.298c0.027 0 0.051 7e-3 0.073 0.02s0.039 0.031 0.052 0.053 0.02 0.046 0.02 0.072v0.222h-0.435v0.06h0.435v0.153h-0.443zm8e-3 -0.347h0.282v-0.08h-0.282v0.08z" fill-rule="nonzero"/>
        </g>
        <g transform="matrix(7 0 0 7 174.5 201.48)">
            <path d="m0.052-0v-0.435c0-0.026 7e-3 -0.05 0.02-0.072s0.031-0.04 0.053-0.053 0.046-0.02 0.073-0.02h0.32v0.153h-0.313v0.427h-0.153z" fill-rule="nonzero"/>
        </g>
        <g transform="matrix(7 0 0 7 178.08 201.48)">
            <path d="m0.197-0c-0.026 0-0.05-7e-3 -0.072-0.02s-0.04-0.031-0.053-0.053-0.02-0.046-0.02-0.072v-0.626h0.154v0.618h0.117v0.153h-0.126z" fill-rule="nonzero"/>
        </g>
        <g transform="matrix(7 0 0 7 180.09 201.48)">
            <path d="m0.196-0c-0.026 0-0.05-7e-3 -0.072-0.02s-0.04-0.031-0.053-0.053-0.02-0.046-0.02-0.072v-0.29c0-0.026 7e-3 -0.05 0.02-0.072s0.031-0.04 0.053-0.053 0.046-0.02 0.072-0.02h0.298c0.027 0 0.051 7e-3 0.073 0.02s0.039 0.031 0.052 0.053 0.02 0.046 0.02 0.072v0.222h-0.435v0.06h0.435v0.153h-0.443zm8e-3 -0.347h0.282v-0.08h-0.282v0.08z" fill-rule="nonzero"/>
        </g>
        <g transform="matrix(7 0 0 7 184.93 201.48)">
            <path d="m0.052-0v-0.58h0.153v0.58h-0.153zm0-0.616v-0.154h0.153v0.154h-0.153z" fill-rule="nonzero"/>
        </g>
        <g transform="matrix(7 0 0 7 186.39 201.48)">
            <path d="m0.054-0v-0.77h0.153v0.19h0.29c0.026 0 0.05 7e-3 0.072 0.02s0.04 0.031 0.053 0.053 0.02 0.046 0.02 0.072v0.435h-0.153v-0.427h-0.282v0.427h-0.153z" fill-rule="nonzero"/>
        </g>
    </g>
    <g transform="matrix(1.2246e-16 -1 1 1.2246e-16 380.6 313.18)">
        <g transform="matrix(14 0 0 14 140.56 194.48)">
            <path d="m0.057-0v-0.72h0.156v0.282h0.141l0.236-0.282h0.162v0.054l-0.257 0.306 0.257 0.306v0.054h-0.162l-0.236-0.282h-0.141v0.282h-0.156z" fill-rule="nonzero"/>
        </g>
        <g transform="matrix(14 0 0 14 151.72 194.48)">
            <path d="m0.197-0c-0.026 0-0.051-7e-3 -0.073-0.02s-0.039-0.031-0.052-0.053-0.02-0.046-0.02-0.072v-0.222h0.435v-0.06h-0.435v-0.153h0.443c0.027 0 0.051 7e-3 0.073 0.02s0.039 0.031 0.052 0.053 0.02 0.046 0.02 0.072v0.435h-0.443zm8e-3 -0.153h0.282v-0.08h-0.282v0.08z" fill-rule="nonzero"/>
        </g>
        <g transform="matrix(14 0 0 14 161.37 194.48)">
            <path d="m0.052-0v-0.435c0-0.026 7e-3 -0.05 0.02-0.072s0.031-0.04 0.053-0.053 0.046-0.02 0.073-0.02h0.32v0.153h-0.313v0.427h-0.153z" fill-rule="nonzero"/>
        </g>
        <g transform="matrix(14 0 0 14 168.54 194.48)">
            <path d="m0.197-0c-0.026 0-0.051-7e-3 -0.073-0.02s-0.039-0.031-0.052-0.053-0.02-0.046-0.02-0.072v-0.222h0.435v-0.06h-0.435v-0.153h0.443c0.027 0 0.051 7e-3 0.073 0.02s0.039 0.031 0.052 0.053 0.02 0.046 0.02 0.072v0.435h-0.443zm8e-3 -0.153h0.282v-0.08h-0.282v0.08z" fill-rule="nonzero"/>
        </g>
        <g transform="matrix(14 0 0 14 178.25 194.48)">
            <path d="m0.196-0c-0.026 0-0.05-7e-3 -0.072-0.02s-0.04-0.031-0.053-0.053-0.02-0.046-0.02-0.072v-0.29c0-0.026 7e-3 -0.05 0.02-0.072s0.031-0.04 0.053-0.053 0.046-0.02 0.072-0.02h0.298c0.027 0 0.051 7e-3 0.073 0.02s0.039 0.031 0.052 0.053 0.02 0.046 0.02 0.072v0.29c0 0.026-7e-3 0.05-0.019 0.072-0.013 0.022-0.031 0.04-0.053 0.053s-0.046 0.02-0.073 0.02h-0.298zm8e-3 -0.153h0.282v-0.274h-0.282v0.274z" fill-rule="nonzero"/>
        </g>
        <g transform="matrix(14 0 0 14 187.94 194.48)">
            <path d="m0.054-0v-0.77h0.153v0.403h0.078l0.197-0.213h0.154v0.052l-0.216 0.238 0.216 0.238v0.052h-0.154l-0.197-0.213h-0.078v0.213h-0.153z" fill-rule="nonzero"/>
        </g>
        <g transform="matrix(14 0 0 14 196.91 194.48)">
            <path d="m0.196-0c-0.026 0-0.05-7e-3 -0.072-0.02s-0.04-0.031-0.053-0.053-0.02-0.046-0.02-0.072v-0.29c0-0.026 7e-3 -0.05 0.02-0.072s0.031-0.04 0.053-0.053 0.046-0.02 0.072-0.02h0.298c0.027 0 0.051 7e-3 0.073 0.02s0.039 0.031 0.052 0.053 0.02 0.046 0.02 0.072v0.222h-0.435v0.06h0.435v0.153h-0.443zm8e-3 -0.347h0.282v-0.08h-0.282v0.08z" fill-rule="nonzero"/>
        </g>
    </g>
    <g transform="translate(181.57 46.915)">
        <g transform="matrix(10 0 0 10 155.91 67.285)">
            <path d="m0.297-0-0.262-0.72h0.165l0.157 0.429 0.157-0.429h0.143l0.158 0.429 0.157-0.429h0.164l-0.262 0.72h-0.119l-0.17-0.463-0.169 0.463h-0.119z" fill="#fff" fill-rule="nonzero"/>
        </g>
        <g transform="matrix(10 0 0 10 167.7 67.285)">
            <path d="m0.204-0c-0.027 0-0.052-7e-3 -0.074-0.02-0.023-0.013-0.041-0.031-0.054-0.054-0.013-0.022-0.02-0.047-0.02-0.074v-0.424c0-0.027 7e-3 -0.052 0.02-0.075 0.013-0.022 0.031-0.04 0.054-0.053 0.022-0.013 0.047-0.02 0.074-0.02h0.57v0.156h-0.53c-0.011 0-0.019 3e-3 -0.024 8e-3 -6e-3 5e-3 -9e-3 0.014-9e-3 0.025v0.342c0 0.011 3e-3 0.019 9e-3 0.024 5e-3 6e-3 0.013 9e-3 0.024 9e-3h0.53v0.156h-0.57z" fill="#fff" fill-rule="nonzero"/>
        </g>
        <g transform="matrix(10 0 0 10 146.16 77.285)">
            <path d="m0.057-0v-0.72h0.155v0.282h0.425v-0.282h0.155v0.72h-0.155v-0.282h-0.425v0.282h-0.155z" fill="#fff" fill-rule="nonzero"/>
        </g>
        <g transform="matrix(10 0 0 10 154.67 77.285)">
            <path d="m0.196-0c-0.026 0-0.05-7e-3 -0.072-0.02s-0.04-0.031-0.053-0.053-0.02-0.046-0.02-0.072v-0.29c0-0.026 7e-3 -0.05 0.02-0.072s0.031-0.04 0.053-0.053 0.046-0.02 0.072-0.02h0.298c0.027 0 0.051 7e-3 0.073 0.02s0.039 0.031 0.052 0.053 0.02 0.046 0.02 0.072v0.222h-0.435v0.06h0.435v0.153h-0.443zm8e-3 -0.347h0.282v-0.08h-0.282v0.08z" fill="#fff" fill-rule="nonzero"/>
        </g>
        <g transform="matrix(10 0 0 10 161.54 77.285)">
            <path d="m0.052-0v-0.435c0-0.026 7e-3 -0.05 0.02-0.072s0.031-0.04 0.053-0.053 0.046-0.02 0.073-0.02h0.32v0.153h-0.313v0.427h-0.153z" fill="#fff" fill-rule="nonzero"/>
        </g>
        <g transform="matrix(10 0 0 10 166.66 77.285)">
            <path d="m0.052-0v-0.435c0-0.026 7e-3 -0.05 0.02-0.072s0.031-0.04 0.053-0.053 0.046-0.02 0.073-0.02h0.32v0.153h-0.313v0.427h-0.153z" fill="#fff" fill-rule="nonzero"/>
        </g>
        <g transform="matrix(10 0 0 10 171.78 77.285)">
            <path d="m0.196-0c-0.026 0-0.05-7e-3 -0.072-0.02s-0.04-0.031-0.053-0.053-0.02-0.046-0.02-0.072v-0.29c0-0.026 7e-3 -0.05 0.02-0.072s0.031-0.04 0.053-0.053 0.046-0.02 0.072-0.02h0.298c0.027 0 0.051 7e-3 0.073 0.02s0.039 0.031 0.052 0.053 0.02 0.046 0.02 0.072v0.222h-0.435v0.06h0.435v0.153h-0.443zm8e-3 -0.347h0.282v-0.08h-0.282v0.08z" fill="#fff" fill-rule="nonzero"/>
        </g>
        <g transform="matrix(10 0 0 10 178.7 77.285)">
            <path d="m0.054-0v-0.58h0.443c0.027 0 0.051 7e-3 0.073 0.02s0.04 0.031 0.053 0.053 0.019 0.046 0.019 0.072v0.435h-0.153v-0.427h-0.282v0.427h-0.153z" fill="#fff" fill-rule="nonzero"/>
        </g>
        <g transform="matrix(10 0 0 10 142.53 87.285)">
            <path d="m0.197-0c-0.026 0-0.051-7e-3 -0.073-0.02s-0.039-0.031-0.052-0.053-0.02-0.046-0.02-0.072v-0.43c0-0.027 7e-3 -0.051 0.02-0.073s0.03-0.039 0.052-0.052 0.046-0.02 0.073-0.02h0.066v0.153h-0.058v0.414h0.058v0.153h-0.066z" fill="#fff" fill-rule="nonzero"/>
        </g>
        <g transform="matrix(10 0 0 10 145.3 87.285)">
            <path d="m0.237-0v-0.487l-0.033 0.041h-0.203l0.23-0.274h0.159v0.72h-0.153z" fill="#fff" fill-rule="nonzero"/>
        </g>
        <g transform="matrix(10 0 0 10 149.21 87.285)">
            <rect x=".054" y="-.153" width=".153" height=".153" fill="#fff" fill-rule="nonzero"/>
        </g>
        <g transform="matrix(10 0 0 10 154.07 87.285)">
            <path d="m0.202-0c-0.027 0-0.052-7e-3 -0.074-0.02-0.023-0.013-0.041-0.031-0.054-0.054-0.013-0.022-0.02-0.047-0.02-0.074v-0.067h0.155v0.059h0.408v-0.126h-0.415c-0.027 0-0.052-7e-3 -0.074-0.02-0.023-0.013-0.041-0.031-0.054-0.054-0.013-0.022-0.02-0.047-0.02-0.074v-0.142c0-0.027 7e-3 -0.052 0.02-0.074 0.013-0.023 0.031-0.041 0.054-0.054 0.022-0.013 0.047-0.02 0.074-0.02h0.424c0.027 0 0.051 7e-3 0.074 0.02 0.022 0.013 0.04 0.031 0.054 0.054 0.013 0.022 0.02 0.047 0.02 0.074v0.067h-0.157v-0.059h-0.408v0.126h0.417c0.027 0 0.051 7e-3 0.074 0.02 0.022 0.013 0.04 0.031 0.054 0.054 0.013 0.022 0.02 0.047 0.02 0.074v0.142c0 0.027-7e-3 0.052-0.02 0.074-0.014 0.023-0.032 0.041-0.054 0.054-0.023 0.013-0.047 0.02-0.074 0.02h-0.424z" fill="#fff" fill-rule="nonzero"/>
        </g>
        <g transform="matrix(10 0 0 10 162.29 87.285)">
            <path d="m0.199-0c-0.027 0-0.051-7e-3 -0.073-0.02s-0.04-0.031-0.053-0.053-0.02-0.046-0.02-0.072v-0.607h0.153v0.172h0.215v0.153h-0.215v0.274h0.215v0.153h-0.222z" fill="#fff" fill-rule="nonzero"/>
        </g>
        <g transform="matrix(10 0 0 10 166.39 87.285)" fill-rule="nonzero">
            <path d="m0.196-0c-0.026 0-0.05-7e-3 -0.072-0.02s-0.04-0.031-0.053-0.053-0.02-0.046-0.02-0.072v-0.29c0-0.026 7e-3 -0.05 0.02-0.072s0.031-0.04 0.053-0.053 0.046-0.02 0.072-0.02h0.298c0.027 0 0.051 7e-3 0.073 0.02s0.039 0.031 0.052 0.053 0.02 0.046 0.02 0.072v0.29c0 0.026-7e-3 0.05-0.019 0.072-0.013 0.022-0.031 0.04-0.053 0.053s-0.046 0.02-0.073 0.02h-0.298zm8e-3 -0.153h0.282v-0.274h-0.282v0.274z" fill="#fff"/><g clip-rule="evenodd" stroke-linecap="round" stroke-linejoin="round" stroke-miterlimit="1.5"><path d="m-6.4443-1.217v-0.72h0.155v0.282h0.425v-0.282h0.155v0.72h-0.155v-0.282h-0.425v0.282z"/><path d="m-5.4854-1.217c-0.026 0-0.05-7e-3 -0.072-0.02s-0.04-0.031-0.053-0.053-0.02-0.046-0.02-0.072v-0.29c0-0.026 7e-3 -0.05 0.02-0.072s0.031-0.04 0.053-0.053 0.046-0.02 0.072-0.02h0.298c0.027 0 0.051 7e-3 0.073 0.02s0.039 0.031 0.052 0.053 0.02 0.046 0.02 0.072v0.222h-0.435v0.06h0.435v0.153zm8e-3 -0.347h0.282v-0.08h-0.282z"/><path d="m-4.9589-1.217v-0.435c0-0.026 7e-3 -0.05 0.02-0.072s0.031-0.04 0.053-0.053 0.046-0.02 0.073-0.02h0.32v0.153h-0.313v0.427z"/><path d="m-4.2893-1.217c-0.026 0-0.05-7e-3 -0.072-0.02s-0.04-0.031-0.053-0.053-0.02-0.046-0.02-0.072v-0.29c0-0.026 7e-3 -0.05 0.02-0.072s0.031-0.04 0.053-0.053 0.046-0.02 0.072-0.02h0.298c0.027 0 0.051 7e-3 0.073 0.02s0.039 0.031 0.052 0.053 0.02 0.046 0.02 0.072v0.29c0 0.026-7e-3 0.05-0.019 0.072-0.013 0.022-0.031 0.04-0.053 0.053s-0.046 0.02-0.073 0.02zm8e-3 -0.153h0.282v-0.274h-0.282z"/></g>
        </g>
        <g transform="matrix(10 0 0 10 173.31 87.285)">
            <path d="m0.196-0c-0.026 0-0.05-7e-3 -0.072-0.02s-0.04-0.031-0.053-0.053-0.02-0.046-0.02-0.072v-0.29c0-0.026 7e-3 -0.05 0.02-0.072s0.031-0.04 0.053-0.053 0.046-0.02 0.072-0.02h0.442v0.153h-0.434v0.274h0.435v0.153h-0.443z" fill="#fff" fill-rule="nonzero"/>
        </g>
        <g transform="matrix(10 0 0 10 180.06 87.285)">
            <path d="m0.054-0v-0.77h0.153v0.403h0.078l0.197-0.213h0.154v0.052l-0.216 0.238 0.216 0.238v0.052h-0.154l-0.197-0.213h-0.078v0.213h-0.153z" fill="#fff" fill-rule="nonzero"/>
        </g>
        <g transform="matrix(10 0 0 10 186.52 87.285)">
            <path d="m0.056-0v-0.153h0.058v-0.414h-0.058v-0.153h0.067c0.026 0 0.05 7e-3 0.072 0.019 0.022 0.013 0.04 0.031 0.053 0.053s0.02 0.046 0.02 0.073v0.43c0 0.026-7e-3 0.05-0.02 0.072s-0.031 0.04-0.053 0.053-0.046 0.02-0.072 0.02h-0.067z" fill="#fff" fill-rule="nonzero"/>
        </g>
    </g>
    <g transform="translate(181.57 92.655)">
        <g transform="matrix(10 0 0 10 155.91 67.285)">
            <path d="m0.297-0-0.262-0.72h0.165l0.157 0.429 0.157-0.429h0.143l0.158 0.429 0.157-0.429h0.164l-0.262 0.72h-0.119l-0.17-0.463-0.169 0.463h-0.119z" fill="#fff" fill-rule="nonzero"/>
        </g>
        <g transform="matrix(10 0 0 10 167.7 67.285)">
            <path d="m0.204-0c-0.027 0-0.052-7e-3 -0.074-0.02-0.023-0.013-0.041-0.031-0.054-0.054-0.013-0.022-0.02-0.047-0.02-0.074v-0.424c0-0.027 7e-3 -0.052 0.02-0.075 0.013-0.022 0.031-0.04 0.054-0.053 0.022-0.013 0.047-0.02 0.074-0.02h0.57v0.156h-0.53c-0.011 0-0.019 3e-3 -0.024 8e-3 -6e-3 5e-3 -9e-3 0.014-9e-3 0.025v0.342c0 0.011 3e-3 0.019 9e-3 0.024 5e-3 6e-3 0.013 9e-3 0.024 9e-3h0.53v0.156h-0.57z" fill="#fff" fill-rule="nonzero"/>
        </g>
        <g transform="matrix(10 0 0 10 145.93 77.285)">
            <path d="m0.058-0v-0.72h0.665v0.156h-0.508v0.126h0.409v0.156h-0.409v0.282h-0.157z" fill="#fff" fill-rule="nonzero"/>
        </g>
        <g transform="matrix(10 0 0 10 153.16 77.285)">
            <path d="m0.052-0v-0.435c0-0.026 7e-3 -0.05 0.02-0.072s0.031-0.04 0.053-0.053 0.046-0.02 0.073-0.02h0.32v0.153h-0.313v0.427h-0.153z" fill="#fff" fill-rule="nonzero"/>
        </g>
        <g transform="matrix(10 0 0 10 158.28 77.285)">
            <path d="m0.197-0c-0.026 0-0.051-7e-3 -0.073-0.02s-0.039-0.031-0.052-0.053-0.02-0.046-0.02-0.072v-0.222h0.435v-0.06h-0.435v-0.153h0.443c0.027 0 0.051 7e-3 0.073 0.02s0.039 0.031 0.052 0.053 0.02 0.046 0.02 0.072v0.435h-0.443zm8e-3 -0.153h0.282v-0.08h-0.282v0.08z" fill="#fff" fill-rule="nonzero"/>
        </g>
        <g transform="matrix(10 0 0 10 165.22 77.285)">
            <path d="m0.198-0c-0.027 0-0.051-7e-3 -0.073-0.02s-0.039-0.031-0.052-0.053c-0.014-0.022-0.02-0.046-0.02-0.072v-0.435h0.153v0.427h0.282v-0.427h0.153v0.435c0 0.026-6e-3 0.05-0.019 0.072-0.014 0.022-0.031 0.04-0.053 0.053s-0.046 0.02-0.073 0.02h-0.298z" fill="#fff" fill-rule="nonzero"/>
        </g>
        <g transform="matrix(10 0 0 10 172.02 77.285)">
            <path d="m0.196-0c-0.026 0-0.05-7e-3 -0.072-0.02s-0.04-0.031-0.053-0.053-0.02-0.046-0.02-0.072v-0.29c0-0.026 7e-3 -0.05 0.02-0.072s0.031-0.04 0.053-0.053 0.046-0.02 0.072-0.02h0.298c0.027 0 0.051 7e-3 0.073 0.02s0.039 0.031 0.052 0.053 0.02 0.046 0.02 0.072v0.222h-0.435v0.06h0.435v0.153h-0.443zm8e-3 -0.347h0.282v-0.08h-0.282v0.08z" fill="#fff" fill-rule="nonzero"/>
        </g>
        <g transform="matrix(10 0 0 10 178.94 77.285)">
            <path d="m0.054-0v-0.58h0.443c0.027 0 0.051 7e-3 0.073 0.02s0.04 0.031 0.053 0.053 0.019 0.046 0.019 0.072v0.435h-0.153v-0.427h-0.282v0.427h-0.153z" fill="#fff" fill-rule="nonzero"/>
        </g>
        <g transform="matrix(10 0 0 10 155.16 87.285)">
            <path d="m0.197-0c-0.026 0-0.051-7e-3 -0.073-0.02s-0.039-0.031-0.052-0.053-0.02-0.046-0.02-0.072v-0.43c0-0.027 7e-3 -0.051 0.02-0.073s0.03-0.039 0.052-0.052 0.046-0.02 0.073-0.02h0.066v0.153h-0.058v0.414h0.058v0.153h-0.066z" fill="#fff" fill-rule="nonzero"/>
        </g>
        <g transform="matrix(10 0 0 10 157.93 87.285)">
            <path d="m0.058-0v-0.72h0.665v0.156h-0.508v0.126h0.409v0.156h-0.409v0.126h0.508v0.156h-0.665z" fill="#fff" fill-rule="nonzero"/>
        </g>
        <g transform="matrix(10 0 0 10 165.59 87.285)">
            <path d="m0.204-0c-0.027 0-0.052-7e-3 -0.074-0.02-0.023-0.013-0.041-0.031-0.054-0.054-0.013-0.022-0.02-0.047-0.02-0.074v-0.424c0-0.027 7e-3 -0.052 0.02-0.074 0.013-0.023 0.031-0.041 0.054-0.054 0.022-0.013 0.047-0.02 0.074-0.02h0.423c0.027 0 0.052 7e-3 0.074 0.02 0.023 0.013 0.041 0.031 0.055 0.054 0.013 0.022 0.02 0.047 0.02 0.074v0.068h-0.157v-0.06h-0.408v0.408h0.408v-0.108h-0.156v-0.156h0.313v0.272c0 0.027-7e-3 0.052-0.02 0.074-0.014 0.023-0.032 0.041-0.055 0.054-0.022 0.013-0.047 0.02-0.074 0.02h-0.423z" fill="#fff" fill-rule="nonzero"/>
        </g>
        <g transform="matrix(10 0 0 10 173.89 87.285)">
            <path d="m0.056-0v-0.153h0.058v-0.414h-0.058v-0.153h0.067c0.026 0 0.05 7e-3 0.072 0.019 0.022 0.013 0.04 0.031 0.053 0.053s0.02 0.046 0.02 0.073v0.43c0 0.026-7e-3 0.05-0.02 0.072s-0.031 0.04-0.053 0.053-0.046 0.02-0.072 0.02h-0.067z" fill="#fff" fill-rule="nonzero"/>
        </g>
    </g>
    <g transform="translate(-40.778 -75.895)">
        <g transform="matrix(8 0 0 8 153.47 194.48)">
            <path d="m0.058-0v-0.72h0.571c0.027 0 0.052 7e-3 0.074 0.02 0.023 0.013 0.041 0.031 0.055 0.054 0.013 0.022 0.02 0.047 0.02 0.074v0.424c0 0.027-7e-3 0.052-0.02 0.074-0.014 0.023-0.032 0.041-0.055 0.054-0.022 0.013-0.047 0.02-0.074 0.02h-0.571zm0.154-0.156h0.409v-0.408h-0.409v0.408z" fill-rule="nonzero"/>
        </g>
        <g transform="matrix(8 0 0 8 160.15 194.48)">
            <path d="m0.052-0v-0.435c0-0.026 7e-3 -0.05 0.02-0.072s0.031-0.04 0.053-0.053 0.046-0.02 0.073-0.02h0.32v0.153h-0.313v0.427h-0.153z" fill-rule="nonzero"/>
        </g>
        <g transform="matrix(8 0 0 8 164.24 194.48)">
            <path d="m0.052-0v-0.58h0.153v0.58h-0.153zm0-0.616v-0.154h0.153v0.154h-0.153z" fill-rule="nonzero"/>
        </g>
        <g transform="matrix(8 0 0 8 165.79 194.48)">
            <path d="m0.054-0v-0.58h0.443c0.027 0 0.051 7e-3 0.073 0.02s0.04 0.031 0.053 0.053 0.019 0.046 0.019 0.072v0.435h-0.153v-0.427h-0.282v0.427h-0.153z" fill-rule="nonzero"/>
        </g>
        <g transform="matrix(8 0 0 8 171.35 194.48)">
            <path d="m0.054-0v-0.77h0.153v0.403h0.078l0.197-0.213h0.154v0.052l-0.216 0.238 0.216 0.238v0.052h-0.154l-0.197-0.213h-0.078v0.213h-0.153z" fill-rule="nonzero"/>
        </g>
        <g transform="matrix(8 0 0 8 176.52 194.48)">
            <path d="m0.193-0c-0.026 0-0.05-7e-3 -0.072-0.02s-0.04-0.031-0.053-0.053-0.02-0.046-0.02-0.072v-0.029h0.153v0.021h0.282v-0.06h-0.29c-0.026 0-0.05-7e-3 -0.072-0.02s-0.04-0.031-0.053-0.053-0.02-0.046-0.02-0.072v-0.077c0-0.026 7e-3 -0.05 0.02-0.072s0.031-0.04 0.053-0.053 0.046-0.02 0.072-0.02h0.298c0.027 0 0.051 7e-3 0.073 0.02s0.04 0.031 0.053 0.053 0.02 0.046 0.02 0.072v0.029h-0.154v-0.021h-0.282v0.06h0.29c0.027 0 0.051 7e-3 0.073 0.02s0.04 0.031 0.053 0.053 0.02 0.046 0.02 0.072v0.077c0 0.026-7e-3 0.05-0.02 0.072s-0.031 0.04-0.053 0.053-0.046 0.02-0.073 0.02h-0.298z" fill-rule="nonzero"/>
        </g>
    </g>
    <g transform="translate(-38 -42)">
        <path d="m281 45h480v310h-77" fill="none" stroke="#7f7f7f" stroke-dasharray="3,6,0,0" stroke-linecap="square" stroke-linejoin="miter" stroke-width="3px"/>
        <path d="m358 355v-70" fill="none" stroke="#fff" stroke-linecap="square" stroke-linejoin="miter" stroke-width="3px"/>
        <g transform="translate(291)">
            <path d="m358 355v-70" fill="none" stroke="#fff" stroke-linecap="square" stroke-linejoin="miter" stroke-width="3px"/>
        </g><g fill="none" stroke="#fff" stroke-linecap="square" stroke-linejoin="miter" stroke-width="3px">
        <path d="m413 259h-55v-119h-77v-95h-240v310h643v-215h-98v119h-153"/>
        <path d="m149 149v103"/>
        <path d="m358 140h228"/>
        <path d="m413 140v24"/>
        <path d="m433 193v66"/>
        <path d="m433 176h42v83"/>
        </g><g transform="matrix(.77215 0 0 .77215 94.101 41.013)">
            <path d="m413 180v79" fill="none" stroke="#fff" stroke-linecap="square" stroke-linejoin="miter" stroke-width="3.89px"/>
        </g><g fill="none" stroke="#fff" stroke-linecap="square" stroke-linejoin="miter" stroke-width="3px">
        <path d="m433 176v-36"/>
        <path d="m453 195v29"/>
        <path d="m628 234v-66h21v22"/>
        <path d="m672 168v66h-23v-24.5"/>
        <path d="m433 244h42"/>
        <path d="m358 234h55"/>
        </g><g transform="translate(0 40)" fill="none" stroke="#fff" stroke-linecap="square" stroke-linejoin="miter" stroke-width="3px">
            <path d="m628 176h21"/>
            <path d="m628 182h21"/>
            <path d="m628 188h21"/>
        </g>
        <g transform="translate(21 -8)">
            <path d="m628 176h21" fill="none" stroke="#fff" stroke-linecap="square" stroke-linejoin="miter" stroke-width="3px"/>
        </g>
        <g transform="matrix(.95238 0 0 1 20.619 -7.1054e-15)">
            <g transform="translate(-195 26)" fill="none" stroke="#fff" stroke-linecap="square" stroke-linejoin="miter" stroke-width="3.07px">
                <path d="m628 176h21"/>
            
            
                <path d="m628 182h21"/>
            
            
                <path d="m628 188h21"/>
            </g>
            <g transform="translate(-195 32)">
                <path d="m628 188h21" fill="none" stroke="#fff" stroke-linecap="square" stroke-linejoin="miter" stroke-width="3.07px"/>
            </g>
        </g>
        <g transform="translate(21 -2.5)">
            <g transform="translate(-195 26)" fill="none" stroke="#fff" stroke-linecap="square" stroke-linejoin="miter" stroke-width="3px">
                <path d="m628 176h21"/>
            
            
                <path d="m628 182h21"/>
            
            
                <path d="m628 188h21"/>
            </g>
            <g transform="translate(-195 32)">
                <path d="m628 188h21" fill="none" stroke="#fff" stroke-linecap="square" stroke-linejoin="miter" stroke-width="3px"/>
            </g>
        </g>
        <g transform="translate(21 38)" fill="none" stroke="#fff" stroke-linecap="square" stroke-linejoin="miter" stroke-width="3px">
            <path d="m628 176h21"/>
            <path d="m628 182h21"/>
            <path d="m628 188h21"/>
        </g>
        
            <g transform="matrix(1.75,0,0,1.75,-118.75,-104.75)">
                <circle cx="153" cy="145" r="4" fill="#fff"/>
            </g>
            <g transform="matrix(1.75,0,0,1.75,-118.75,-1.75)">
                <circle cx="153" cy="145" r="4" fill="#fff"/>
            </g>
            <g transform="matrix(1.75,0,0,1.75,-11.75,-1.75)">
                <circle cx="153" cy="145" r="4" fill="#fff"/>
            </g>
            <g transform="matrix(1.75,0,0,1.75,-11.75,-104.75)">
                <circle cx="153" cy="145" r="4" fill="#fff"/>
            </g>
        
        <path d="m256 149v103" fill="none" stroke="#fff" stroke-linecap="square" stroke-linejoin="miter" stroke-width="3px"/>
    </g>
</svg>
