<?xml version="1.0" encoding="UTF-8" standalone="no"?><!DOCTYPE svg PUBLIC "-//W3C//DTD SVG 1.1//EN" "http://www.w3.org/Graphics/SVG/1.1/DTD/svg11.dtd"><svg width="100%" height="100%" viewBox="0 0 726 316" version="1.1" xmlns="http://www.w3.org/2000/svg" xmlns:xlink="http://www.w3.org/1999/xlink" xml:space="preserve" xmlns:serif="http://www.serif.com/" style="fill-rule:evenodd;clip-rule:evenodd;stroke-linecap:square;stroke-miterlimit:1.5;"><rect x="-389" y="-266" width="1309" height="1071"/><rect x="169.408" y="3" width="157.839" height="67" style="fill:#b9e891;"/><path d="M221.151,42.66l0,-11.52l10.64,-0l0,2.496l-8.128,-0l0,2.016l6.544,-0l0,2.496l-6.544,-0l0,2.016l8.128,-0l0,2.496l-10.64,-0Z" style="fill-rule:nonzero;"/><path d="M235.567,42.66c-0.42,-0 -0.805,-0.107 -1.155,-0.32c-0.35,-0.213 -0.631,-0.495 -0.845,-0.845c-0.213,-0.35 -0.32,-0.735 -0.32,-1.155l0,-0.464l2.448,-0l0,0.336l4.512,-0l0,-0.96l-4.64,-0c-0.42,-0 -0.805,-0.107 -1.155,-0.32c-0.35,-0.213 -0.631,-0.495 -0.845,-0.845c-0.213,-0.35 -0.32,-0.735 -0.32,-1.155l0,-1.232c0,-0.42 0.107,-0.805 0.32,-1.155c0.214,-0.35 0.495,-0.632 0.845,-0.845c0.35,-0.213 0.735,-0.32 1.155,-0.32l4.768,-0c0.432,-0 0.823,0.107 1.172,0.32c0.35,0.213 0.631,0.495 0.844,0.845c0.214,0.35 0.32,0.735 0.32,1.155l0,0.464l-2.464,-0l0,-0.336l-4.512,-0l0,0.96l4.64,-0c0.432,-0 0.823,0.107 1.172,0.32c0.35,0.213 0.631,0.495 0.844,0.845c0.214,0.35 0.32,0.735 0.32,1.155l0,1.232c0,0.42 -0.106,0.805 -0.32,1.155c-0.213,0.35 -0.494,0.632 -0.844,0.845c-0.349,0.213 -0.74,0.32 -1.172,0.32l-4.768,-0Z" style="fill-rule:nonzero;"/><path d="M246.543,42.66c-0.42,-0 -0.805,-0.107 -1.155,-0.32c-0.35,-0.213 -0.631,-0.495 -0.845,-0.845c-0.213,-0.35 -0.32,-0.735 -0.32,-1.155l0,-0.464l2.448,-0l0,0.336l4.512,-0l0,-0.96l-4.64,-0c-0.42,-0 -0.805,-0.107 -1.155,-0.32c-0.35,-0.213 -0.631,-0.495 -0.845,-0.845c-0.213,-0.35 -0.32,-0.735 -0.32,-1.155l0,-1.232c0,-0.42 0.107,-0.805 0.32,-1.155c0.214,-0.35 0.495,-0.632 0.845,-0.845c0.35,-0.213 0.735,-0.32 1.155,-0.32l4.768,-0c0.432,-0 0.823,0.107 1.172,0.32c0.35,0.213 0.631,0.495 0.844,0.845c0.214,0.35 0.32,0.735 0.32,1.155l0,0.464l-2.464,-0l0,-0.336l-4.512,-0l0,0.96l4.64,-0c0.432,-0 0.823,0.107 1.172,0.32c0.35,0.213 0.631,0.495 0.844,0.845c0.214,0.35 0.32,0.735 0.32,1.155l0,1.232c0,0.42 -0.106,0.805 -0.32,1.155c-0.213,0.35 -0.494,0.632 -0.844,0.845c-0.349,0.213 -0.74,0.32 -1.172,0.32l-4.768,-0Z" style="fill-rule:nonzero;"/><path d="M257.327,42.66c-0.42,-0 -0.805,-0.107 -1.155,-0.32c-0.35,-0.213 -0.631,-0.495 -0.845,-0.845c-0.213,-0.35 -0.32,-0.735 -0.32,-1.155l0,-4.64c0,-0.42 0.107,-0.805 0.32,-1.155c0.214,-0.35 0.495,-0.632 0.845,-0.845c0.35,-0.213 0.735,-0.32 1.155,-0.32l4.768,-0c0.431,-0 0.821,0.106 1.17,0.318c0.348,0.212 0.627,0.495 0.837,0.848c0.209,0.353 0.313,0.738 0.313,1.154l0,3.552l-6.96,-0l0,0.96l6.96,-0l0,2.448l-7.088,-0Zm0.128,-5.552l4.512,-0l0,-1.28l-4.512,-0l0,1.28Z" style="fill-rule:nonzero;"/><path d="M266.127,42.66l0,-9.28l7.088,-0c0.424,-0 0.813,0.107 1.166,0.32c0.354,0.213 0.634,0.495 0.842,0.845c0.208,0.35 0.312,0.735 0.312,1.155l0,6.96l-2.448,-0l0,-6.832l-4.512,-0l0,6.832l-2.448,-0Z" style="fill-rule:nonzero;"/><g transform="matrix(1,0,0,1,165.892,75.0572)"><g transform="matrix(10,0,0,10,155.906,67.2846)"><path d="M0.297,-0l-0.262,-0.72l0.165,0l0.157,0.429l0.157,-0.429l0.143,0l0.158,0.429l0.157,-0.429l0.164,0l-0.262,0.72l-0.119,-0l-0.17,-0.463l-0.169,0.463l-0.119,-0Z" style="fill:#fff;fill-rule:nonzero;"/></g><g transform="matrix(10,0,0,10,167.696,67.2846)"><path d="M0.204,-0c-0.027,-0 -0.052,-0.007 -0.075,-0.02c-0.022,-0.013 -0.04,-0.031 -0.053,-0.053c-0.013,-0.023 -0.02,-0.048 -0.02,-0.075l-0,-0.424c-0,-0.027 0.007,-0.052 0.02,-0.075c0.013,-0.022 0.031,-0.04 0.053,-0.053c0.023,-0.013 0.048,-0.02 0.075,-0.02l0.57,0l0,0.156l-0.53,-0c-0.011,-0 -0.019,0.003 -0.024,0.008c-0.006,0.005 -0.009,0.014 -0.009,0.025l0,0.342c0,0.011 0.003,0.019 0.009,0.024c0.005,0.006 0.013,0.009 0.024,0.009l0.53,-0l0,0.156l-0.57,-0Z" style="fill:#fff;fill-rule:nonzero;"/></g><g transform="matrix(10,0,0,10,146.541,77.2846)"><path d="M0.058,-0l0,-0.72l0.571,0c0.027,-0 0.052,0.007 0.074,0.02c0.023,0.013 0.041,0.031 0.054,0.054c0.014,0.022 0.021,0.047 0.021,0.074l-0,0.424c-0,0.027 -0.007,0.052 -0.021,0.074c-0.013,0.023 -0.031,0.041 -0.054,0.054c-0.022,0.013 -0.047,0.02 -0.074,0.02l-0.571,-0Zm0.154,-0.156l0.409,-0l-0,-0.408l-0.409,0l-0,0.408Z" style="fill:#fff;fill-rule:nonzero;"/></g><g transform="matrix(10,0,0,10,154.881,77.2846)"><path d="M0.197,-0c-0.026,-0 -0.051,-0.007 -0.073,-0.02c-0.022,-0.013 -0.04,-0.031 -0.053,-0.053c-0.013,-0.022 -0.019,-0.046 -0.019,-0.072l0,-0.222l0.435,0l0,-0.06l-0.435,0l0,-0.153l0.443,0c0.027,0 0.051,0.007 0.073,0.02c0.022,0.013 0.039,0.031 0.052,0.053c0.013,0.022 0.02,0.046 0.02,0.072l0,0.435l-0.443,-0Zm0.008,-0.153l0.282,-0l-0,-0.08l-0.282,-0l0,0.08Z" style="fill:#fff;fill-rule:nonzero;"/></g><g transform="matrix(10,0,0,10,161.621,77.2846)"><path d="M0.054,-0l0,-0.58l0.698,0c0.027,0 0.051,0.007 0.073,0.02c0.022,0.013 0.039,0.031 0.052,0.053c0.013,0.022 0.02,0.046 0.02,0.072l-0,0.435l-0.152,-0l-0,-0.427l-0.192,-0l-0,0.427l-0.154,-0l-0,-0.427l-0.192,-0l-0,0.427l-0.153,-0Z" style="fill:#fff;fill-rule:nonzero;"/></g><g transform="matrix(10,0,0,10,171.401,77.2846)"><path d="M0.196,-0c-0.026,-0 -0.05,-0.007 -0.072,-0.02c-0.022,-0.013 -0.04,-0.031 -0.053,-0.053c-0.013,-0.022 -0.02,-0.046 -0.02,-0.072l0,-0.29c0,-0.026 0.007,-0.05 0.02,-0.072c0.013,-0.022 0.031,-0.04 0.053,-0.053c0.022,-0.013 0.046,-0.02 0.072,-0.02l0.298,0c0.027,0 0.051,0.007 0.073,0.02c0.022,0.013 0.039,0.031 0.052,0.053c0.013,0.022 0.02,0.046 0.02,0.072l0,0.222l-0.435,0l0,0.06l0.435,0l0,0.153l-0.443,-0Zm0.008,-0.347l0.282,0l-0,-0.08l-0.282,0l0,0.08Z" style="fill:#fff;fill-rule:nonzero;"/></g><g transform="matrix(10,0,0,10,178.321,77.2846)"><path d="M0.054,-0l0,-0.58l0.443,0c0.026,0 0.051,0.007 0.073,0.02c0.022,0.013 0.04,0.031 0.053,0.053c0.013,0.022 0.019,0.046 0.019,0.072l0,0.435l-0.153,-0l0,-0.427l-0.282,-0l0,0.427l-0.153,-0Z" style="fill:#fff;fill-rule:nonzero;"/></g></g><rect x="64.408" y="3.5" width="92" height="66" style="fill:#f9f497;"/><path d="M72.092,42.66l0,-11.52l2.496,-0l0,4.512l2.256,-0l3.776,-4.512l2.592,-0l0,0.864l-4.112,4.896l4.112,4.896l0,0.864l-2.592,-0l-3.776,-4.512l-2.256,-0l0,4.512l-2.496,-0Z" style="fill-rule:nonzero;"/><path d="M87.084,42.66c-0.424,-0 -0.813,-0.107 -1.166,-0.32c-0.353,-0.213 -0.634,-0.495 -0.842,-0.845c-0.208,-0.35 -0.312,-0.735 -0.312,-1.155l0,-3.552l6.96,-0l0,-0.96l-6.96,-0l0,-2.448l7.088,-0c0.431,-0 0.821,0.106 1.17,0.318c0.348,0.212 0.627,0.495 0.836,0.848c0.209,0.353 0.314,0.738 0.314,1.154l0,6.96l-7.088,-0Zm0.128,-2.448l4.512,-0l0,-1.28l-4.512,-0l0,1.28Z" style="fill-rule:nonzero;"/><path d="M95.788,42.66l0,-6.96c0,-0.42 0.107,-0.805 0.32,-1.155c0.213,-0.35 0.497,-0.632 0.85,-0.845c0.353,-0.213 0.742,-0.32 1.166,-0.32l5.12,-0l0,2.448l-5.008,-0l0,6.832l-2.448,-0Z" style="fill-rule:nonzero;"/><path d="M106.3,42.66c-0.424,-0 -0.813,-0.107 -1.166,-0.32c-0.353,-0.213 -0.634,-0.495 -0.842,-0.845c-0.208,-0.35 -0.312,-0.735 -0.312,-1.155l0,-3.552l6.96,-0l0,-0.96l-6.96,-0l0,-2.448l7.088,-0c0.431,-0 0.821,0.106 1.17,0.318c0.348,0.212 0.627,0.495 0.836,0.848c0.209,0.353 0.314,0.738 0.314,1.154l0,6.96l-7.088,-0Zm0.128,-2.448l4.512,-0l0,-1.28l-4.512,-0l0,1.28Z" style="fill-rule:nonzero;"/><path d="M117.388,42.66c-0.42,-0 -0.805,-0.107 -1.155,-0.32c-0.35,-0.213 -0.632,-0.495 -0.845,-0.845c-0.213,-0.35 -0.32,-0.735 -0.32,-1.155l0,-4.64c0,-0.42 0.107,-0.805 0.32,-1.155c0.213,-0.35 0.495,-0.632 0.845,-0.845c0.35,-0.213 0.735,-0.32 1.155,-0.32l4.768,-0c0.431,-0 0.821,0.106 1.17,0.318c0.348,0.212 0.627,0.495 0.836,0.848c0.209,0.353 0.314,0.738 0.314,1.154l0,4.64c0,0.42 -0.104,0.805 -0.312,1.155c-0.208,0.35 -0.487,0.632 -0.836,0.845c-0.349,0.213 -0.74,0.32 -1.172,0.32l-4.768,-0Zm0.128,-2.448l4.512,-0l0,-4.384l-4.512,-0l0,4.384Z" style="fill-rule:nonzero;"/><path d="M126.188,42.66l0,-12.32l2.448,-0l0,6.448l1.248,-0l3.152,-3.408l2.464,-0l0,0.832l-3.456,3.808l3.456,3.808l0,0.832l-2.464,-0l-3.152,-3.408l-1.248,-0l0,3.408l-2.448,-0Z" style="fill-rule:nonzero;"/><path d="M138.716,42.66c-0.42,-0 -0.805,-0.107 -1.155,-0.32c-0.35,-0.213 -0.632,-0.495 -0.845,-0.845c-0.213,-0.35 -0.32,-0.735 -0.32,-1.155l0,-4.64c0,-0.42 0.107,-0.805 0.32,-1.155c0.213,-0.35 0.495,-0.632 0.845,-0.845c0.35,-0.213 0.735,-0.32 1.155,-0.32l4.768,-0c0.431,-0 0.821,0.106 1.17,0.318c0.348,0.212 0.627,0.495 0.836,0.848c0.209,0.353 0.314,0.738 0.314,1.154l0,3.552l-6.96,-0l0,0.96l6.96,-0l0,2.448l-7.088,-0Zm0.128,-5.552l4.512,-0l0,-1.28l-4.512,-0l0,1.28Z" style="fill-rule:nonzero;"/><rect x="253.535" y="245.609" width="73.712" height="67.391" style="fill:#f9f497;"/><path d="M267.439,285.464c-0.432,0 -0.828,-0.106 -1.188,-0.32c-0.36,-0.213 -0.647,-0.5 -0.86,-0.86c-0.214,-0.36 -0.32,-0.756 -0.32,-1.188l-0,-1.072l2.48,0l-0,0.944l6.528,0l-0,-2.016l-6.64,0c-0.432,0 -0.828,-0.106 -1.188,-0.32c-0.36,-0.213 -0.647,-0.498 -0.86,-0.856c-0.214,-0.357 -0.32,-0.755 -0.32,-1.192l-0,-2.272c-0,-0.432 0.106,-0.828 0.32,-1.188c0.213,-0.36 0.5,-0.646 0.86,-0.86c0.36,-0.213 0.756,-0.32 1.188,-0.32l6.784,0c0.428,0 0.82,0.107 1.177,0.32c0.356,0.214 0.644,0.5 0.863,0.86c0.218,0.36 0.328,0.756 0.328,1.188l-0,1.072l-2.512,0l-0,-0.944l-6.528,0l-0,2.016l6.672,0c0.428,0 0.82,0.107 1.177,0.32c0.356,0.214 0.644,0.499 0.863,0.857c0.218,0.357 0.328,0.754 0.328,1.191l-0,2.272c-0,0.432 -0.11,0.828 -0.328,1.188c-0.219,0.36 -0.507,0.647 -0.863,0.86c-0.357,0.214 -0.749,0.32 -1.177,0.32l-6.784,0Z" style="fill-rule:nonzero;"/><path d="M280.543,285.464c-0.432,0 -0.823,-0.106 -1.172,-0.32c-0.35,-0.213 -0.631,-0.495 -0.844,-0.845c-0.214,-0.35 -0.32,-0.735 -0.32,-1.155l-0,-9.712l2.448,0l-0,2.752l3.44,0l-0,2.448l-3.44,0l-0,4.384l3.44,0l-0,2.448l-3.552,0Z" style="fill-rule:nonzero;"/><path d="M287.071,285.464c-0.424,0 -0.813,-0.106 -1.166,-0.32c-0.354,-0.213 -0.634,-0.495 -0.842,-0.845c-0.208,-0.35 -0.312,-0.735 -0.312,-1.155l-0,-3.552l6.96,0l-0,-0.96l-6.96,0l-0,-2.448l7.088,0c0.431,0 0.82,0.106 1.169,0.318c0.349,0.212 0.628,0.495 0.837,0.848c0.209,0.354 0.314,0.738 0.314,1.154l-0,6.96l-7.088,0Zm0.128,-2.448l4.512,0l-0,-1.28l-4.512,0l-0,1.28Z" style="fill-rule:nonzero;"/><path d="M295.647,285.464l-0,-9.28l7.088,0c0.424,0 0.812,0.107 1.166,0.32c0.353,0.214 0.634,0.495 0.842,0.845c0.208,0.35 0.312,0.735 0.312,1.155l-0,6.96l-2.448,0l-0,-6.832l-4.512,0l-0,6.832l-2.448,0Z" style="fill-rule:nonzero;"/><path d="M308.607,285.464c-0.431,0 -0.821,-0.106 -1.17,-0.318c-0.349,-0.212 -0.628,-0.494 -0.837,-0.848c-0.209,-0.353 -0.313,-0.738 -0.313,-1.154l-0,-4.64c-0,-0.42 0.104,-0.805 0.312,-1.155c0.208,-0.35 0.486,-0.631 0.836,-0.845c0.349,-0.213 0.74,-0.32 1.172,-0.32l4.656,0l-0,-3.04l2.448,0l-0,12.32l-7.104,0Zm0.144,-2.448l4.512,0l-0,-4.384l-4.512,0l-0,4.384Z" style="fill-rule:nonzero;"/><rect x="177.049" y="245.609" width="73.712" height="67.391" style="fill:#f9f497;"/><path d="M190.953,285.464c-0.432,0 -0.828,-0.106 -1.188,-0.32c-0.36,-0.213 -0.647,-0.5 -0.86,-0.86c-0.213,-0.36 -0.32,-0.756 -0.32,-1.188l-0,-1.072l2.48,0l-0,0.944l6.528,0l-0,-2.016l-6.64,0c-0.432,0 -0.828,-0.106 -1.188,-0.32c-0.36,-0.213 -0.647,-0.498 -0.86,-0.856c-0.213,-0.357 -0.32,-0.755 -0.32,-1.192l-0,-2.272c-0,-0.432 0.107,-0.828 0.32,-1.188c0.213,-0.36 0.5,-0.646 0.86,-0.86c0.36,-0.213 0.756,-0.32 1.188,-0.32l6.784,0c0.428,0 0.82,0.107 1.177,0.32c0.357,0.214 0.644,0.5 0.863,0.86c0.219,0.36 0.328,0.756 0.328,1.188l-0,1.072l-2.512,0l-0,-0.944l-6.528,0l-0,2.016l6.672,0c0.428,0 0.82,0.107 1.177,0.32c0.357,0.214 0.644,0.499 0.863,0.857c0.219,0.357 0.328,0.754 0.328,1.191l-0,2.272c-0,0.432 -0.109,0.828 -0.328,1.188c-0.219,0.36 -0.506,0.647 -0.863,0.86c-0.357,0.214 -0.749,0.32 -1.177,0.32l-6.784,0Z" style="fill-rule:nonzero;"/><path d="M204.057,285.464c-0.432,0 -0.823,-0.106 -1.172,-0.32c-0.349,-0.213 -0.631,-0.495 -0.844,-0.845c-0.213,-0.35 -0.32,-0.735 -0.32,-1.155l-0,-9.712l2.448,0l-0,2.752l3.44,0l-0,2.448l-3.44,0l-0,4.384l3.44,0l-0,2.448l-3.552,0Z" style="fill-rule:nonzero;"/><path d="M210.585,285.464c-0.424,0 -0.813,-0.106 -1.166,-0.32c-0.353,-0.213 -0.634,-0.495 -0.842,-0.845c-0.208,-0.35 -0.312,-0.735 -0.312,-1.155l-0,-3.552l6.96,0l-0,-0.96l-6.96,0l-0,-2.448l7.088,0c0.431,0 0.821,0.106 1.169,0.318c0.349,0.212 0.628,0.495 0.837,0.848c0.209,0.354 0.314,0.738 0.314,1.154l-0,6.96l-7.088,0Zm0.128,-2.448l4.512,0l-0,-1.28l-4.512,0l-0,1.28Z" style="fill-rule:nonzero;"/><path d="M219.161,285.464l-0,-9.28l7.088,0c0.424,0 0.813,0.107 1.166,0.32c0.353,0.214 0.634,0.495 0.842,0.845c0.208,0.35 0.312,0.735 0.312,1.155l-0,6.96l-2.448,0l-0,-6.832l-4.512,0l-0,6.832l-2.448,0Z" style="fill-rule:nonzero;"/><path d="M232.121,285.464c-0.431,0 -0.821,-0.106 -1.17,-0.318c-0.348,-0.212 -0.627,-0.494 -0.836,-0.848c-0.209,-0.353 -0.314,-0.738 -0.314,-1.154l-0,-4.64c-0,-0.42 0.104,-0.805 0.312,-1.155c0.208,-0.35 0.487,-0.631 0.836,-0.845c0.349,-0.213 0.74,-0.32 1.172,-0.32l4.656,0l-0,-3.04l2.448,0l-0,12.32l-7.104,0Zm0.144,-2.448l4.512,0l-0,-4.384l-4.512,0l-0,4.384Z" style="fill-rule:nonzero;"/><rect x="100.563" y="245.609" width="73.712" height="67.391" style="fill:#f9f497;"/><path d="M114.467,285.464c-0.432,0 -0.828,-0.106 -1.188,-0.32c-0.36,-0.213 -0.646,-0.5 -0.86,-0.86c-0.213,-0.36 -0.32,-0.756 -0.32,-1.188l0,-1.072l2.48,0l0,0.944l6.528,0l0,-2.016l-6.64,0c-0.432,0 -0.828,-0.106 -1.188,-0.32c-0.36,-0.213 -0.646,-0.498 -0.86,-0.856c-0.213,-0.357 -0.32,-0.755 -0.32,-1.192l0,-2.272c0,-0.432 0.107,-0.828 0.32,-1.188c0.214,-0.36 0.5,-0.646 0.86,-0.86c0.36,-0.213 0.756,-0.32 1.188,-0.32l6.784,0c0.428,0 0.821,0.107 1.177,0.32c0.357,0.214 0.645,0.5 0.863,0.86c0.219,0.36 0.328,0.756 0.328,1.188l0,1.072l-2.512,0l0,-0.944l-6.528,0l0,2.016l6.672,0c0.428,0 0.821,0.107 1.177,0.32c0.357,0.214 0.645,0.499 0.863,0.857c0.219,0.357 0.328,0.754 0.328,1.191l0,2.272c0,0.432 -0.109,0.828 -0.328,1.188c-0.218,0.36 -0.506,0.647 -0.863,0.86c-0.356,0.214 -0.749,0.32 -1.177,0.32l-6.784,0Z" style="fill-rule:nonzero;"/><path d="M127.571,285.464c-0.432,0 -0.822,-0.106 -1.172,-0.32c-0.349,-0.213 -0.63,-0.495 -0.844,-0.845c-0.213,-0.35 -0.32,-0.735 -0.32,-1.155l0,-9.712l2.448,0l0,2.752l3.44,0l0,2.448l-3.44,0l0,4.384l3.44,0l0,2.448l-3.552,0Z" style="fill-rule:nonzero;"/><path d="M134.099,285.464c-0.424,0 -0.812,-0.106 -1.166,-0.32c-0.353,-0.213 -0.634,-0.495 -0.842,-0.845c-0.208,-0.35 -0.312,-0.735 -0.312,-1.155l0,-3.552l6.96,0l0,-0.96l-6.96,0l0,-2.448l7.088,0c0.431,0 0.821,0.106 1.17,0.318c0.348,0.212 0.627,0.495 0.837,0.848c0.209,0.354 0.313,0.738 0.313,1.154l0,6.96l-7.088,0Zm0.128,-2.448l4.512,0l0,-1.28l-4.512,0l0,1.28Z" style="fill-rule:nonzero;"/><path d="M142.675,285.464l0,-9.28l7.088,0c0.424,0 0.813,0.107 1.166,0.32c0.354,0.214 0.634,0.495 0.842,0.845c0.208,0.35 0.312,0.735 0.312,1.155l0,6.96l-2.448,0l0,-6.832l-4.512,0l0,6.832l-2.448,0Z" style="fill-rule:nonzero;"/><path d="M155.635,285.464c-0.431,0 -0.821,-0.106 -1.169,-0.318c-0.349,-0.212 -0.628,-0.494 -0.837,-0.848c-0.209,-0.353 -0.314,-0.738 -0.314,-1.154l0,-4.64c0,-0.42 0.104,-0.805 0.312,-1.155c0.208,-0.35 0.487,-0.631 0.836,-0.845c0.35,-0.213 0.74,-0.32 1.172,-0.32l4.656,0l0,-3.04l2.448,0l0,12.32l-7.104,0Zm0.144,-2.448l4.512,0l0,-4.384l-4.512,0l0,4.384Z" style="fill-rule:nonzero;"/><rect x="3" y="216.5" width="97.563" height="96.5" style="fill:#f2839e;"/><g transform="matrix(1,0,0,1,-114.153,195.633)"><g transform="matrix(16,0,0,16,124.287,67.2846)"><path d="M0.057,-0l0,-0.72l0.156,0l0,0.282l0.141,-0l0.236,-0.282l0.162,0l0,0.054l-0.257,0.306l0.257,0.306l0,0.054l-0.162,-0l-0.236,-0.282l-0.141,-0l0,0.282l-0.156,-0Z" style="fill-rule:nonzero;"/></g><g transform="matrix(16,0,0,16,137.039,67.2846)"><path d="M0.196,-0c-0.026,-0 -0.05,-0.007 -0.072,-0.02c-0.022,-0.013 -0.04,-0.031 -0.053,-0.053c-0.013,-0.022 -0.02,-0.046 -0.02,-0.072l0,-0.29c0,-0.026 0.007,-0.05 0.02,-0.072c0.013,-0.022 0.031,-0.04 0.053,-0.053c0.022,-0.013 0.046,-0.02 0.072,-0.02l0.298,0c0.027,0 0.051,0.007 0.073,0.02c0.022,0.013 0.039,0.031 0.052,0.053c0.013,0.022 0.02,0.046 0.02,0.072l0,0.29c0,0.026 -0.007,0.05 -0.019,0.072c-0.013,0.022 -0.031,0.04 -0.053,0.053c-0.022,0.013 -0.046,0.02 -0.073,0.02l-0.298,0Zm0.008,-0.153l0.282,0l0,-0.274l-0.282,0l0,0.274Z" style="fill-rule:nonzero;"/></g><g transform="matrix(16,0,0,16,147.871,67.2846)"><path d="M0.054,-0l0,-0.58l0.443,0c0.026,0 0.051,0.007 0.073,0.02c0.022,0.013 0.04,0.031 0.053,0.053c0.013,0.022 0.019,0.046 0.019,0.072l0,0.435l-0.153,-0l0,-0.427l-0.282,-0l0,0.427l-0.153,-0Z" style="fill-rule:nonzero;"/></g><g transform="matrix(16,0,0,16,159.007,67.2846)"><path d="M0.193,-0c-0.026,-0 -0.05,-0.007 -0.072,-0.02c-0.022,-0.013 -0.04,-0.031 -0.053,-0.053c-0.013,-0.022 -0.02,-0.046 -0.02,-0.072l0,-0.029l0.153,0l0,0.021l0.282,0l-0,-0.06l-0.29,0c-0.026,0 -0.05,-0.007 -0.072,-0.02c-0.022,-0.013 -0.04,-0.031 -0.053,-0.053c-0.013,-0.022 -0.02,-0.046 -0.02,-0.072l-0,-0.077c-0,-0.026 0.007,-0.05 0.02,-0.072c0.013,-0.022 0.031,-0.04 0.053,-0.053c0.022,-0.013 0.046,-0.02 0.072,-0.02l0.298,0c0.027,0 0.051,0.007 0.073,0.02c0.022,0.013 0.04,0.031 0.053,0.053c0.013,0.022 0.02,0.046 0.02,0.072l-0,0.029l-0.154,0l-0,-0.021l-0.282,0l-0,0.06l0.29,0c0.027,0 0.051,0.007 0.073,0.02c0.022,0.013 0.04,0.031 0.053,0.053c0.013,0.022 0.02,0.046 0.02,0.072l-0,0.077c-0,0.026 -0.007,0.05 -0.02,0.072c-0.013,0.022 -0.031,0.04 -0.053,0.053c-0.022,0.013 -0.046,0.02 -0.073,0.02l-0.298,0Z" style="fill-rule:nonzero;"/></g><g transform="matrix(16,0,0,16,169.983,67.2846)"><path d="M0.196,-0c-0.026,-0 -0.05,-0.007 -0.072,-0.02c-0.022,-0.013 -0.04,-0.031 -0.053,-0.053c-0.013,-0.022 -0.02,-0.046 -0.02,-0.072l0,-0.29c0,-0.026 0.007,-0.05 0.02,-0.072c0.013,-0.022 0.031,-0.04 0.053,-0.053c0.022,-0.013 0.046,-0.02 0.072,-0.02l0.298,0c0.027,0 0.051,0.007 0.073,0.02c0.022,0.013 0.039,0.031 0.052,0.053c0.013,0.022 0.02,0.046 0.02,0.072l0,0.29c0,0.026 -0.007,0.05 -0.019,0.072c-0.013,0.022 -0.031,0.04 -0.053,0.053c-0.022,0.013 -0.046,0.02 -0.073,0.02l-0.298,0Zm0.008,-0.153l0.282,0l0,-0.274l-0.282,0l0,0.274Z" style="fill-rule:nonzero;"/></g><g transform="matrix(16,0,0,16,180.735,67.2846)"><path d="M0.197,-0c-0.026,-0 -0.05,-0.007 -0.072,-0.02c-0.022,-0.013 -0.04,-0.031 -0.053,-0.053c-0.013,-0.022 -0.02,-0.046 -0.02,-0.072l0,-0.626l0.154,0l0,0.618l0.117,0l0,0.153l-0.126,0Z" style="fill-rule:nonzero;"/></g><g transform="matrix(16,0,0,16,185.327,67.2846)"><path d="M0.196,-0c-0.026,-0 -0.05,-0.007 -0.072,-0.02c-0.022,-0.013 -0.04,-0.031 -0.053,-0.053c-0.013,-0.022 -0.02,-0.046 -0.02,-0.072l0,-0.29c0,-0.026 0.007,-0.05 0.02,-0.072c0.013,-0.022 0.031,-0.04 0.053,-0.053c0.022,-0.013 0.046,-0.02 0.072,-0.02l0.298,0c0.027,0 0.051,0.007 0.073,0.02c0.022,0.013 0.039,0.031 0.052,0.053c0.013,0.022 0.02,0.046 0.02,0.072l0,0.222l-0.435,0l0,0.06l0.435,0l0,0.153l-0.443,-0Zm0.008,-0.347l0.282,0l-0,-0.08l-0.282,0l0,0.08Z" style="fill-rule:nonzero;"/></g><g transform="matrix(16,0,0,16,196.399,67.2846)"><path d="M0.054,-0l0,-0.58l0.443,0c0.026,0 0.051,0.007 0.073,0.02c0.022,0.013 0.04,0.031 0.053,0.053c0.013,0.022 0.019,0.046 0.019,0.072l0,0.435l-0.153,-0l0,-0.427l-0.282,-0l0,0.427l-0.153,-0Z" style="fill-rule:nonzero;"/></g><g transform="matrix(16,0,0,16,128.631,83.2846)"><path d="M0.302,-0l0,-0.564l-0.282,0l0,-0.156l0.72,0l0,0.156l-0.282,0l0,0.564l-0.156,-0Z" style="fill-rule:nonzero;"/></g><g transform="matrix(16,0,0,16,139.159,83.2846)"><path d="M0.198,-0c-0.027,-0 -0.051,-0.007 -0.073,-0.02c-0.022,-0.013 -0.039,-0.031 -0.053,-0.053c-0.013,-0.022 -0.019,-0.046 -0.019,-0.072l-0,-0.435l0.153,0l0,0.427l0.282,0l-0,-0.427l0.153,0l0,0.435c0,0.026 -0.006,0.05 -0.019,0.072c-0.014,0.022 -0.031,0.04 -0.053,0.053c-0.022,0.013 -0.046,0.02 -0.073,0.02l-0.298,0Z" style="fill-rule:nonzero;"/></g><g transform="matrix(16,0,0,16,150.279,83.2846)"><path d="M0.052,-0l0,-0.435c0,-0.026 0.007,-0.05 0.02,-0.072c0.013,-0.022 0.031,-0.04 0.053,-0.053c0.022,-0.013 0.046,-0.02 0.073,-0.02l0.32,0l0,0.153l-0.313,0l0,0.427l-0.153,0Z" style="fill-rule:nonzero;"/></g><g transform="matrix(16,0,0,16,158.471,83.2846)"><path d="M0.054,-0l0,-0.58l0.443,0c0.026,0 0.051,0.007 0.073,0.02c0.022,0.013 0.04,0.031 0.053,0.053c0.013,0.022 0.019,0.046 0.019,0.072l0,0.435l-0.153,-0l0,-0.427l-0.282,-0l0,0.427l-0.153,-0Z" style="fill-rule:nonzero;"/></g><g transform="matrix(16,0,0,16,169.607,83.2846)"><path d="M0.052,-0l0,-0.58l0.153,0l0,0.58l-0.153,-0Zm-0,-0.616l-0,-0.154l0.153,0l0,0.154l-0.153,0Z" style="fill-rule:nonzero;"/></g><g transform="matrix(16,0,0,16,172.935,83.2846)"><path d="M0.196,-0c-0.026,-0 -0.05,-0.007 -0.072,-0.02c-0.022,-0.013 -0.04,-0.031 -0.053,-0.053c-0.013,-0.022 -0.02,-0.046 -0.02,-0.072l0,-0.29c0,-0.026 0.007,-0.05 0.02,-0.072c0.013,-0.022 0.031,-0.04 0.053,-0.053c0.022,-0.013 0.046,-0.02 0.072,-0.02l0.298,0c0.027,0 0.051,0.007 0.073,0.02c0.022,0.013 0.039,0.031 0.052,0.053c0.013,0.022 0.02,0.046 0.02,0.072l0,0.222l-0.435,0l0,0.06l0.435,0l0,0.153l-0.443,-0Zm0.008,-0.347l0.282,0l-0,-0.08l-0.282,0l0,0.08Z" style="fill-rule:nonzero;"/></g><g transform="matrix(16,0,0,16,183.927,83.2846)"><path d="M0.052,-0l0,-0.435c0,-0.026 0.007,-0.05 0.02,-0.072c0.013,-0.022 0.031,-0.04 0.053,-0.053c0.022,-0.013 0.046,-0.02 0.073,-0.02l0.32,0l0,0.153l-0.313,0l0,0.427l-0.153,0Z" style="fill-rule:nonzero;"/></g><g transform="matrix(16,0,0,16,192.119,83.2846)"><path d="M0.196,-0c-0.026,-0 -0.05,-0.007 -0.072,-0.02c-0.022,-0.013 -0.04,-0.031 -0.053,-0.053c-0.013,-0.022 -0.02,-0.046 -0.02,-0.072l0,-0.29c0,-0.026 0.007,-0.05 0.02,-0.072c0.013,-0.022 0.031,-0.04 0.053,-0.053c0.022,-0.013 0.046,-0.02 0.072,-0.02l0.298,0c0.027,0 0.051,0.007 0.073,0.02c0.022,0.013 0.039,0.031 0.052,0.053c0.013,0.022 0.02,0.046 0.02,0.072l0,0.222l-0.435,0l0,0.06l0.435,0l0,0.153l-0.443,-0Zm0.008,-0.347l0.282,0l-0,-0.08l-0.282,0l0,0.08Z" style="fill-rule:nonzero;"/></g></g><rect x="3" y="3" width="61.408" height="74.569" style="fill:#83a8f2;"/><g transform="matrix(1,0,0,1,-137.606,-33.145)"><g transform="matrix(10,0,0,10,148.541,67.2846)"><path d="M0.056,-0l0,-0.72l0.16,0l0.244,0.291l0.243,-0.291l0.161,0l0,0.72l-0.156,-0l0,-0.483l-0.248,0.296l-0.249,-0.295l0,0.482l-0.155,-0Z" style="fill-rule:nonzero;"/></g><g transform="matrix(10,0,0,10,157.821,67.2846)"><path d="M0.196,-0c-0.026,-0 -0.05,-0.007 -0.072,-0.02c-0.022,-0.013 -0.04,-0.031 -0.053,-0.053c-0.013,-0.022 -0.02,-0.046 -0.02,-0.072l0,-0.29c0,-0.026 0.007,-0.05 0.02,-0.072c0.013,-0.022 0.031,-0.04 0.053,-0.053c0.022,-0.013 0.046,-0.02 0.072,-0.02l0.298,0c0.027,0 0.051,0.007 0.073,0.02c0.022,0.013 0.039,0.031 0.052,0.053c0.013,0.022 0.02,0.046 0.02,0.072l0,0.29c0,0.026 -0.007,0.05 -0.019,0.072c-0.013,0.022 -0.031,0.04 -0.053,0.053c-0.022,0.013 -0.046,0.02 -0.073,0.02l-0.298,0Zm0.008,-0.153l0.282,0l0,-0.274l-0.282,0l0,0.274Z" style="fill-rule:nonzero;"/></g><g transform="matrix(10,0,0,10,164.741,67.2846)"><path d="M0.054,-0l0,-0.77l0.153,0l0,0.19l0.29,0c0.026,0 0.051,0.007 0.073,0.02c0.022,0.013 0.04,0.031 0.053,0.053c0.013,0.022 0.019,0.046 0.019,0.072l0,0.29c0,0.026 -0.006,0.05 -0.019,0.072c-0.013,0.022 -0.031,0.04 -0.053,0.053c-0.022,0.013 -0.046,0.02 -0.073,0.02l-0.443,0Zm0.153,-0.153l0.282,0l0,-0.274l-0.282,0l0,0.274Z" style="fill-rule:nonzero;"/></g><g transform="matrix(10,0,0,10,171.411,67.2846)"><path d="M0.052,-0l0,-0.58l0.153,0l0,0.58l-0.153,-0Zm-0,-0.616l-0,-0.154l0.153,0l0,0.154l-0.153,0Z" style="fill-rule:nonzero;"/></g><g transform="matrix(10,0,0,10,173.491,67.2846)"><path d="M0.197,-0c-0.026,-0 -0.05,-0.007 -0.072,-0.02c-0.022,-0.013 -0.04,-0.031 -0.053,-0.053c-0.013,-0.022 -0.02,-0.046 -0.02,-0.072l0,-0.626l0.154,0l0,0.618l0.117,0l0,0.153l-0.126,0Z" style="fill-rule:nonzero;"/></g><g transform="matrix(10,0,0,10,176.361,67.2846)"><path d="M0.196,-0c-0.026,-0 -0.05,-0.007 -0.072,-0.02c-0.022,-0.013 -0.04,-0.031 -0.053,-0.053c-0.013,-0.022 -0.02,-0.046 -0.02,-0.072l0,-0.29c0,-0.026 0.007,-0.05 0.02,-0.072c0.013,-0.022 0.031,-0.04 0.053,-0.053c0.022,-0.013 0.046,-0.02 0.072,-0.02l0.298,0c0.027,0 0.051,0.007 0.073,0.02c0.022,0.013 0.039,0.031 0.052,0.053c0.013,0.022 0.02,0.046 0.02,0.072l0,0.222l-0.435,0l0,0.06l0.435,0l0,0.153l-0.443,-0Zm0.008,-0.347l0.282,0l-0,-0.08l-0.282,0l0,0.08Z" style="fill-rule:nonzero;"/></g><g transform="matrix(10,0,0,10,153.471,77.2846)"><path d="M0.056,-0l0,-0.72l0.16,0l0.403,0.48l0,-0.48l0.157,0l0,0.72l-0.16,-0l-0.405,-0.482l0,0.482l-0.155,-0Z" style="fill-rule:nonzero;"/></g><g transform="matrix(10,0,0,10,161.791,77.2846)"><path d="M0.058,-0l0,-0.72l0.571,0c0.027,-0 0.052,0.007 0.074,0.02c0.023,0.013 0.041,0.031 0.054,0.054c0.014,0.022 0.021,0.047 0.021,0.074l-0,0.424c-0,0.027 -0.007,0.052 -0.021,0.074c-0.013,0.023 -0.031,0.041 -0.054,0.054c-0.022,0.013 -0.047,0.02 -0.074,0.02l-0.571,-0Zm0.154,-0.156l0.409,-0l-0,-0.408l-0.409,0l-0,0.408Z" style="fill-rule:nonzero;"/></g><g transform="matrix(10,0,0,10,170.131,77.2846)"><path d="M0.202,-0c-0.027,-0 -0.052,-0.007 -0.074,-0.02c-0.023,-0.013 -0.041,-0.031 -0.054,-0.054c-0.013,-0.022 -0.02,-0.047 -0.02,-0.074l-0,-0.067l0.155,0l-0,0.059l0.408,0l0,-0.126l-0.415,0c-0.027,0 -0.052,-0.007 -0.074,-0.02c-0.023,-0.013 -0.041,-0.031 -0.054,-0.054c-0.013,-0.022 -0.02,-0.047 -0.02,-0.074l0,-0.142c0,-0.027 0.007,-0.052 0.02,-0.074c0.013,-0.023 0.031,-0.041 0.054,-0.054c0.022,-0.013 0.047,-0.02 0.074,-0.02l0.424,0c0.027,0 0.051,0.007 0.074,0.02c0.022,0.013 0.04,0.031 0.054,0.054c0.013,0.022 0.02,0.047 0.02,0.074l0,0.067l-0.157,0l0,-0.059l-0.408,0l0,0.126l0.417,0c0.027,0 0.051,0.007 0.074,0.02c0.022,0.013 0.04,0.031 0.054,0.054c0.013,0.022 0.02,0.047 0.02,0.074l0,0.142c0,0.027 -0.007,0.052 -0.02,0.074c-0.014,0.023 -0.032,0.041 -0.054,0.054c-0.023,0.013 -0.047,0.02 -0.074,0.02l-0.424,0Z" style="fill-rule:nonzero;"/></g><g transform="matrix(10,0,0,10,152.041,87.2846)"><path d="M0.058,-0l0,-0.72l0.665,0l-0,0.156l-0.508,-0l-0,0.126l0.409,-0l-0,0.156l-0.409,-0l-0,0.126l0.508,-0l-0,0.156l-0.665,-0Z" style="fill-rule:nonzero;"/></g><g transform="matrix(10,0,0,10,159.701,87.2846)"><path d="M0.196,-0c-0.026,-0 -0.05,-0.007 -0.072,-0.02c-0.022,-0.013 -0.04,-0.031 -0.053,-0.053c-0.013,-0.022 -0.02,-0.046 -0.02,-0.072l0,-0.29c0,-0.026 0.007,-0.05 0.02,-0.072c0.013,-0.022 0.031,-0.04 0.053,-0.053c0.022,-0.013 0.046,-0.02 0.072,-0.02l0.442,0l0,0.153l-0.434,0l0,0.274l0.435,0l0,0.153l-0.443,0Z" style="fill-rule:nonzero;"/></g><g transform="matrix(10,0,0,10,166.451,87.2846)"><path d="M0.054,-0l0,-0.77l0.153,0l0,0.403l0.078,0l0.197,-0.213l0.154,0l0,0.052l-0.216,0.238l0.216,0.238l0,0.052l-0.154,-0l-0.197,-0.213l-0.078,-0l0,0.213l-0.153,-0Z" style="fill-rule:nonzero;"/></g><g transform="matrix(10,0,0,10,172.861,87.2846)"><path d="M0.196,-0c-0.026,-0 -0.05,-0.007 -0.072,-0.02c-0.022,-0.013 -0.04,-0.031 -0.053,-0.053c-0.013,-0.022 -0.02,-0.046 -0.02,-0.072l0,-0.29c0,-0.026 0.007,-0.05 0.02,-0.072c0.013,-0.022 0.031,-0.04 0.053,-0.053c0.022,-0.013 0.046,-0.02 0.072,-0.02l0.298,0c0.027,0 0.051,0.007 0.073,0.02c0.022,0.013 0.039,0.031 0.052,0.053c0.013,0.022 0.02,0.046 0.02,0.072l0,0.222l-0.435,0l0,0.06l0.435,0l0,0.153l-0.443,-0Zm0.008,-0.347l0.282,0l-0,-0.08l-0.282,0l0,0.08Z" style="fill-rule:nonzero;"/></g></g><path d="M607,248.5l0,-32l-86,0l0,32l86,0Z" style="fill:#9330bb;"/><rect x="586.151" y="167.5" width="20.849" height="145.5" style="fill:#9330bb;"/><path d="M532.912,238.668l-0,-11.52l10.64,0l-0,2.496l-8.128,0l0,2.016l6.544,0l0,2.496l-6.544,0l0,2.016l8.128,0l-0,2.496l-10.64,0Z" style="fill-rule:nonzero;"/><path d="M545.072,238.668l-0,-9.28l2.448,0l-0,9.28l-2.448,0Zm-0,-9.856l-0,-2.464l2.448,0l-0,2.464l-2.448,0Z" style="fill-rule:nonzero;"/><path d="M548.192,238.668l-0,-9.28l7.088,0c0.424,0 0.813,0.107 1.166,0.32c0.353,0.213 0.634,0.495 0.842,0.845c0.208,0.35 0.312,0.735 0.312,1.155l-0,6.96l-2.448,0l-0,-6.832l-4.512,0l-0,6.832l-2.448,0Z" style="fill-rule:nonzero;"/><path d="M561.616,238.668c-0.42,0 -0.805,-0.107 -1.155,-0.32c-0.35,-0.213 -0.632,-0.495 -0.845,-0.845c-0.213,-0.35 -0.32,-0.735 -0.32,-1.155l-0,-10.016l2.464,0l-0,9.888l1.872,0l-0,2.448l-2.016,0Z" style="fill-rule:nonzero;"/><path d="M566.288,238.668c-0.424,0 -0.813,-0.107 -1.166,-0.32c-0.353,-0.213 -0.634,-0.495 -0.842,-0.845c-0.208,-0.35 -0.312,-0.735 -0.312,-1.155l-0,-3.552l6.96,0l-0,-0.96l-6.96,0l-0,-2.448l7.088,0c0.431,0 0.821,0.106 1.169,0.318c0.349,0.212 0.628,0.495 0.837,0.848c0.209,0.353 0.314,0.738 0.314,1.154l0,6.96l-7.088,0Zm0.128,-2.448l4.512,0l0,-1.28l-4.512,0l-0,1.28Z" style="fill-rule:nonzero;"/><path d="M577.008,238.668c-0.42,0 -0.805,-0.107 -1.155,-0.32c-0.35,-0.213 -0.632,-0.495 -0.845,-0.845c-0.213,-0.35 -0.32,-0.735 -0.32,-1.155l-0,-0.464l2.448,0l-0,0.336l4.512,0l-0,-0.96l-4.64,0c-0.42,0 -0.805,-0.107 -1.155,-0.32c-0.35,-0.213 -0.632,-0.495 -0.845,-0.845c-0.213,-0.35 -0.32,-0.735 -0.32,-1.155l0,-1.232c0,-0.42 0.107,-0.805 0.32,-1.155c0.213,-0.35 0.495,-0.632 0.845,-0.845c0.35,-0.213 0.735,-0.32 1.155,-0.32l4.768,0c0.432,0 0.823,0.107 1.172,0.32c0.349,0.213 0.631,0.495 0.844,0.845c0.213,0.35 0.32,0.735 0.32,1.155l-0,0.464l-2.464,0l-0,-0.336l-4.512,0l-0,0.96l4.64,0c0.432,0 0.823,0.107 1.172,0.32c0.349,0.213 0.631,0.495 0.844,0.845c0.213,0.35 0.32,0.735 0.32,1.155l-0,1.232c-0,0.42 -0.107,0.805 -0.32,1.155c-0.213,0.35 -0.495,0.632 -0.844,0.845c-0.349,0.213 -0.74,0.32 -1.172,0.32l-4.768,0Z" style="fill-rule:nonzero;"/><path d="M587.984,238.668c-0.42,0 -0.805,-0.107 -1.155,-0.32c-0.35,-0.213 -0.632,-0.495 -0.845,-0.845c-0.213,-0.35 -0.32,-0.735 -0.32,-1.155l-0,-0.464l2.448,0l-0,0.336l4.512,0l-0,-0.96l-4.64,0c-0.42,0 -0.805,-0.107 -1.155,-0.32c-0.35,-0.213 -0.632,-0.495 -0.845,-0.845c-0.213,-0.35 -0.32,-0.735 -0.32,-1.155l-0,-1.232c-0,-0.42 0.107,-0.805 0.32,-1.155c0.213,-0.35 0.495,-0.632 0.845,-0.845c0.35,-0.213 0.735,-0.32 1.155,-0.32l4.768,0c0.432,0 0.823,0.107 1.172,0.32c0.349,0.213 0.631,0.495 0.844,0.845c0.213,0.35 0.32,0.735 0.32,1.155l-0,0.464l-2.464,0l-0,-0.336l-4.512,0l-0,0.96l4.64,0c0.432,0 0.823,0.107 1.172,0.32c0.349,0.213 0.631,0.495 0.844,0.845c0.213,0.35 0.32,0.735 0.32,1.155l-0,1.232c-0,0.42 -0.107,0.805 -0.32,1.155c-0.213,0.35 -0.495,0.632 -0.844,0.845c-0.349,0.213 -0.74,0.32 -1.172,0.32l-4.768,0Z" style="fill-rule:nonzero;"/><g><rect x="78.205" y="97.348" width="203.425" height="118.854" style="fill:none;stroke:#fff;stroke-width:3px;"/><rect x="3" y="97.348" width="50.548" height="118.854" style="fill:none;stroke:#fff;stroke-width:3px;"/><g><g><path d="M671.219,313l51.781,-0l-0,-61.265" style="fill:none;stroke:#7f7f7f;stroke-width:3px;stroke-dasharray:3,6,0,0;"/><path d="M723,216.202l-0,-213.202l-395.753,0" style="fill:none;stroke:#7f7f7f;stroke-width:3px;stroke-dasharray:3,6,0,0;"/></g><g><path d="M327.247,313l188.63,-0" style="fill:none;stroke:#fff;stroke-width:3px;stroke-linejoin:round;"/><path d="M586.151,167.017l20.959,0" style="fill:none;stroke:#fff;stroke-width:3px;stroke-linejoin:round;"/><path d="M3,3l0,310l324.247,-0l-0,-67.391l188.63,-0l-0,67.391l155.342,-0l0,-61.265l51.781,0l-0,-35.533l-115.89,-0" style="fill:none;stroke:#fff;stroke-width:3px;stroke-linejoin:round;"/><path d="M358.592,96.123l-0,25.684" style="fill:none;stroke:#fff;stroke-width:3px;"/><path d="M377.354,150.622l0,65.58" style="fill:none;stroke:#fff;stroke-width:3px;"/><path d="M378.587,133.731l41.99,-0l0,82.471" style="fill:none;stroke:#fff;stroke-width:3px;"/><path d="M358.592,137.705l-0,60.611" style="fill:none;stroke:#fff;stroke-width:3px;"/><path d="M378.587,133.731l0,-37.608" style="fill:none;stroke:#fff;stroke-width:3px;"/><path d="M398.582,152.61l0,28.815" style="fill:none;stroke:#fff;stroke-width:3px;"/><g><path d="M378.587,159.565l18.996,0" style="fill:none;stroke:#fff;stroke-width:3px;stroke-linecap:butt;"/><path d="M378.587,165.527l18.996,-0" style="fill:none;stroke:#fff;stroke-width:3px;stroke-linecap:butt;"/><path d="M378.587,171.489l18.996,-0" style="fill:none;stroke:#fff;stroke-width:3px;stroke-linecap:butt;"/><path d="M378.587,177.45l18.996,0" style="fill:none;stroke:#fff;stroke-width:3px;stroke-linecap:butt;"/></g><g><path d="M399.582,157.081l20.995,0" style="fill:none;stroke:#fff;stroke-width:3px;stroke-linecap:butt;"/><path d="M399.582,163.043l20.995,-0" style="fill:none;stroke:#fff;stroke-width:3px;stroke-linecap:butt;"/><path d="M399.582,169.005l20.995,-0" style="fill:none;stroke:#fff;stroke-width:3px;stroke-linecap:butt;"/><path d="M399.582,174.966l20.995,0" style="fill:none;stroke:#fff;stroke-width:3px;stroke-linecap:butt;"/></g><path d="M378.587,201.297l41.99,0" style="fill:none;stroke:#fff;stroke-width:3px;"/><path d="M307.251,191.361l51.341,0" style="fill:none;stroke:#fff;stroke-width:3px;"/><path d="M586.151,216.202l-208.356,-0" style="fill:none;stroke:#fff;stroke-width:3px;stroke-linejoin:round;"/><path d="M358.068,216.202l-53.013,-0l-0,-120.079l35.753,-0l0,-25.732l-13.561,0l-0,-67.391l-324.247,0" style="fill:none;stroke:#fff;stroke-width:3px;stroke-linejoin:round;"/><path d="M340.808,96.123l37.779,-0" style="fill:none;stroke:#fff;stroke-width:3px;stroke-linejoin:round;"/><path d="M586.151,216.202l-0,-49.185" style="fill:none;stroke:#fff;stroke-width:3px;stroke-linejoin:round;"/><path d="M607.11,216.202l-0,-49.185" style="fill:none;stroke:#fff;stroke-width:3px;stroke-linejoin:round;"/><g><path d="M587.16,174.966l19.95,0" style="fill:none;stroke:#fff;stroke-width:3px;stroke-linecap:butt;"/><path d="M587.16,182.318l19.95,0" style="fill:none;stroke:#fff;stroke-width:3px;stroke-linecap:butt;"/><path d="M587.16,189.67l19.95,-0" style="fill:none;stroke:#fff;stroke-width:3px;stroke-linecap:butt;"/><path d="M586.674,197.022l19.95,-0" style="fill:none;stroke:#fff;stroke-width:3px;stroke-linecap:butt;"/></g></g></g></g><path d="M64.408,78.069l0,-74.569" style="fill:none;stroke:#fff;stroke-width:3px;"/></svg>