<?xml version="1.0" encoding="UTF-8" standalone="no"?>
<!DOCTYPE svg PUBLIC "-//W3C//DTD SVG 1.1//EN" "http://www.w3.org/Graphics/SVG/1.1/DTD/svg11.dtd">
<svg width="100%" height="100%" viewBox="0 0 726 316" version="1.1" xmlns="http://www.w3.org/2000/svg" xmlns:xlink="http://www.w3.org/1999/xlink" xml:space="preserve" xmlns:serif="http://www.serif.com/" style="fill-rule:evenodd;clip-rule:evenodd;stroke-linecap:round;stroke-linejoin:round;stroke-miterlimit:1.5;">
    <rect x="-389" y="-266" width="1309" height="1071" style="stroke:white;stroke-width:1px;"/>
    <g transform="matrix(1,0,0,1,-38,-25.5)">
        <rect x="41" y="126" width="53" height="115" style="fill:none;stroke:white;stroke-width:3px;stroke-linecap:square;stroke-linejoin:miter;"/>
    </g>
    <g transform="matrix(0.783333,0,0,0.841932,-20.5,-22.2579)">
        <rect x="30" y="30" width="240" height="88.569" style="fill:rgb(131,168,242);"/>
    </g>
    <g transform="matrix(1.31472,0,0,0.790342,-36.4415,221.29)">
        <rect x="30" y="30" width="240" height="88.569" style="fill:rgb(131,168,242);"/>
    </g>
    <g transform="matrix(0.744186,0,0,2.52941,-6.5814,-257.941)">
        <rect x="158" y="151" width="43" height="34" style="fill:rgb(147,48,187);"/>
    </g>
    <g transform="matrix(0.744186,0,0,0.5,-6.5814,31.5)">
        <rect x="158" y="151" width="43" height="34" style="fill:rgb(185,232,145);"/>
    </g>
    <g transform="matrix(0.744186,0,0,3.02941,68.4186,-350.441)">
        <rect x="158" y="151" width="43" height="34" style="fill:rgb(249,244,151);"/>
    </g>
    <g transform="matrix(1,0,0,1,-68.9271,-21.3033)">
        <g transform="matrix(16,0,0,16,118.623,67.2846)">
            <path d="M0.056,-0L0.056,-0.719L0.627,-0.719C0.654,-0.719 0.679,-0.712 0.701,-0.699C0.724,-0.686 0.742,-0.668 0.756,-0.645C0.769,-0.622 0.776,-0.598 0.776,-0.571L0.776,-0.385C0.776,-0.358 0.769,-0.334 0.756,-0.311C0.742,-0.288 0.724,-0.27 0.701,-0.257C0.679,-0.244 0.654,-0.237 0.627,-0.237L0.211,-0.236L0.211,-0L0.056,-0ZM0.211,-0.393L0.619,-0.393L0.619,-0.564L0.211,-0.564L0.211,-0.393Z" style="fill-rule:nonzero;"/>
        </g>
        <g transform="matrix(16,0,0,16,131.279,67.2846)">
            <path d="M0.204,-0C0.177,-0 0.152,-0.007 0.13,-0.02C0.107,-0.033 0.089,-0.051 0.076,-0.074C0.063,-0.096 0.056,-0.121 0.056,-0.148L0.056,-0.572C0.056,-0.599 0.063,-0.624 0.076,-0.647C0.089,-0.669 0.107,-0.687 0.13,-0.7C0.152,-0.713 0.177,-0.72 0.204,-0.72L0.774,-0.72L0.774,-0.564L0.244,-0.564C0.233,-0.564 0.225,-0.561 0.22,-0.556C0.214,-0.551 0.211,-0.542 0.211,-0.531L0.211,-0.189C0.211,-0.178 0.214,-0.17 0.22,-0.165C0.225,-0.159 0.233,-0.156 0.244,-0.156L0.774,-0.156L0.774,-0L0.204,-0Z" style="fill-rule:nonzero;"/>
        </g>
        <g transform="matrix(16,0,0,16,144.431,67.2846)">
            <rect x="0.059" y="-0.372" width="0.417" height="0.153" style="fill-rule:nonzero;"/>
        </g>
        <g transform="matrix(16,0,0,16,152.703,67.2846)">
            <path d="M0.615,-0L0.406,-0.249L0.609,-0.249L0.775,-0.053L0.775,-0L0.615,-0ZM0.056,-0L0.056,-0.719L0.627,-0.719C0.654,-0.719 0.679,-0.712 0.701,-0.699C0.724,-0.686 0.742,-0.668 0.756,-0.645C0.769,-0.622 0.776,-0.598 0.776,-0.571L0.776,-0.385C0.776,-0.358 0.769,-0.334 0.756,-0.311C0.742,-0.288 0.724,-0.27 0.701,-0.257C0.679,-0.244 0.654,-0.237 0.627,-0.237L0.211,-0.236L0.211,-0L0.056,-0ZM0.211,-0.393L0.619,-0.393L0.619,-0.564L0.211,-0.564L0.211,-0.393Z" style="fill-rule:nonzero;"/>
        </g>
        <g transform="matrix(16,0,0,16,165.903,67.2846)">
            <path d="M0.196,-0C0.17,-0 0.146,-0.007 0.124,-0.02C0.102,-0.033 0.084,-0.051 0.071,-0.073C0.058,-0.095 0.051,-0.119 0.051,-0.145L0.051,-0.435C0.051,-0.461 0.058,-0.485 0.071,-0.507C0.084,-0.529 0.102,-0.547 0.124,-0.56C0.146,-0.573 0.17,-0.58 0.196,-0.58L0.494,-0.58C0.521,-0.58 0.545,-0.573 0.567,-0.56C0.589,-0.547 0.606,-0.529 0.619,-0.507C0.632,-0.485 0.639,-0.461 0.639,-0.435L0.639,-0.213L0.204,-0.213L0.204,-0.153L0.639,-0.153L0.639,-0L0.196,-0ZM0.204,-0.347L0.486,-0.347L0.486,-0.427L0.204,-0.427L0.204,-0.347Z" style="fill-rule:nonzero;"/>
        </g>
        <g transform="matrix(16,0,0,16,176.975,67.2846)">
            <path d="M0.052,-0L0.052,-0.58L0.205,-0.58L0.205,-0L0.052,-0ZM0.052,-0.616L0.052,-0.77L0.205,-0.77L0.205,-0.616L0.052,-0.616Z" style="fill-rule:nonzero;"/>
        </g>
        <g transform="matrix(16,0,0,16,180.303,67.2846)">
            <path d="M0.054,-0L0.054,-0.77L0.207,-0.77L0.207,-0.58L0.497,-0.58C0.523,-0.58 0.547,-0.573 0.569,-0.56C0.591,-0.547 0.609,-0.529 0.622,-0.507C0.635,-0.485 0.642,-0.461 0.642,-0.435L0.642,-0L0.489,-0L0.489,-0.427L0.207,-0.427L0.207,-0L0.054,-0Z" style="fill-rule:nonzero;"/>
        </g>
        <g transform="matrix(16,0,0,16,190.991,67.2846)">
            <path d="M0.196,-0C0.17,-0 0.146,-0.007 0.124,-0.02C0.102,-0.033 0.084,-0.051 0.071,-0.073C0.058,-0.095 0.051,-0.119 0.051,-0.145L0.051,-0.435C0.051,-0.461 0.058,-0.485 0.071,-0.507C0.084,-0.529 0.102,-0.547 0.124,-0.56C0.146,-0.573 0.17,-0.58 0.196,-0.58L0.494,-0.58C0.521,-0.58 0.545,-0.573 0.567,-0.56C0.589,-0.547 0.606,-0.529 0.619,-0.507C0.632,-0.485 0.639,-0.461 0.639,-0.435L0.639,-0.213L0.204,-0.213L0.204,-0.153L0.639,-0.153L0.639,-0L0.196,-0ZM0.204,-0.347L0.486,-0.347L0.486,-0.427L0.204,-0.427L0.204,-0.347Z" style="fill-rule:nonzero;"/>
        </g>
        <g transform="matrix(16,0,0,16,202.063,67.2846)">
            <path d="M0.054,-0L0.054,-0.58L0.497,-0.58C0.524,-0.58 0.548,-0.573 0.57,-0.56C0.592,-0.547 0.61,-0.529 0.623,-0.507C0.636,-0.485 0.642,-0.461 0.642,-0.435L0.642,-0L0.489,-0L0.489,-0.427L0.207,-0.427L0.207,-0L0.054,-0Z" style="fill-rule:nonzero;"/>
        </g>
    </g>
    <g transform="matrix(1,0,0,1,-0.111133,218.875)">
        <g transform="matrix(16,0,0,16,118.623,67.2846)">
            <path d="M0.056,-0L0.056,-0.719L0.627,-0.719C0.654,-0.719 0.679,-0.712 0.701,-0.699C0.724,-0.686 0.742,-0.668 0.756,-0.645C0.769,-0.622 0.776,-0.598 0.776,-0.571L0.776,-0.385C0.776,-0.358 0.769,-0.334 0.756,-0.311C0.742,-0.288 0.724,-0.27 0.701,-0.257C0.679,-0.244 0.654,-0.237 0.627,-0.237L0.211,-0.236L0.211,-0L0.056,-0ZM0.211,-0.393L0.619,-0.393L0.619,-0.564L0.211,-0.564L0.211,-0.393Z" style="fill-rule:nonzero;"/>
        </g>
        <g transform="matrix(16,0,0,16,131.279,67.2846)">
            <path d="M0.204,-0C0.177,-0 0.152,-0.007 0.13,-0.02C0.107,-0.033 0.089,-0.051 0.076,-0.074C0.063,-0.096 0.056,-0.121 0.056,-0.148L0.056,-0.572C0.056,-0.599 0.063,-0.624 0.076,-0.647C0.089,-0.669 0.107,-0.687 0.13,-0.7C0.152,-0.713 0.177,-0.72 0.204,-0.72L0.774,-0.72L0.774,-0.564L0.244,-0.564C0.233,-0.564 0.225,-0.561 0.22,-0.556C0.214,-0.551 0.211,-0.542 0.211,-0.531L0.211,-0.189C0.211,-0.178 0.214,-0.17 0.22,-0.165C0.225,-0.159 0.233,-0.156 0.244,-0.156L0.774,-0.156L0.774,-0L0.204,-0Z" style="fill-rule:nonzero;"/>
        </g>
        <g transform="matrix(16,0,0,16,144.431,67.2846)">
            <rect x="0.059" y="-0.372" width="0.417" height="0.153" style="fill-rule:nonzero;"/>
        </g>
        <g transform="matrix(16,0,0,16,152.703,67.2846)">
            <path d="M0.615,-0L0.406,-0.249L0.609,-0.249L0.775,-0.053L0.775,-0L0.615,-0ZM0.056,-0L0.056,-0.719L0.627,-0.719C0.654,-0.719 0.679,-0.712 0.701,-0.699C0.724,-0.686 0.742,-0.668 0.756,-0.645C0.769,-0.622 0.776,-0.598 0.776,-0.571L0.776,-0.385C0.776,-0.358 0.769,-0.334 0.756,-0.311C0.742,-0.288 0.724,-0.27 0.701,-0.257C0.679,-0.244 0.654,-0.237 0.627,-0.237L0.211,-0.236L0.211,-0L0.056,-0ZM0.211,-0.393L0.619,-0.393L0.619,-0.564L0.211,-0.564L0.211,-0.393Z" style="fill-rule:nonzero;"/>
        </g>
        <g transform="matrix(16,0,0,16,165.903,67.2846)">
            <path d="M0.196,-0C0.17,-0 0.146,-0.007 0.124,-0.02C0.102,-0.033 0.084,-0.051 0.071,-0.073C0.058,-0.095 0.051,-0.119 0.051,-0.145L0.051,-0.435C0.051,-0.461 0.058,-0.485 0.071,-0.507C0.084,-0.529 0.102,-0.547 0.124,-0.56C0.146,-0.573 0.17,-0.58 0.196,-0.58L0.494,-0.58C0.521,-0.58 0.545,-0.573 0.567,-0.56C0.589,-0.547 0.606,-0.529 0.619,-0.507C0.632,-0.485 0.639,-0.461 0.639,-0.435L0.639,-0.213L0.204,-0.213L0.204,-0.153L0.639,-0.153L0.639,-0L0.196,-0ZM0.204,-0.347L0.486,-0.347L0.486,-0.427L0.204,-0.427L0.204,-0.347Z" style="fill-rule:nonzero;"/>
        </g>
        <g transform="matrix(16,0,0,16,176.975,67.2846)">
            <path d="M0.052,-0L0.052,-0.58L0.205,-0.58L0.205,-0L0.052,-0ZM0.052,-0.616L0.052,-0.77L0.205,-0.77L0.205,-0.616L0.052,-0.616Z" style="fill-rule:nonzero;"/>
        </g>
        <g transform="matrix(16,0,0,16,180.303,67.2846)">
            <path d="M0.054,-0L0.054,-0.77L0.207,-0.77L0.207,-0.58L0.497,-0.58C0.523,-0.58 0.547,-0.573 0.569,-0.56C0.591,-0.547 0.609,-0.529 0.622,-0.507C0.635,-0.485 0.642,-0.461 0.642,-0.435L0.642,-0L0.489,-0L0.489,-0.427L0.207,-0.427L0.207,-0L0.054,-0Z" style="fill-rule:nonzero;"/>
        </g>
        <g transform="matrix(16,0,0,16,190.991,67.2846)">
            <path d="M0.196,-0C0.17,-0 0.146,-0.007 0.124,-0.02C0.102,-0.033 0.084,-0.051 0.071,-0.073C0.058,-0.095 0.051,-0.119 0.051,-0.145L0.051,-0.435C0.051,-0.461 0.058,-0.485 0.071,-0.507C0.084,-0.529 0.102,-0.547 0.124,-0.56C0.146,-0.573 0.17,-0.58 0.196,-0.58L0.494,-0.58C0.521,-0.58 0.545,-0.573 0.567,-0.56C0.589,-0.547 0.606,-0.529 0.619,-0.507C0.632,-0.485 0.639,-0.461 0.639,-0.435L0.639,-0.213L0.204,-0.213L0.204,-0.153L0.639,-0.153L0.639,-0L0.196,-0ZM0.204,-0.347L0.486,-0.347L0.486,-0.427L0.204,-0.427L0.204,-0.347Z" style="fill-rule:nonzero;"/>
        </g>
        <g transform="matrix(16,0,0,16,202.063,67.2846)">
            <path d="M0.054,-0L0.054,-0.58L0.497,-0.58C0.524,-0.58 0.548,-0.573 0.57,-0.56C0.592,-0.547 0.61,-0.529 0.623,-0.507C0.636,-0.485 0.642,-0.461 0.642,-0.435L0.642,-0L0.489,-0L0.489,-0.427L0.207,-0.427L0.207,-0L0.054,-0Z" style="fill-rule:nonzero;"/>
        </g>
    </g>
    <g transform="matrix(1.93888,0,0,1.94118,13.6564,-46.1176)">
        <rect x="158" y="151" width="43" height="34" style="fill:rgb(249,244,151);"/>
    </g>
    <g transform="matrix(1,0,0,1,221.174,218.875)">
        <g transform="matrix(16,0,0,16,103.528,67.2846)">
            <path d="M0.056,-0L0.056,-0.72L0.216,-0.72L0.46,-0.429L0.703,-0.72L0.864,-0.72L0.864,-0L0.708,-0L0.708,-0.483L0.46,-0.187L0.211,-0.482L0.211,-0L0.056,-0Z" style="fill-rule:nonzero;"/>
        </g>
        <g transform="matrix(16,0,0,16,118.376,67.2846)">
            <path d="M0.198,-0C0.171,-0 0.147,-0.007 0.125,-0.02C0.103,-0.033 0.086,-0.051 0.073,-0.073C0.059,-0.095 0.053,-0.119 0.053,-0.145L0.053,-0.58L0.206,-0.58L0.206,-0.153L0.488,-0.153L0.488,-0.58L0.641,-0.58L0.641,-0.145C0.641,-0.119 0.635,-0.095 0.622,-0.073C0.608,-0.051 0.591,-0.033 0.569,-0.02C0.547,-0.007 0.523,-0 0.496,-0L0.198,-0Z" style="fill-rule:nonzero;"/>
        </g>
        <g transform="matrix(16,0,0,16,129.256,67.2846)">
            <path d="M0.193,-0C0.167,-0 0.143,-0.007 0.121,-0.02C0.099,-0.033 0.081,-0.051 0.068,-0.073C0.055,-0.095 0.048,-0.119 0.048,-0.145L0.048,-0.174L0.201,-0.174L0.201,-0.153L0.483,-0.153L0.483,-0.213L0.193,-0.213C0.167,-0.213 0.143,-0.22 0.121,-0.233C0.099,-0.246 0.081,-0.264 0.068,-0.286C0.055,-0.308 0.048,-0.332 0.048,-0.358L0.048,-0.435C0.048,-0.461 0.055,-0.485 0.068,-0.507C0.081,-0.529 0.099,-0.547 0.121,-0.56C0.143,-0.573 0.167,-0.58 0.193,-0.58L0.491,-0.58C0.518,-0.58 0.542,-0.573 0.564,-0.56C0.586,-0.547 0.604,-0.529 0.617,-0.507C0.63,-0.485 0.637,-0.461 0.637,-0.435L0.637,-0.406L0.483,-0.406L0.483,-0.427L0.201,-0.427L0.201,-0.367L0.491,-0.367C0.518,-0.367 0.542,-0.36 0.564,-0.347C0.586,-0.334 0.604,-0.316 0.617,-0.294C0.63,-0.272 0.637,-0.248 0.637,-0.222L0.637,-0.145C0.637,-0.119 0.63,-0.095 0.617,-0.073C0.604,-0.051 0.586,-0.033 0.564,-0.02C0.542,-0.007 0.518,-0 0.491,-0L0.193,-0Z" style="fill-rule:nonzero;"/>
        </g>
        <g transform="matrix(16,0,0,16,139.992,67.2846)">
            <path d="M0.196,-0C0.17,-0 0.146,-0.007 0.124,-0.02C0.102,-0.033 0.084,-0.051 0.071,-0.073C0.058,-0.095 0.051,-0.119 0.051,-0.145L0.051,-0.435C0.051,-0.461 0.058,-0.485 0.071,-0.507C0.084,-0.529 0.102,-0.547 0.124,-0.56C0.146,-0.573 0.17,-0.58 0.196,-0.58L0.494,-0.58C0.521,-0.58 0.545,-0.573 0.567,-0.56C0.589,-0.547 0.606,-0.529 0.619,-0.507C0.632,-0.485 0.639,-0.461 0.639,-0.435L0.639,-0.213L0.204,-0.213L0.204,-0.153L0.639,-0.153L0.639,-0L0.196,-0ZM0.204,-0.347L0.486,-0.347L0.486,-0.427L0.204,-0.427L0.204,-0.347Z" style="fill-rule:nonzero;"/>
        </g>
        <g transform="matrix(16,0,0,16,151.064,67.2846)">
            <path d="M0.198,-0C0.171,-0 0.147,-0.007 0.125,-0.02C0.103,-0.033 0.086,-0.051 0.073,-0.073C0.059,-0.095 0.053,-0.119 0.053,-0.145L0.053,-0.58L0.206,-0.58L0.206,-0.153L0.488,-0.153L0.488,-0.58L0.641,-0.58L0.641,-0.145C0.641,-0.119 0.635,-0.095 0.622,-0.073C0.608,-0.051 0.591,-0.033 0.569,-0.02C0.547,-0.007 0.523,-0 0.496,-0L0.198,-0Z" style="fill-rule:nonzero;"/>
        </g>
        <g transform="matrix(16,0,0,16,161.864,67.2846)">
            <path d="M0.054,-0L0.054,-0.58L0.752,-0.58C0.779,-0.58 0.803,-0.573 0.825,-0.56C0.847,-0.547 0.865,-0.529 0.878,-0.507C0.89,-0.485 0.897,-0.461 0.897,-0.435L0.897,-0L0.745,-0L0.745,-0.427L0.553,-0.427L0.553,-0L0.399,-0L0.399,-0.427L0.207,-0.427L0.207,-0L0.054,-0Z" style="fill-rule:nonzero;"/>
        </g>
    </g>
    <g transform="matrix(1.21922,0,0,2.62668,25.3634,-282.629)">
        <rect x="158" y="151" width="43" height="34" style="fill:rgb(249,244,151);"/>
    </g>
    <g transform="matrix(1,0,0,1,103.806,97.1289)">
        <g transform="matrix(16,0,0,16,125.896,67.2846)">
            <path d="M0.452,-0L0.035,-0.72L0.215,-0.72L0.517,-0.197L0.819,-0.72L0.998,-0.72L0.581,-0L0.452,-0Z" style="fill-rule:nonzero;"/>
        </g>
        <g transform="matrix(16,0,0,16,141.944,67.2846)">
            <path d="M0.615,-0L0.406,-0.249L0.609,-0.249L0.775,-0.053L0.775,-0L0.615,-0ZM0.056,-0L0.056,-0.719L0.627,-0.719C0.654,-0.719 0.679,-0.712 0.701,-0.699C0.724,-0.686 0.742,-0.668 0.756,-0.645C0.769,-0.622 0.776,-0.598 0.776,-0.571L0.776,-0.385C0.776,-0.358 0.769,-0.334 0.756,-0.311C0.742,-0.288 0.724,-0.27 0.701,-0.257C0.679,-0.244 0.654,-0.237 0.627,-0.237L0.211,-0.236L0.211,-0L0.056,-0ZM0.211,-0.393L0.619,-0.393L0.619,-0.564L0.211,-0.564L0.211,-0.393Z" style="fill-rule:nonzero;"/>
        </g>
    </g>
    <g transform="matrix(1.13898,0,0,1.13065,91.0532,-71.5197)">
        <rect x="158" y="151" width="43" height="34" style="fill:rgb(249,244,151);"/>
    </g>
    <g transform="matrix(1,0,0,1,153.833,49.9944)">
        <g transform="matrix(10,0,0,10,122.95,67.2846)">
            <path d="M0.204,-0C0.177,-0 0.152,-0.007 0.13,-0.02C0.107,-0.033 0.089,-0.051 0.076,-0.074C0.063,-0.096 0.056,-0.121 0.056,-0.148L0.056,-0.572C0.056,-0.599 0.063,-0.624 0.076,-0.647C0.089,-0.669 0.107,-0.687 0.13,-0.7C0.152,-0.713 0.177,-0.72 0.204,-0.72L0.774,-0.72L0.774,-0.564L0.244,-0.564C0.233,-0.564 0.225,-0.561 0.22,-0.556C0.214,-0.551 0.211,-0.542 0.211,-0.531L0.211,-0.189C0.211,-0.178 0.214,-0.17 0.22,-0.165C0.225,-0.159 0.233,-0.156 0.244,-0.156L0.774,-0.156L0.774,-0L0.204,-0Z" style="fill-rule:nonzero;"/>
        </g>
        <g transform="matrix(10,0,0,10,131.17,67.2846)">
            <path d="M0.196,-0C0.17,-0 0.146,-0.007 0.124,-0.02C0.102,-0.033 0.084,-0.051 0.071,-0.073C0.058,-0.095 0.051,-0.119 0.051,-0.145L0.051,-0.435C0.051,-0.461 0.058,-0.485 0.071,-0.507C0.084,-0.529 0.102,-0.547 0.124,-0.56C0.146,-0.573 0.17,-0.58 0.196,-0.58L0.494,-0.58C0.521,-0.58 0.545,-0.573 0.567,-0.56C0.589,-0.547 0.606,-0.529 0.619,-0.507C0.632,-0.485 0.639,-0.461 0.639,-0.435L0.639,-0.145C0.639,-0.119 0.632,-0.095 0.62,-0.073C0.607,-0.051 0.589,-0.033 0.567,-0.02C0.545,-0.007 0.521,-0 0.494,-0L0.196,-0ZM0.204,-0.153L0.486,-0.153L0.486,-0.427L0.204,-0.427L0.204,-0.153Z" style="fill-rule:nonzero;"/>
        </g>
        <g transform="matrix(10,0,0,10,137.86,67.2846)">
            <path d="M0.198,-0C0.171,-0 0.147,-0.007 0.125,-0.02C0.103,-0.033 0.086,-0.051 0.073,-0.073C0.059,-0.095 0.053,-0.119 0.053,-0.145L0.053,-0.58L0.206,-0.58L0.206,-0.153L0.488,-0.153L0.488,-0.58L0.641,-0.58L0.641,-0.145C0.641,-0.119 0.635,-0.095 0.622,-0.073C0.608,-0.051 0.591,-0.033 0.569,-0.02C0.547,-0.007 0.523,-0 0.496,-0L0.198,-0Z" style="fill-rule:nonzero;"/>
        </g>
        <g transform="matrix(10,0,0,10,144.61,67.2846)">
            <path d="M0.196,-0C0.17,-0 0.146,-0.007 0.124,-0.02C0.102,-0.033 0.084,-0.051 0.071,-0.073C0.058,-0.095 0.051,-0.119 0.051,-0.145L0.051,-0.435C0.051,-0.461 0.058,-0.485 0.071,-0.507C0.084,-0.529 0.102,-0.547 0.124,-0.56C0.146,-0.573 0.17,-0.58 0.196,-0.58L0.638,-0.58L0.638,-0.427L0.204,-0.427L0.204,-0.153L0.639,-0.153L0.639,-0L0.196,-0Z" style="fill-rule:nonzero;"/>
        </g>
        <g transform="matrix(10,0,0,10,151.41,67.2846)">
            <path d="M0.054,-0L0.054,-0.77L0.207,-0.77L0.207,-0.58L0.497,-0.58C0.523,-0.58 0.547,-0.573 0.569,-0.56C0.591,-0.547 0.609,-0.529 0.622,-0.507C0.635,-0.485 0.642,-0.461 0.642,-0.435L0.642,-0L0.489,-0L0.489,-0.427L0.207,-0.427L0.207,-0L0.054,-0Z" style="fill-rule:nonzero;"/>
        </g>
        <g transform="matrix(10,0,0,10,121.22,77.2846)">
            <path d="M0.204,-0C0.177,-0 0.152,-0.007 0.13,-0.02C0.107,-0.033 0.089,-0.051 0.076,-0.074C0.063,-0.096 0.056,-0.121 0.056,-0.148L0.056,-0.572C0.056,-0.599 0.063,-0.624 0.076,-0.646C0.089,-0.669 0.107,-0.687 0.13,-0.7C0.152,-0.713 0.177,-0.72 0.204,-0.72L0.627,-0.72C0.654,-0.72 0.679,-0.713 0.701,-0.7C0.724,-0.687 0.742,-0.669 0.756,-0.646C0.769,-0.624 0.776,-0.599 0.776,-0.572L0.776,-0.504L0.619,-0.504L0.619,-0.564L0.211,-0.564L0.211,-0.156L0.619,-0.156L0.619,-0.264L0.463,-0.264L0.463,-0.42L0.776,-0.42L0.776,-0.148C0.776,-0.121 0.769,-0.096 0.756,-0.074C0.742,-0.051 0.724,-0.033 0.701,-0.02C0.679,-0.007 0.654,-0 0.627,-0L0.204,-0Z" style="fill-rule:nonzero;"/>
        </g>
        <g transform="matrix(10,0,0,10,129.52,77.2846)">
            <path d="M0.197,-0C0.171,-0 0.146,-0.007 0.124,-0.02C0.102,-0.033 0.085,-0.051 0.072,-0.073C0.059,-0.095 0.052,-0.119 0.052,-0.145L0.052,-0.367L0.487,-0.367L0.487,-0.427L0.052,-0.427L0.052,-0.58L0.495,-0.58C0.522,-0.58 0.546,-0.573 0.568,-0.56C0.59,-0.547 0.607,-0.529 0.62,-0.507C0.633,-0.485 0.64,-0.461 0.64,-0.435L0.64,-0L0.197,-0ZM0.205,-0.153L0.487,-0.153L0.487,-0.233L0.205,-0.233L0.205,-0.153Z" style="fill-rule:nonzero;"/>
        </g>
        <g transform="matrix(10,0,0,10,136.26,77.2846)">
            <path d="M0.054,-0L0.054,-0.58L0.752,-0.58C0.779,-0.58 0.803,-0.573 0.825,-0.56C0.847,-0.547 0.865,-0.529 0.878,-0.507C0.89,-0.485 0.897,-0.461 0.897,-0.435L0.897,-0L0.745,-0L0.745,-0.427L0.553,-0.427L0.553,-0L0.399,-0L0.399,-0.427L0.207,-0.427L0.207,-0L0.054,-0Z" style="fill-rule:nonzero;"/>
        </g>
        <g transform="matrix(10,0,0,10,146.04,77.2846)">
            <path d="M0.196,-0C0.17,-0 0.146,-0.007 0.124,-0.02C0.102,-0.033 0.084,-0.051 0.071,-0.073C0.058,-0.095 0.051,-0.119 0.051,-0.145L0.051,-0.435C0.051,-0.461 0.058,-0.485 0.071,-0.507C0.084,-0.529 0.102,-0.547 0.124,-0.56C0.146,-0.573 0.17,-0.58 0.196,-0.58L0.494,-0.58C0.521,-0.58 0.545,-0.573 0.567,-0.56C0.589,-0.547 0.606,-0.529 0.619,-0.507C0.632,-0.485 0.639,-0.461 0.639,-0.435L0.639,-0.213L0.204,-0.213L0.204,-0.153L0.639,-0.153L0.639,-0L0.196,-0ZM0.204,-0.347L0.486,-0.347L0.486,-0.427L0.204,-0.427L0.204,-0.347Z" style="fill-rule:nonzero;"/>
        </g>
        <g transform="matrix(10,0,0,10,152.96,77.2846)">
            <path d="M0.193,-0C0.167,-0 0.143,-0.007 0.121,-0.02C0.099,-0.033 0.081,-0.051 0.068,-0.073C0.055,-0.095 0.048,-0.119 0.048,-0.145L0.048,-0.174L0.201,-0.174L0.201,-0.153L0.483,-0.153L0.483,-0.213L0.193,-0.213C0.167,-0.213 0.143,-0.22 0.121,-0.233C0.099,-0.246 0.081,-0.264 0.068,-0.286C0.055,-0.308 0.048,-0.332 0.048,-0.358L0.048,-0.435C0.048,-0.461 0.055,-0.485 0.068,-0.507C0.081,-0.529 0.099,-0.547 0.121,-0.56C0.143,-0.573 0.167,-0.58 0.193,-0.58L0.491,-0.58C0.518,-0.58 0.542,-0.573 0.564,-0.56C0.586,-0.547 0.604,-0.529 0.617,-0.507C0.63,-0.485 0.637,-0.461 0.637,-0.435L0.637,-0.406L0.483,-0.406L0.483,-0.427L0.201,-0.427L0.201,-0.367L0.491,-0.367C0.518,-0.367 0.542,-0.36 0.564,-0.347C0.586,-0.334 0.604,-0.316 0.617,-0.294C0.63,-0.272 0.637,-0.248 0.637,-0.222L0.637,-0.145C0.637,-0.119 0.63,-0.095 0.617,-0.073C0.604,-0.051 0.586,-0.033 0.564,-0.02C0.542,-0.007 0.518,-0 0.491,-0L0.193,-0Z" style="fill-rule:nonzero;"/>
        </g>
    </g>
    <g transform="matrix(0.554791,0,0,1.53299,206.731,-67.2216)">
        <rect x="158" y="151" width="43" height="34" style="fill:rgb(249,244,151);"/>
    </g>
    <g transform="matrix(6.12323e-17,-1,1,6.12323e-17,238.131,331.281)">
        <g transform="matrix(10,0,0,10,124.65,67.2846)">
            <path d="M0.204,-0C0.177,-0 0.152,-0.007 0.13,-0.02C0.107,-0.033 0.089,-0.051 0.076,-0.074C0.063,-0.096 0.056,-0.121 0.056,-0.148L0.056,-0.572C0.056,-0.599 0.063,-0.624 0.076,-0.646C0.089,-0.669 0.107,-0.687 0.13,-0.7C0.152,-0.713 0.177,-0.72 0.204,-0.72L0.627,-0.72C0.654,-0.72 0.679,-0.713 0.701,-0.7C0.724,-0.687 0.742,-0.669 0.756,-0.646C0.769,-0.624 0.776,-0.599 0.776,-0.572L0.776,-0.504L0.619,-0.504L0.619,-0.564L0.211,-0.564L0.211,-0.156L0.619,-0.156L0.619,-0.264L0.463,-0.264L0.463,-0.42L0.776,-0.42L0.776,-0.148C0.776,-0.121 0.769,-0.096 0.756,-0.074C0.742,-0.051 0.724,-0.033 0.701,-0.02C0.679,-0.007 0.654,-0 0.627,-0L0.204,-0Z" style="fill-rule:nonzero;"/>
        </g>
        <g transform="matrix(10,0,0,10,132.95,67.2846)">
            <path d="M0.197,-0C0.171,-0 0.146,-0.007 0.124,-0.02C0.102,-0.033 0.085,-0.051 0.072,-0.073C0.059,-0.095 0.052,-0.119 0.052,-0.145L0.052,-0.367L0.487,-0.367L0.487,-0.427L0.052,-0.427L0.052,-0.58L0.495,-0.58C0.522,-0.58 0.546,-0.573 0.568,-0.56C0.59,-0.547 0.607,-0.529 0.62,-0.507C0.633,-0.485 0.64,-0.461 0.64,-0.435L0.64,-0L0.197,-0ZM0.205,-0.153L0.487,-0.153L0.487,-0.233L0.205,-0.233L0.205,-0.153Z" style="fill-rule:nonzero;"/>
        </g>
        <g transform="matrix(10,0,0,10,139.69,67.2846)">
            <path d="M0.054,-0L0.054,-0.58L0.752,-0.58C0.779,-0.58 0.803,-0.573 0.825,-0.56C0.847,-0.547 0.865,-0.529 0.878,-0.507C0.89,-0.485 0.897,-0.461 0.897,-0.435L0.897,-0L0.745,-0L0.745,-0.427L0.553,-0.427L0.553,-0L0.399,-0L0.399,-0.427L0.207,-0.427L0.207,-0L0.054,-0Z" style="fill-rule:nonzero;"/>
        </g>
        <g transform="matrix(10,0,0,10,149.47,67.2846)">
            <path d="M0.196,-0C0.17,-0 0.146,-0.007 0.124,-0.02C0.102,-0.033 0.084,-0.051 0.071,-0.073C0.058,-0.095 0.051,-0.119 0.051,-0.145L0.051,-0.435C0.051,-0.461 0.058,-0.485 0.071,-0.507C0.084,-0.529 0.102,-0.547 0.124,-0.56C0.146,-0.573 0.17,-0.58 0.196,-0.58L0.494,-0.58C0.521,-0.58 0.545,-0.573 0.567,-0.56C0.589,-0.547 0.606,-0.529 0.619,-0.507C0.632,-0.485 0.639,-0.461 0.639,-0.435L0.639,-0.213L0.204,-0.213L0.204,-0.153L0.639,-0.153L0.639,-0L0.196,-0ZM0.204,-0.347L0.486,-0.347L0.486,-0.427L0.204,-0.427L0.204,-0.347Z" style="fill-rule:nonzero;"/>
        </g>
        <g transform="matrix(10,0,0,10,129.945,76.2846)">
            <path d="M0.057,-0L0.057,-0.721L0.212,-0.721L0.212,-0.156L0.777,-0.156L0.777,-0L0.057,-0Z" style="fill-rule:nonzero;"/>
        </g>
        <g transform="matrix(10,0,0,10,137.735,76.2846)">
            <path d="M0.197,-0C0.171,-0 0.146,-0.007 0.124,-0.02C0.102,-0.033 0.085,-0.051 0.072,-0.073C0.059,-0.095 0.052,-0.119 0.052,-0.145L0.052,-0.367L0.487,-0.367L0.487,-0.427L0.052,-0.427L0.052,-0.58L0.495,-0.58C0.522,-0.58 0.546,-0.573 0.568,-0.56C0.59,-0.547 0.607,-0.529 0.62,-0.507C0.633,-0.485 0.64,-0.461 0.64,-0.435L0.64,-0L0.197,-0ZM0.205,-0.153L0.487,-0.153L0.487,-0.233L0.205,-0.233L0.205,-0.153Z" style="fill-rule:nonzero;"/>
        </g>
        <g transform="matrix(10,0,0,10,144.425,76.2846)">
            <path d="M0.054,-0L0.054,-0.77L0.207,-0.77L0.207,-0.58L0.497,-0.58C0.524,-0.58 0.548,-0.573 0.57,-0.56C0.592,-0.547 0.61,-0.529 0.623,-0.507C0.636,-0.485 0.642,-0.461 0.642,-0.435L0.642,-0.145C0.642,-0.119 0.636,-0.095 0.623,-0.073C0.61,-0.051 0.592,-0.033 0.57,-0.02C0.548,-0.007 0.524,-0 0.497,-0L0.054,-0ZM0.207,-0.153L0.489,-0.153L0.489,-0.427L0.207,-0.427L0.207,-0.153Z" style="fill-rule:nonzero;"/>
        </g>
    </g>
    <g transform="matrix(1.93888,0,0,1.94118,101.656,-46.1176)">
        <rect x="158" y="151" width="43" height="34" style="fill:rgb(249,244,151);"/>
    </g>
    <g transform="matrix(1,0,0,1,309.174,218.875)">
        <g transform="matrix(16,0,0,16,128.072,67.2846)">
            <path d="M0.302,-0L0.302,-0.564L0.02,-0.564L0.02,-0.72L0.74,-0.72L0.74,-0.564L0.458,-0.564L0.458,-0L0.302,-0Z" style="fill-rule:nonzero;"/>
        </g>
        <g transform="matrix(16,0,0,16,140.216,67.2846)">
            <path d="M0.057,-0L0.057,-0.72L0.213,-0.72L0.213,-0.438L0.354,-0.438L0.59,-0.72L0.752,-0.72L0.752,-0.666L0.495,-0.36L0.752,-0.054L0.752,-0L0.59,-0L0.354,-0.282L0.213,-0.282L0.213,-0L0.057,-0Z" style="fill-rule:nonzero;"/>
        </g>
    </g>
    <g transform="matrix(0.976744,0,0,2.37447,394.36,-259.337)">
        <rect x="158" y="151" width="43" height="34" style="fill:rgb(249,244,151);"/>
    </g>
    <g transform="matrix(2.68015,0,0,1.94118,72.5358,-46.1176)">
        <rect x="158" y="151" width="43" height="34" style="fill:rgb(185,232,145);"/>
    </g>
    <g transform="matrix(1,0,0,1,387.68,218.875)">
        <g transform="matrix(16,0,0,16,137.823,67.2846)">
            <path d="M0.058,-0L0.058,-0.72L0.723,-0.72L0.723,-0.564L0.215,-0.564L0.215,-0.438L0.624,-0.438L0.624,-0.282L0.215,-0.282L0.215,-0.156L0.723,-0.156L0.723,-0L0.058,-0Z" style="fill-rule:nonzero;"/>
        </g>
        <g transform="matrix(16,0,0,16,150.079,67.2846)">
            <path d="M0.193,-0C0.167,-0 0.143,-0.007 0.121,-0.02C0.099,-0.033 0.081,-0.051 0.068,-0.073C0.055,-0.095 0.048,-0.119 0.048,-0.145L0.048,-0.174L0.201,-0.174L0.201,-0.153L0.483,-0.153L0.483,-0.213L0.193,-0.213C0.167,-0.213 0.143,-0.22 0.121,-0.233C0.099,-0.246 0.081,-0.264 0.068,-0.286C0.055,-0.308 0.048,-0.332 0.048,-0.358L0.048,-0.435C0.048,-0.461 0.055,-0.485 0.068,-0.507C0.081,-0.529 0.099,-0.547 0.121,-0.56C0.143,-0.573 0.167,-0.58 0.193,-0.58L0.491,-0.58C0.518,-0.58 0.542,-0.573 0.564,-0.56C0.586,-0.547 0.604,-0.529 0.617,-0.507C0.63,-0.485 0.637,-0.461 0.637,-0.435L0.637,-0.406L0.483,-0.406L0.483,-0.427L0.201,-0.427L0.201,-0.367L0.491,-0.367C0.518,-0.367 0.542,-0.36 0.564,-0.347C0.586,-0.334 0.604,-0.316 0.617,-0.294C0.63,-0.272 0.637,-0.248 0.637,-0.222L0.637,-0.145C0.637,-0.119 0.63,-0.095 0.617,-0.073C0.604,-0.051 0.586,-0.033 0.564,-0.02C0.542,-0.007 0.518,-0 0.491,-0L0.193,-0Z" style="fill-rule:nonzero;"/>
        </g>
        <g transform="matrix(16,0,0,16,161.055,67.2846)">
            <path d="M0.193,-0C0.167,-0 0.143,-0.007 0.121,-0.02C0.099,-0.033 0.081,-0.051 0.068,-0.073C0.055,-0.095 0.048,-0.119 0.048,-0.145L0.048,-0.174L0.201,-0.174L0.201,-0.153L0.483,-0.153L0.483,-0.213L0.193,-0.213C0.167,-0.213 0.143,-0.22 0.121,-0.233C0.099,-0.246 0.081,-0.264 0.068,-0.286C0.055,-0.308 0.048,-0.332 0.048,-0.358L0.048,-0.435C0.048,-0.461 0.055,-0.485 0.068,-0.507C0.081,-0.529 0.099,-0.547 0.121,-0.56C0.143,-0.573 0.167,-0.58 0.193,-0.58L0.491,-0.58C0.518,-0.58 0.542,-0.573 0.564,-0.56C0.586,-0.547 0.604,-0.529 0.617,-0.507C0.63,-0.485 0.637,-0.461 0.637,-0.435L0.637,-0.406L0.483,-0.406L0.483,-0.427L0.201,-0.427L0.201,-0.367L0.491,-0.367C0.518,-0.367 0.542,-0.36 0.564,-0.347C0.586,-0.334 0.604,-0.316 0.617,-0.294C0.63,-0.272 0.637,-0.248 0.637,-0.222L0.637,-0.145C0.637,-0.119 0.63,-0.095 0.617,-0.073C0.604,-0.051 0.586,-0.033 0.564,-0.02C0.542,-0.007 0.518,-0 0.491,-0L0.193,-0Z" style="fill-rule:nonzero;"/>
        </g>
        <g transform="matrix(16,0,0,16,171.791,67.2846)">
            <path d="M0.196,-0C0.17,-0 0.146,-0.007 0.124,-0.02C0.102,-0.033 0.084,-0.051 0.071,-0.073C0.058,-0.095 0.051,-0.119 0.051,-0.145L0.051,-0.435C0.051,-0.461 0.058,-0.485 0.071,-0.507C0.084,-0.529 0.102,-0.547 0.124,-0.56C0.146,-0.573 0.17,-0.58 0.196,-0.58L0.494,-0.58C0.521,-0.58 0.545,-0.573 0.567,-0.56C0.589,-0.547 0.606,-0.529 0.619,-0.507C0.632,-0.485 0.639,-0.461 0.639,-0.435L0.639,-0.213L0.204,-0.213L0.204,-0.153L0.639,-0.153L0.639,-0L0.196,-0ZM0.204,-0.347L0.486,-0.347L0.486,-0.427L0.204,-0.427L0.204,-0.347Z" style="fill-rule:nonzero;"/>
        </g>
        <g transform="matrix(16,0,0,16,182.863,67.2846)">
            <path d="M0.054,-0L0.054,-0.58L0.497,-0.58C0.524,-0.58 0.548,-0.573 0.57,-0.56C0.592,-0.547 0.61,-0.529 0.623,-0.507C0.636,-0.485 0.642,-0.461 0.642,-0.435L0.642,-0L0.489,-0L0.489,-0.427L0.207,-0.427L0.207,-0L0.054,-0Z" style="fill-rule:nonzero;"/>
        </g>
    </g>
    <g transform="matrix(6.12323e-17,-1,1,6.12323e-17,140.731,298.076)">
        <g transform="matrix(16,0,0,16,110.184,67.2846)">
            <path d="M0.615,-0L0.406,-0.249L0.609,-0.249L0.775,-0.053L0.775,-0L0.615,-0ZM0.056,-0L0.056,-0.719L0.627,-0.719C0.654,-0.719 0.679,-0.712 0.701,-0.699C0.724,-0.686 0.742,-0.668 0.756,-0.645C0.769,-0.622 0.776,-0.598 0.776,-0.571L0.776,-0.385C0.776,-0.358 0.769,-0.334 0.756,-0.311C0.742,-0.288 0.724,-0.27 0.701,-0.257C0.679,-0.244 0.654,-0.237 0.627,-0.237L0.211,-0.236L0.211,-0L0.056,-0ZM0.211,-0.393L0.619,-0.393L0.619,-0.564L0.211,-0.564L0.211,-0.393Z" style="fill-rule:nonzero;"/>
        </g>
        <g transform="matrix(16,0,0,16,123.384,67.2846)">
            <path d="M0.196,-0C0.17,-0 0.146,-0.007 0.124,-0.02C0.102,-0.033 0.084,-0.051 0.071,-0.073C0.058,-0.095 0.051,-0.119 0.051,-0.145L0.051,-0.435C0.051,-0.461 0.058,-0.485 0.071,-0.507C0.084,-0.529 0.102,-0.547 0.124,-0.56C0.146,-0.573 0.17,-0.58 0.196,-0.58L0.494,-0.58C0.521,-0.58 0.545,-0.573 0.567,-0.56C0.589,-0.547 0.606,-0.529 0.619,-0.507C0.632,-0.485 0.639,-0.461 0.639,-0.435L0.639,-0.213L0.204,-0.213L0.204,-0.153L0.639,-0.153L0.639,-0L0.196,-0ZM0.204,-0.347L0.486,-0.347L0.486,-0.427L0.204,-0.427L0.204,-0.347Z" style="fill-rule:nonzero;"/>
        </g>
        <g transform="matrix(16,0,0,16,134.456,67.2846)">
            <path d="M0.199,-0C0.172,-0 0.148,-0.007 0.126,-0.02C0.104,-0.033 0.086,-0.051 0.073,-0.073C0.06,-0.095 0.053,-0.119 0.053,-0.145L0.053,-0.752L0.206,-0.752L0.206,-0.58L0.421,-0.58L0.421,-0.427L0.206,-0.427L0.206,-0.153L0.421,-0.153L0.421,-0L0.199,-0Z" style="fill-rule:nonzero;"/>
        </g>
        <g transform="matrix(16,0,0,16,141.016,67.2846)">
            <path d="M0.052,-0L0.052,-0.435C0.052,-0.461 0.059,-0.485 0.072,-0.507C0.085,-0.529 0.103,-0.547 0.125,-0.56C0.147,-0.573 0.171,-0.58 0.198,-0.58L0.518,-0.58L0.518,-0.427L0.205,-0.427L0.205,-0L0.052,-0Z" style="fill-rule:nonzero;"/>
        </g>
        <g transform="matrix(16,0,0,16,149.128,67.2846)">
            <path d="M0.196,-0C0.17,-0 0.146,-0.007 0.124,-0.02C0.102,-0.033 0.084,-0.051 0.071,-0.073C0.058,-0.095 0.051,-0.119 0.051,-0.145L0.051,-0.435C0.051,-0.461 0.058,-0.485 0.071,-0.507C0.084,-0.529 0.102,-0.547 0.124,-0.56C0.146,-0.573 0.17,-0.58 0.196,-0.58L0.494,-0.58C0.521,-0.58 0.545,-0.573 0.567,-0.56C0.589,-0.547 0.606,-0.529 0.619,-0.507C0.632,-0.485 0.639,-0.461 0.639,-0.435L0.639,-0.145C0.639,-0.119 0.632,-0.095 0.62,-0.073C0.607,-0.051 0.589,-0.033 0.567,-0.02C0.545,-0.007 0.521,-0 0.494,-0L0.196,-0ZM0.204,-0.153L0.486,-0.153L0.486,-0.427L0.204,-0.427L0.204,-0.153Z" style="fill-rule:nonzero;"/>
        </g>
        <g transform="matrix(16,0,0,16,159.88,67.2846)">
            <path d="M0.193,-0C0.167,-0 0.143,-0.007 0.121,-0.02C0.099,-0.033 0.081,-0.051 0.068,-0.073C0.055,-0.095 0.048,-0.119 0.048,-0.145L0.048,-0.174L0.201,-0.174L0.201,-0.153L0.483,-0.153L0.483,-0.213L0.193,-0.213C0.167,-0.213 0.143,-0.22 0.121,-0.233C0.099,-0.246 0.081,-0.264 0.068,-0.286C0.055,-0.308 0.048,-0.332 0.048,-0.358L0.048,-0.435C0.048,-0.461 0.055,-0.485 0.068,-0.507C0.081,-0.529 0.099,-0.547 0.121,-0.56C0.143,-0.573 0.167,-0.58 0.193,-0.58L0.491,-0.58C0.518,-0.58 0.542,-0.573 0.564,-0.56C0.586,-0.547 0.604,-0.529 0.617,-0.507C0.63,-0.485 0.637,-0.461 0.637,-0.435L0.637,-0.406L0.483,-0.406L0.483,-0.427L0.201,-0.427L0.201,-0.367L0.491,-0.367C0.518,-0.367 0.542,-0.36 0.564,-0.347C0.586,-0.334 0.604,-0.316 0.617,-0.294C0.63,-0.272 0.637,-0.248 0.637,-0.222L0.637,-0.145C0.637,-0.119 0.63,-0.095 0.617,-0.073C0.604,-0.051 0.586,-0.033 0.564,-0.02C0.542,-0.007 0.518,-0 0.491,-0L0.193,-0Z" style="fill-rule:nonzero;"/>
        </g>
    </g>
    <g transform="matrix(1.36014,0,0,2.17968,-28.902,-325.672)">
        <rect x="158" y="151" width="43" height="34" style="fill:rgb(249,244,151);"/>
    </g>
    <g transform="matrix(1.11022e-16,-1,1,1.11022e-16,152.522,181.033)">
        <g transform="matrix(14,0,0,14,107.9,67.2846)">
            <path d="M0.302,-0L0.302,-0.564L0.02,-0.564L0.02,-0.72L0.74,-0.72L0.74,-0.564L0.458,-0.564L0.458,-0L0.302,-0Z" style="fill-rule:nonzero;"/>
        </g>
        <g transform="matrix(14,0,0,14,117.112,67.2846)">
            <path d="M0.198,-0C0.171,-0 0.147,-0.007 0.125,-0.02C0.103,-0.033 0.086,-0.051 0.073,-0.073C0.059,-0.095 0.053,-0.119 0.053,-0.145L0.053,-0.58L0.206,-0.58L0.206,-0.153L0.488,-0.153L0.488,-0.58L0.641,-0.58L0.641,-0.145C0.641,-0.119 0.635,-0.095 0.622,-0.073C0.608,-0.051 0.591,-0.033 0.569,-0.02C0.547,-0.007 0.523,-0 0.496,-0L0.198,-0Z" style="fill-rule:nonzero;"/>
        </g>
        <g transform="matrix(14,0,0,14,126.842,67.2846)">
            <path d="M0.052,-0L0.052,-0.435C0.052,-0.461 0.059,-0.485 0.072,-0.507C0.085,-0.529 0.103,-0.547 0.125,-0.56C0.147,-0.573 0.171,-0.58 0.198,-0.58L0.518,-0.58L0.518,-0.427L0.205,-0.427L0.205,-0L0.052,-0Z" style="fill-rule:nonzero;"/>
        </g>
        <g transform="matrix(14,0,0,14,134.01,67.2846)">
            <path d="M0.054,-0L0.054,-0.58L0.497,-0.58C0.524,-0.58 0.548,-0.573 0.57,-0.56C0.592,-0.547 0.61,-0.529 0.623,-0.507C0.636,-0.485 0.642,-0.461 0.642,-0.435L0.642,-0L0.489,-0L0.489,-0.427L0.207,-0.427L0.207,-0L0.054,-0Z" style="fill-rule:nonzero;"/>
        </g>
        <g transform="matrix(14,0,0,14,143.754,67.2846)">
            <path d="M0.052,-0L0.052,-0.58L0.205,-0.58L0.205,-0L0.052,-0ZM0.052,-0.616L0.052,-0.77L0.205,-0.77L0.205,-0.616L0.052,-0.616Z" style="fill-rule:nonzero;"/>
        </g>
        <g transform="matrix(14,0,0,14,146.666,67.2846)">
            <path d="M0.196,-0C0.17,-0 0.146,-0.007 0.124,-0.02C0.102,-0.033 0.084,-0.051 0.071,-0.073C0.058,-0.095 0.051,-0.119 0.051,-0.145L0.051,-0.435C0.051,-0.461 0.058,-0.485 0.071,-0.507C0.084,-0.529 0.102,-0.547 0.124,-0.56C0.146,-0.573 0.17,-0.58 0.196,-0.58L0.494,-0.58C0.521,-0.58 0.545,-0.573 0.567,-0.56C0.589,-0.547 0.606,-0.529 0.619,-0.507C0.632,-0.485 0.639,-0.461 0.639,-0.435L0.639,-0.213L0.204,-0.213L0.204,-0.153L0.639,-0.153L0.639,-0L0.196,-0ZM0.204,-0.347L0.486,-0.347L0.486,-0.427L0.204,-0.427L0.204,-0.347Z" style="fill-rule:nonzero;"/>
        </g>
        <g transform="matrix(14,0,0,14,156.284,67.2846)">
            <path d="M0.052,-0L0.052,-0.435C0.052,-0.461 0.059,-0.485 0.072,-0.507C0.085,-0.529 0.103,-0.547 0.125,-0.56C0.147,-0.573 0.171,-0.58 0.198,-0.58L0.518,-0.58L0.518,-0.427L0.205,-0.427L0.205,-0L0.052,-0Z" style="fill-rule:nonzero;"/>
        </g>
        <g transform="matrix(14,0,0,14,163.452,67.2846)">
            <path d="M0.196,-0C0.17,-0 0.146,-0.007 0.124,-0.02C0.102,-0.033 0.084,-0.051 0.071,-0.073C0.058,-0.095 0.051,-0.119 0.051,-0.145L0.051,-0.435C0.051,-0.461 0.058,-0.485 0.071,-0.507C0.084,-0.529 0.102,-0.547 0.124,-0.56C0.146,-0.573 0.17,-0.58 0.196,-0.58L0.494,-0.58C0.521,-0.58 0.545,-0.573 0.567,-0.56C0.589,-0.547 0.606,-0.529 0.619,-0.507C0.632,-0.485 0.639,-0.461 0.639,-0.435L0.639,-0.213L0.204,-0.213L0.204,-0.153L0.639,-0.153L0.639,-0L0.196,-0ZM0.204,-0.347L0.486,-0.347L0.486,-0.427L0.204,-0.427L0.204,-0.347Z" style="fill-rule:nonzero;"/>
        </g>
    </g>
    <g transform="matrix(1,0.00020294,-0.00020294,1,-26.9626,-27.0654)">
        <path d="M298,125L298,167" style="fill:none;stroke:white;stroke-width:1.5px;stroke-linecap:square;stroke-linejoin:miter;"/>
        <path d="M298,185L298,244L315,244" style="fill:none;stroke:white;stroke-width:1.5px;stroke-linecap:square;stroke-linejoin:miter;"/>
        <path d="M347,244L332,244" style="fill:none;stroke:white;stroke-width:1.5px;stroke-linecap:square;stroke-linejoin:miter;"/>
    </g>
    <g transform="matrix(6.12323e-17,-1,1,6.12323e-17,-63.5472,340.582)">
        <g transform="matrix(16,0,0,16,151.966,194.475)">
            <path d="M0.202,-0C0.175,-0 0.15,-0.007 0.128,-0.02C0.105,-0.033 0.087,-0.051 0.074,-0.074C0.061,-0.096 0.054,-0.121 0.054,-0.148L0.054,-0.572C0.054,-0.599 0.061,-0.624 0.074,-0.646C0.087,-0.669 0.105,-0.687 0.128,-0.7C0.15,-0.713 0.175,-0.72 0.202,-0.72L0.626,-0.72C0.653,-0.72 0.677,-0.713 0.7,-0.7C0.722,-0.687 0.74,-0.669 0.754,-0.646C0.767,-0.624 0.774,-0.599 0.774,-0.572L0.774,-0.148C0.774,-0.121 0.767,-0.096 0.754,-0.074C0.74,-0.051 0.722,-0.033 0.7,-0.02C0.677,-0.007 0.653,-0 0.626,-0L0.202,-0ZM0.209,-0.156L0.617,-0.156L0.617,-0.564L0.209,-0.564L0.209,-0.156Z" style="fill-rule:nonzero;"/>
        </g>
        <g transform="matrix(16,0,0,16,165.214,194.475)">
            <path d="M0.052,-0L0.052,-0.435C0.052,-0.461 0.059,-0.485 0.072,-0.507C0.085,-0.529 0.103,-0.547 0.125,-0.56C0.147,-0.573 0.171,-0.58 0.198,-0.58L0.518,-0.58L0.518,-0.427L0.205,-0.427L0.205,-0L0.052,-0Z" style="fill-rule:nonzero;"/>
        </g>
        <g transform="matrix(16,0,0,16,173.406,194.475)">
            <path d="M0.133,0.229L0.133,0.075L0.477,0.075L0.477,-0L0.187,-0C0.16,-0 0.136,-0.007 0.114,-0.02C0.092,-0.033 0.074,-0.051 0.061,-0.073C0.048,-0.095 0.041,-0.119 0.041,-0.145L0.041,-0.435C0.041,-0.461 0.048,-0.485 0.061,-0.507C0.074,-0.529 0.092,-0.547 0.114,-0.56C0.136,-0.573 0.161,-0.58 0.187,-0.58L0.485,-0.58C0.512,-0.58 0.536,-0.573 0.558,-0.56C0.58,-0.547 0.598,-0.529 0.611,-0.507C0.624,-0.485 0.63,-0.461 0.63,-0.435L0.63,0.084C0.63,0.111 0.624,0.135 0.611,0.157C0.598,0.179 0.58,0.196 0.558,0.209C0.536,0.222 0.512,0.229 0.485,0.229L0.133,0.229ZM0.194,-0.153L0.477,-0.153L0.477,-0.427L0.194,-0.427L0.194,-0.153Z" style="fill-rule:nonzero;"/>
        </g>
        <g transform="matrix(16,0,0,16,184.094,194.475)">
            <path d="M0.197,-0C0.171,-0 0.146,-0.007 0.124,-0.02C0.102,-0.033 0.085,-0.051 0.072,-0.073C0.059,-0.095 0.052,-0.119 0.052,-0.145L0.052,-0.367L0.487,-0.367L0.487,-0.427L0.052,-0.427L0.052,-0.58L0.495,-0.58C0.522,-0.58 0.546,-0.573 0.568,-0.56C0.59,-0.547 0.607,-0.529 0.62,-0.507C0.633,-0.485 0.64,-0.461 0.64,-0.435L0.64,-0L0.197,-0ZM0.205,-0.153L0.487,-0.153L0.487,-0.233L0.205,-0.233L0.205,-0.153Z" style="fill-rule:nonzero;"/>
        </g>
    </g>
    <g transform="matrix(1.09264,0,0,0.8,415.813,72.7074)">
        <rect x="158" y="151" width="43" height="34" style="fill:rgb(147,48,187);"/>
    </g>
    <g transform="matrix(1,0,0,1,438.945,12.9242)">
        <g transform="matrix(10,0,0,10,153.617,194.475)">
            <path d="M0.058,-0L0.058,-0.72L0.723,-0.72L0.723,-0.564L0.215,-0.564L0.215,-0.438L0.624,-0.438L0.624,-0.282L0.215,-0.282L0.215,-0.156L0.723,-0.156L0.723,-0L0.058,-0Z" style="fill-rule:nonzero;"/>
        </g>
        <g transform="matrix(10,0,0,10,161.277,194.475)">
            <path d="M0.052,-0L0.052,-0.58L0.205,-0.58L0.205,-0L0.052,-0ZM0.052,-0.616L0.052,-0.77L0.205,-0.77L0.205,-0.616L0.052,-0.616Z" style="fill-rule:nonzero;"/>
        </g>
        <g transform="matrix(10,0,0,10,163.207,194.475)">
            <path d="M0.054,-0L0.054,-0.58L0.497,-0.58C0.524,-0.58 0.548,-0.573 0.57,-0.56C0.592,-0.547 0.61,-0.529 0.623,-0.507C0.636,-0.485 0.642,-0.461 0.642,-0.435L0.642,-0L0.489,-0L0.489,-0.427L0.207,-0.427L0.207,-0L0.054,-0Z" style="fill-rule:nonzero;"/>
        </g>
        <g transform="matrix(10,0,0,10,170.167,194.475)">
            <path d="M0.197,-0C0.171,-0 0.147,-0.007 0.125,-0.02C0.103,-0.033 0.085,-0.051 0.072,-0.073C0.059,-0.095 0.052,-0.119 0.052,-0.145L0.052,-0.771L0.206,-0.771L0.206,-0.153L0.323,-0.153L0.323,-0L0.197,-0Z" style="fill-rule:nonzero;"/>
        </g>
        <g transform="matrix(10,0,0,10,173.087,194.475)">
            <path d="M0.197,-0C0.171,-0 0.146,-0.007 0.124,-0.02C0.102,-0.033 0.085,-0.051 0.072,-0.073C0.059,-0.095 0.052,-0.119 0.052,-0.145L0.052,-0.367L0.487,-0.367L0.487,-0.427L0.052,-0.427L0.052,-0.58L0.495,-0.58C0.522,-0.58 0.546,-0.573 0.568,-0.56C0.59,-0.547 0.607,-0.529 0.62,-0.507C0.633,-0.485 0.64,-0.461 0.64,-0.435L0.64,-0L0.197,-0ZM0.205,-0.153L0.487,-0.153L0.487,-0.233L0.205,-0.233L0.205,-0.153Z" style="fill-rule:nonzero;"/>
        </g>
        <g transform="matrix(10,0,0,10,179.827,194.475)">
            <path d="M0.193,-0C0.167,-0 0.143,-0.007 0.121,-0.02C0.099,-0.033 0.081,-0.051 0.068,-0.073C0.055,-0.095 0.048,-0.119 0.048,-0.145L0.048,-0.174L0.201,-0.174L0.201,-0.153L0.483,-0.153L0.483,-0.213L0.193,-0.213C0.167,-0.213 0.143,-0.22 0.121,-0.233C0.099,-0.246 0.081,-0.264 0.068,-0.286C0.055,-0.308 0.048,-0.332 0.048,-0.358L0.048,-0.435C0.048,-0.461 0.055,-0.485 0.068,-0.507C0.081,-0.529 0.099,-0.547 0.121,-0.56C0.143,-0.573 0.167,-0.58 0.193,-0.58L0.491,-0.58C0.518,-0.58 0.542,-0.573 0.564,-0.56C0.586,-0.547 0.604,-0.529 0.617,-0.507C0.63,-0.485 0.637,-0.461 0.637,-0.435L0.637,-0.406L0.483,-0.406L0.483,-0.427L0.201,-0.427L0.201,-0.367L0.491,-0.367C0.518,-0.367 0.542,-0.36 0.564,-0.347C0.586,-0.334 0.604,-0.316 0.617,-0.294C0.63,-0.272 0.637,-0.248 0.637,-0.222L0.637,-0.145C0.637,-0.119 0.63,-0.095 0.617,-0.073C0.604,-0.051 0.586,-0.033 0.564,-0.02C0.542,-0.007 0.518,-0 0.491,-0L0.193,-0Z" style="fill-rule:nonzero;"/>
        </g>
        <g transform="matrix(10,0,0,10,186.687,194.475)">
            <path d="M0.193,-0C0.167,-0 0.143,-0.007 0.121,-0.02C0.099,-0.033 0.081,-0.051 0.068,-0.073C0.055,-0.095 0.048,-0.119 0.048,-0.145L0.048,-0.174L0.201,-0.174L0.201,-0.153L0.483,-0.153L0.483,-0.213L0.193,-0.213C0.167,-0.213 0.143,-0.22 0.121,-0.233C0.099,-0.246 0.081,-0.264 0.068,-0.286C0.055,-0.308 0.048,-0.332 0.048,-0.358L0.048,-0.435C0.048,-0.461 0.055,-0.485 0.068,-0.507C0.081,-0.529 0.099,-0.547 0.121,-0.56C0.143,-0.573 0.167,-0.58 0.193,-0.58L0.491,-0.58C0.518,-0.58 0.542,-0.573 0.564,-0.56C0.586,-0.547 0.604,-0.529 0.617,-0.507C0.63,-0.485 0.637,-0.461 0.637,-0.435L0.637,-0.406L0.483,-0.406L0.483,-0.427L0.201,-0.427L0.201,-0.367L0.491,-0.367C0.518,-0.367 0.542,-0.36 0.564,-0.347C0.586,-0.334 0.604,-0.316 0.617,-0.294C0.63,-0.272 0.637,-0.248 0.637,-0.222L0.637,-0.145C0.637,-0.119 0.63,-0.095 0.617,-0.073C0.604,-0.051 0.586,-0.033 0.564,-0.02C0.542,-0.007 0.518,-0 0.491,-0L0.193,-0Z" style="fill-rule:nonzero;"/>
        </g>
        <g transform="matrix(7,0,0,7,156.1,201.475)">
            <path d="M0.198,-0C0.172,-0 0.148,-0.007 0.126,-0.02C0.104,-0.033 0.086,-0.05 0.073,-0.072C0.06,-0.093 0.053,-0.118 0.053,-0.145L0.053,-0.33C0.053,-0.345 0.057,-0.36 0.064,-0.376C0.071,-0.392 0.082,-0.405 0.096,-0.414C0.091,-0.425 0.089,-0.443 0.089,-0.467L0.089,-0.574C0.089,-0.601 0.096,-0.626 0.109,-0.648C0.122,-0.67 0.14,-0.687 0.162,-0.7C0.184,-0.713 0.208,-0.719 0.234,-0.719L0.587,-0.719C0.61,-0.719 0.632,-0.714 0.653,-0.704C0.674,-0.693 0.691,-0.679 0.705,-0.661C0.719,-0.643 0.728,-0.623 0.732,-0.6L0.732,-0.512L0.579,-0.512L0.579,-0.565L0.242,-0.565L0.242,-0.457L0.606,-0.274L0.606,-0.369L0.759,-0.369L0.759,-0.208L0.874,-0.14L0.874,0.018L0.734,-0.062C0.72,-0.043 0.702,-0.028 0.681,-0.017C0.66,-0.006 0.637,-0 0.614,-0L0.198,-0ZM0.206,-0.153L0.534,-0.153L0.223,-0.31L0.208,-0.318C0.207,-0.318 0.206,-0.315 0.206,-0.31L0.206,-0.153Z" style="fill-rule:nonzero;"/>
        </g>
        <g transform="matrix(7,0,0,7,162.666,201.475)">
            <path d="M0.452,-0L0.035,-0.72L0.215,-0.72L0.517,-0.197L0.819,-0.72L0.998,-0.72L0.581,-0L0.452,-0Z" style="fill-rule:nonzero;"/>
        </g>
        <g transform="matrix(7,0,0,7,169.687,201.475)">
            <path d="M0.196,-0C0.17,-0 0.146,-0.007 0.124,-0.02C0.102,-0.033 0.084,-0.051 0.071,-0.073C0.058,-0.095 0.051,-0.119 0.051,-0.145L0.051,-0.435C0.051,-0.461 0.058,-0.485 0.071,-0.507C0.084,-0.529 0.102,-0.547 0.124,-0.56C0.146,-0.573 0.17,-0.58 0.196,-0.58L0.494,-0.58C0.521,-0.58 0.545,-0.573 0.567,-0.56C0.589,-0.547 0.606,-0.529 0.619,-0.507C0.632,-0.485 0.639,-0.461 0.639,-0.435L0.639,-0.213L0.204,-0.213L0.204,-0.153L0.639,-0.153L0.639,-0L0.196,-0ZM0.204,-0.347L0.486,-0.347L0.486,-0.427L0.204,-0.427L0.204,-0.347Z" style="fill-rule:nonzero;"/>
        </g>
        <g transform="matrix(7,0,0,7,174.496,201.475)">
            <path d="M0.052,-0L0.052,-0.435C0.052,-0.461 0.059,-0.485 0.072,-0.507C0.085,-0.529 0.103,-0.547 0.125,-0.56C0.147,-0.573 0.171,-0.58 0.198,-0.58L0.518,-0.58L0.518,-0.427L0.205,-0.427L0.205,-0L0.052,-0Z" style="fill-rule:nonzero;"/>
        </g>
        <g transform="matrix(7,0,0,7,178.08,201.475)">
            <path d="M0.197,-0C0.171,-0 0.147,-0.007 0.125,-0.02C0.103,-0.033 0.085,-0.051 0.072,-0.073C0.059,-0.095 0.052,-0.119 0.052,-0.145L0.052,-0.771L0.206,-0.771L0.206,-0.153L0.323,-0.153L0.323,-0L0.197,-0Z" style="fill-rule:nonzero;"/>
        </g>
        <g transform="matrix(7,0,0,7,180.089,201.475)">
            <path d="M0.196,-0C0.17,-0 0.146,-0.007 0.124,-0.02C0.102,-0.033 0.084,-0.051 0.071,-0.073C0.058,-0.095 0.051,-0.119 0.051,-0.145L0.051,-0.435C0.051,-0.461 0.058,-0.485 0.071,-0.507C0.084,-0.529 0.102,-0.547 0.124,-0.56C0.146,-0.573 0.17,-0.58 0.196,-0.58L0.494,-0.58C0.521,-0.58 0.545,-0.573 0.567,-0.56C0.589,-0.547 0.606,-0.529 0.619,-0.507C0.632,-0.485 0.639,-0.461 0.639,-0.435L0.639,-0.213L0.204,-0.213L0.204,-0.153L0.639,-0.153L0.639,-0L0.196,-0ZM0.204,-0.347L0.486,-0.347L0.486,-0.427L0.204,-0.427L0.204,-0.347Z" style="fill-rule:nonzero;"/>
        </g>
        <g transform="matrix(7,0,0,7,184.933,201.475)">
            <path d="M0.052,-0L0.052,-0.58L0.205,-0.58L0.205,-0L0.052,-0ZM0.052,-0.616L0.052,-0.77L0.205,-0.77L0.205,-0.616L0.052,-0.616Z" style="fill-rule:nonzero;"/>
        </g>
        <g transform="matrix(7,0,0,7,186.389,201.475)">
            <path d="M0.054,-0L0.054,-0.77L0.207,-0.77L0.207,-0.58L0.497,-0.58C0.523,-0.58 0.547,-0.573 0.569,-0.56C0.591,-0.547 0.609,-0.529 0.622,-0.507C0.635,-0.485 0.642,-0.461 0.642,-0.435L0.642,-0L0.489,-0L0.489,-0.427L0.207,-0.427L0.207,-0L0.054,-0Z" style="fill-rule:nonzero;"/>
        </g>
    </g>
    <g transform="matrix(1.22465e-16,-1,1,1.22465e-16,380.601,313.184)">
        <g transform="matrix(14,0,0,14,140.563,194.475)">
            <path d="M0.057,-0L0.057,-0.72L0.213,-0.72L0.213,-0.438L0.354,-0.438L0.59,-0.72L0.752,-0.72L0.752,-0.666L0.495,-0.36L0.752,-0.054L0.752,-0L0.59,-0L0.354,-0.282L0.213,-0.282L0.213,-0L0.057,-0Z" style="fill-rule:nonzero;"/>
        </g>
        <g transform="matrix(14,0,0,14,151.721,194.475)">
            <path d="M0.197,-0C0.171,-0 0.146,-0.007 0.124,-0.02C0.102,-0.033 0.085,-0.051 0.072,-0.073C0.059,-0.095 0.052,-0.119 0.052,-0.145L0.052,-0.367L0.487,-0.367L0.487,-0.427L0.052,-0.427L0.052,-0.58L0.495,-0.58C0.522,-0.58 0.546,-0.573 0.568,-0.56C0.59,-0.547 0.607,-0.529 0.62,-0.507C0.633,-0.485 0.64,-0.461 0.64,-0.435L0.64,-0L0.197,-0ZM0.205,-0.153L0.487,-0.153L0.487,-0.233L0.205,-0.233L0.205,-0.153Z" style="fill-rule:nonzero;"/>
        </g>
        <g transform="matrix(14,0,0,14,161.367,194.475)">
            <path d="M0.052,-0L0.052,-0.435C0.052,-0.461 0.059,-0.485 0.072,-0.507C0.085,-0.529 0.103,-0.547 0.125,-0.56C0.147,-0.573 0.171,-0.58 0.198,-0.58L0.518,-0.58L0.518,-0.427L0.205,-0.427L0.205,-0L0.052,-0Z" style="fill-rule:nonzero;"/>
        </g>
        <g transform="matrix(14,0,0,14,168.535,194.475)">
            <path d="M0.197,-0C0.171,-0 0.146,-0.007 0.124,-0.02C0.102,-0.033 0.085,-0.051 0.072,-0.073C0.059,-0.095 0.052,-0.119 0.052,-0.145L0.052,-0.367L0.487,-0.367L0.487,-0.427L0.052,-0.427L0.052,-0.58L0.495,-0.58C0.522,-0.58 0.546,-0.573 0.568,-0.56C0.59,-0.547 0.607,-0.529 0.62,-0.507C0.633,-0.485 0.64,-0.461 0.64,-0.435L0.64,-0L0.197,-0ZM0.205,-0.153L0.487,-0.153L0.487,-0.233L0.205,-0.233L0.205,-0.153Z" style="fill-rule:nonzero;"/>
        </g>
        <g transform="matrix(14,0,0,14,178.251,194.475)">
            <path d="M0.196,-0C0.17,-0 0.146,-0.007 0.124,-0.02C0.102,-0.033 0.084,-0.051 0.071,-0.073C0.058,-0.095 0.051,-0.119 0.051,-0.145L0.051,-0.435C0.051,-0.461 0.058,-0.485 0.071,-0.507C0.084,-0.529 0.102,-0.547 0.124,-0.56C0.146,-0.573 0.17,-0.58 0.196,-0.58L0.494,-0.58C0.521,-0.58 0.545,-0.573 0.567,-0.56C0.589,-0.547 0.606,-0.529 0.619,-0.507C0.632,-0.485 0.639,-0.461 0.639,-0.435L0.639,-0.145C0.639,-0.119 0.632,-0.095 0.62,-0.073C0.607,-0.051 0.589,-0.033 0.567,-0.02C0.545,-0.007 0.521,-0 0.494,-0L0.196,-0ZM0.204,-0.153L0.486,-0.153L0.486,-0.427L0.204,-0.427L0.204,-0.153Z" style="fill-rule:nonzero;"/>
        </g>
        <g transform="matrix(14,0,0,14,187.939,194.475)">
            <path d="M0.054,-0L0.054,-0.77L0.207,-0.77L0.207,-0.367L0.285,-0.367L0.482,-0.58L0.636,-0.58L0.636,-0.528L0.42,-0.29L0.636,-0.052L0.636,-0L0.482,-0L0.285,-0.213L0.207,-0.213L0.207,-0L0.054,-0Z" style="fill-rule:nonzero;"/>
        </g>
        <g transform="matrix(14,0,0,14,196.913,194.475)">
            <path d="M0.196,-0C0.17,-0 0.146,-0.007 0.124,-0.02C0.102,-0.033 0.084,-0.051 0.071,-0.073C0.058,-0.095 0.051,-0.119 0.051,-0.145L0.051,-0.435C0.051,-0.461 0.058,-0.485 0.071,-0.507C0.084,-0.529 0.102,-0.547 0.124,-0.56C0.146,-0.573 0.17,-0.58 0.196,-0.58L0.494,-0.58C0.521,-0.58 0.545,-0.573 0.567,-0.56C0.589,-0.547 0.606,-0.529 0.619,-0.507C0.632,-0.485 0.639,-0.461 0.639,-0.435L0.639,-0.213L0.204,-0.213L0.204,-0.153L0.639,-0.153L0.639,-0L0.196,-0ZM0.204,-0.347L0.486,-0.347L0.486,-0.427L0.204,-0.427L0.204,-0.347Z" style="fill-rule:nonzero;"/>
        </g>
    </g>
    <g transform="matrix(1,0,0,1,181.574,46.9154)">
        <g transform="matrix(10,0,0,10,155.906,67.2846)">
            <path d="M0.297,-0L0.035,-0.72L0.2,-0.72L0.357,-0.291L0.514,-0.72L0.657,-0.72L0.815,-0.291L0.972,-0.72L1.136,-0.72L0.874,-0L0.755,-0L0.585,-0.463L0.416,-0L0.297,-0Z" style="fill:white;fill-rule:nonzero;"/>
        </g>
        <g transform="matrix(10,0,0,10,167.696,67.2846)">
            <path d="M0.204,-0C0.177,-0 0.152,-0.007 0.13,-0.02C0.107,-0.033 0.089,-0.051 0.076,-0.074C0.063,-0.096 0.056,-0.121 0.056,-0.148L0.056,-0.572C0.056,-0.599 0.063,-0.624 0.076,-0.647C0.089,-0.669 0.107,-0.687 0.13,-0.7C0.152,-0.713 0.177,-0.72 0.204,-0.72L0.774,-0.72L0.774,-0.564L0.244,-0.564C0.233,-0.564 0.225,-0.561 0.22,-0.556C0.214,-0.551 0.211,-0.542 0.211,-0.531L0.211,-0.189C0.211,-0.178 0.214,-0.17 0.22,-0.165C0.225,-0.159 0.233,-0.156 0.244,-0.156L0.774,-0.156L0.774,-0L0.204,-0Z" style="fill:white;fill-rule:nonzero;"/>
        </g>
        <g transform="matrix(10,0,0,10,146.161,77.2846)">
            <path d="M0.057,-0L0.057,-0.72L0.212,-0.72L0.212,-0.438L0.637,-0.438L0.637,-0.72L0.792,-0.72L0.792,-0L0.637,-0L0.637,-0.282L0.212,-0.282L0.212,-0L0.057,-0Z" style="fill:white;fill-rule:nonzero;"/>
        </g>
        <g transform="matrix(10,0,0,10,154.671,77.2846)">
            <path d="M0.196,-0C0.17,-0 0.146,-0.007 0.124,-0.02C0.102,-0.033 0.084,-0.051 0.071,-0.073C0.058,-0.095 0.051,-0.119 0.051,-0.145L0.051,-0.435C0.051,-0.461 0.058,-0.485 0.071,-0.507C0.084,-0.529 0.102,-0.547 0.124,-0.56C0.146,-0.573 0.17,-0.58 0.196,-0.58L0.494,-0.58C0.521,-0.58 0.545,-0.573 0.567,-0.56C0.589,-0.547 0.606,-0.529 0.619,-0.507C0.632,-0.485 0.639,-0.461 0.639,-0.435L0.639,-0.213L0.204,-0.213L0.204,-0.153L0.639,-0.153L0.639,-0L0.196,-0ZM0.204,-0.347L0.486,-0.347L0.486,-0.427L0.204,-0.427L0.204,-0.347Z" style="fill:white;fill-rule:nonzero;"/>
        </g>
        <g transform="matrix(10,0,0,10,161.541,77.2846)">
            <path d="M0.052,-0L0.052,-0.435C0.052,-0.461 0.059,-0.485 0.072,-0.507C0.085,-0.529 0.103,-0.547 0.125,-0.56C0.147,-0.573 0.171,-0.58 0.198,-0.58L0.518,-0.58L0.518,-0.427L0.205,-0.427L0.205,-0L0.052,-0Z" style="fill:white;fill-rule:nonzero;"/>
        </g>
        <g transform="matrix(10,0,0,10,166.661,77.2846)">
            <path d="M0.052,-0L0.052,-0.435C0.052,-0.461 0.059,-0.485 0.072,-0.507C0.085,-0.529 0.103,-0.547 0.125,-0.56C0.147,-0.573 0.171,-0.58 0.198,-0.58L0.518,-0.58L0.518,-0.427L0.205,-0.427L0.205,-0L0.052,-0Z" style="fill:white;fill-rule:nonzero;"/>
        </g>
        <g transform="matrix(10,0,0,10,171.781,77.2846)">
            <path d="M0.196,-0C0.17,-0 0.146,-0.007 0.124,-0.02C0.102,-0.033 0.084,-0.051 0.071,-0.073C0.058,-0.095 0.051,-0.119 0.051,-0.145L0.051,-0.435C0.051,-0.461 0.058,-0.485 0.071,-0.507C0.084,-0.529 0.102,-0.547 0.124,-0.56C0.146,-0.573 0.17,-0.58 0.196,-0.58L0.494,-0.58C0.521,-0.58 0.545,-0.573 0.567,-0.56C0.589,-0.547 0.606,-0.529 0.619,-0.507C0.632,-0.485 0.639,-0.461 0.639,-0.435L0.639,-0.213L0.204,-0.213L0.204,-0.153L0.639,-0.153L0.639,-0L0.196,-0ZM0.204,-0.347L0.486,-0.347L0.486,-0.427L0.204,-0.427L0.204,-0.347Z" style="fill:white;fill-rule:nonzero;"/>
        </g>
        <g transform="matrix(10,0,0,10,178.701,77.2846)">
            <path d="M0.054,-0L0.054,-0.58L0.497,-0.58C0.524,-0.58 0.548,-0.573 0.57,-0.56C0.592,-0.547 0.61,-0.529 0.623,-0.507C0.636,-0.485 0.642,-0.461 0.642,-0.435L0.642,-0L0.489,-0L0.489,-0.427L0.207,-0.427L0.207,-0L0.054,-0Z" style="fill:white;fill-rule:nonzero;"/>
        </g>
        <g transform="matrix(10,0,0,10,142.526,87.2846)">
            <path d="M0.197,-0C0.171,-0 0.146,-0.007 0.124,-0.02C0.102,-0.033 0.085,-0.051 0.072,-0.073C0.059,-0.095 0.052,-0.119 0.052,-0.145L0.052,-0.575C0.052,-0.602 0.059,-0.626 0.072,-0.648C0.085,-0.67 0.102,-0.687 0.124,-0.7C0.146,-0.713 0.17,-0.72 0.197,-0.72L0.263,-0.72L0.263,-0.567L0.205,-0.567L0.205,-0.153L0.263,-0.153L0.263,-0L0.197,-0Z" style="fill:white;fill-rule:nonzero;"/>
        </g>
        <g transform="matrix(10,0,0,10,145.296,87.2846)">
            <path d="M0.237,-0L0.237,-0.487L0.204,-0.446L0.001,-0.446L0.231,-0.72L0.39,-0.72L0.39,-0L0.237,-0Z" style="fill:white;fill-rule:nonzero;"/>
        </g>
        <g transform="matrix(10,0,0,10,149.206,87.2846)">
            <rect x="0.054" y="-0.153" width="0.153" height="0.153" style="fill:white;fill-rule:nonzero;"/>
        </g>
        <g transform="matrix(10,0,0,10,154.066,87.2846)">
            <path d="M0.202,-0C0.175,-0 0.15,-0.007 0.128,-0.02C0.105,-0.033 0.087,-0.051 0.074,-0.074C0.061,-0.096 0.054,-0.121 0.054,-0.148L0.054,-0.215L0.209,-0.215L0.209,-0.156L0.617,-0.156L0.617,-0.282L0.202,-0.282C0.175,-0.282 0.15,-0.289 0.128,-0.302C0.105,-0.315 0.087,-0.333 0.074,-0.356C0.061,-0.378 0.054,-0.403 0.054,-0.43L0.054,-0.572C0.054,-0.599 0.061,-0.624 0.074,-0.646C0.087,-0.669 0.105,-0.687 0.128,-0.7C0.15,-0.713 0.175,-0.72 0.202,-0.72L0.626,-0.72C0.653,-0.72 0.677,-0.713 0.7,-0.7C0.722,-0.687 0.74,-0.669 0.754,-0.646C0.767,-0.624 0.774,-0.599 0.774,-0.572L0.774,-0.505L0.617,-0.505L0.617,-0.564L0.209,-0.564L0.209,-0.438L0.626,-0.438C0.653,-0.438 0.677,-0.431 0.7,-0.418C0.722,-0.405 0.74,-0.387 0.754,-0.364C0.767,-0.342 0.774,-0.317 0.774,-0.29L0.774,-0.148C0.774,-0.121 0.767,-0.096 0.754,-0.074C0.74,-0.051 0.722,-0.033 0.7,-0.02C0.677,-0.007 0.653,-0 0.626,-0L0.202,-0Z" style="fill:white;fill-rule:nonzero;"/>
        </g>
        <g transform="matrix(10,0,0,10,162.286,87.2846)">
            <path d="M0.199,-0C0.172,-0 0.148,-0.007 0.126,-0.02C0.104,-0.033 0.086,-0.051 0.073,-0.073C0.06,-0.095 0.053,-0.119 0.053,-0.145L0.053,-0.752L0.206,-0.752L0.206,-0.58L0.421,-0.58L0.421,-0.427L0.206,-0.427L0.206,-0.153L0.421,-0.153L0.421,-0L0.199,-0Z" style="fill:white;fill-rule:nonzero;"/>
        </g>
        <g transform="matrix(10,0,0,10,166.386,87.2846)">
            <path d="M0.196,-0C0.17,-0 0.146,-0.007 0.124,-0.02C0.102,-0.033 0.084,-0.051 0.071,-0.073C0.058,-0.095 0.051,-0.119 0.051,-0.145L0.051,-0.435C0.051,-0.461 0.058,-0.485 0.071,-0.507C0.084,-0.529 0.102,-0.547 0.124,-0.56C0.146,-0.573 0.17,-0.58 0.196,-0.58L0.494,-0.58C0.521,-0.58 0.545,-0.573 0.567,-0.56C0.589,-0.547 0.606,-0.529 0.619,-0.507C0.632,-0.485 0.639,-0.461 0.639,-0.435L0.639,-0.145C0.639,-0.119 0.632,-0.095 0.62,-0.073C0.607,-0.051 0.589,-0.033 0.567,-0.02C0.545,-0.007 0.521,-0 0.494,-0L0.196,-0ZM0.204,-0.153L0.486,-0.153L0.486,-0.427L0.204,-0.427L0.204,-0.153Z" style="fill:white;fill-rule:nonzero;"/>
        </g>
        <g transform="matrix(10,0,0,10,173.306,87.2846)">
            <path d="M0.196,-0C0.17,-0 0.146,-0.007 0.124,-0.02C0.102,-0.033 0.084,-0.051 0.071,-0.073C0.058,-0.095 0.051,-0.119 0.051,-0.145L0.051,-0.435C0.051,-0.461 0.058,-0.485 0.071,-0.507C0.084,-0.529 0.102,-0.547 0.124,-0.56C0.146,-0.573 0.17,-0.58 0.196,-0.58L0.638,-0.58L0.638,-0.427L0.204,-0.427L0.204,-0.153L0.639,-0.153L0.639,-0L0.196,-0Z" style="fill:white;fill-rule:nonzero;"/>
        </g>
        <g transform="matrix(10,0,0,10,180.056,87.2846)">
            <path d="M0.054,-0L0.054,-0.77L0.207,-0.77L0.207,-0.367L0.285,-0.367L0.482,-0.58L0.636,-0.58L0.636,-0.528L0.42,-0.29L0.636,-0.052L0.636,-0L0.482,-0L0.285,-0.213L0.207,-0.213L0.207,-0L0.054,-0Z" style="fill:white;fill-rule:nonzero;"/>
        </g>
        <g transform="matrix(10,0,0,10,186.516,87.2846)">
            <path d="M0.056,-0L0.056,-0.153L0.114,-0.153L0.114,-0.567L0.056,-0.567L0.056,-0.72L0.123,-0.72C0.149,-0.72 0.173,-0.713 0.195,-0.701C0.217,-0.688 0.235,-0.67 0.248,-0.648C0.261,-0.626 0.268,-0.602 0.268,-0.575L0.268,-0.145C0.268,-0.119 0.261,-0.095 0.248,-0.073C0.235,-0.051 0.217,-0.033 0.195,-0.02C0.173,-0.007 0.149,-0 0.123,-0L0.056,-0Z" style="fill:white;fill-rule:nonzero;"/>
        </g>
    </g>
    <g transform="matrix(1,0,0,1,181.574,92.6554)">
        <g transform="matrix(10,0,0,10,155.906,67.2846)">
            <path d="M0.297,-0L0.035,-0.72L0.2,-0.72L0.357,-0.291L0.514,-0.72L0.657,-0.72L0.815,-0.291L0.972,-0.72L1.136,-0.72L0.874,-0L0.755,-0L0.585,-0.463L0.416,-0L0.297,-0Z" style="fill:white;fill-rule:nonzero;"/>
        </g>
        <g transform="matrix(10,0,0,10,167.696,67.2846)">
            <path d="M0.204,-0C0.177,-0 0.152,-0.007 0.13,-0.02C0.107,-0.033 0.089,-0.051 0.076,-0.074C0.063,-0.096 0.056,-0.121 0.056,-0.148L0.056,-0.572C0.056,-0.599 0.063,-0.624 0.076,-0.647C0.089,-0.669 0.107,-0.687 0.13,-0.7C0.152,-0.713 0.177,-0.72 0.204,-0.72L0.774,-0.72L0.774,-0.564L0.244,-0.564C0.233,-0.564 0.225,-0.561 0.22,-0.556C0.214,-0.551 0.211,-0.542 0.211,-0.531L0.211,-0.189C0.211,-0.178 0.214,-0.17 0.22,-0.165C0.225,-0.159 0.233,-0.156 0.244,-0.156L0.774,-0.156L0.774,-0L0.204,-0Z" style="fill:white;fill-rule:nonzero;"/>
        </g>
        <g transform="matrix(10,0,0,10,145.926,77.2846)">
            <path d="M0.058,-0L0.058,-0.72L0.723,-0.72L0.723,-0.564L0.215,-0.564L0.215,-0.438L0.624,-0.438L0.624,-0.282L0.215,-0.282L0.215,-0L0.058,-0Z" style="fill:white;fill-rule:nonzero;"/>
        </g>
        <g transform="matrix(10,0,0,10,153.156,77.2846)">
            <path d="M0.052,-0L0.052,-0.435C0.052,-0.461 0.059,-0.485 0.072,-0.507C0.085,-0.529 0.103,-0.547 0.125,-0.56C0.147,-0.573 0.171,-0.58 0.198,-0.58L0.518,-0.58L0.518,-0.427L0.205,-0.427L0.205,-0L0.052,-0Z" style="fill:white;fill-rule:nonzero;"/>
        </g>
        <g transform="matrix(10,0,0,10,158.276,77.2846)">
            <path d="M0.197,-0C0.171,-0 0.146,-0.007 0.124,-0.02C0.102,-0.033 0.085,-0.051 0.072,-0.073C0.059,-0.095 0.052,-0.119 0.052,-0.145L0.052,-0.367L0.487,-0.367L0.487,-0.427L0.052,-0.427L0.052,-0.58L0.495,-0.58C0.522,-0.58 0.546,-0.573 0.568,-0.56C0.59,-0.547 0.607,-0.529 0.62,-0.507C0.633,-0.485 0.64,-0.461 0.64,-0.435L0.64,-0L0.197,-0ZM0.205,-0.153L0.487,-0.153L0.487,-0.233L0.205,-0.233L0.205,-0.153Z" style="fill:white;fill-rule:nonzero;"/>
        </g>
        <g transform="matrix(10,0,0,10,165.216,77.2846)">
            <path d="M0.198,-0C0.171,-0 0.147,-0.007 0.125,-0.02C0.103,-0.033 0.086,-0.051 0.073,-0.073C0.059,-0.095 0.053,-0.119 0.053,-0.145L0.053,-0.58L0.206,-0.58L0.206,-0.153L0.488,-0.153L0.488,-0.58L0.641,-0.58L0.641,-0.145C0.641,-0.119 0.635,-0.095 0.622,-0.073C0.608,-0.051 0.591,-0.033 0.569,-0.02C0.547,-0.007 0.523,-0 0.496,-0L0.198,-0Z" style="fill:white;fill-rule:nonzero;"/>
        </g>
        <g transform="matrix(10,0,0,10,172.016,77.2846)">
            <path d="M0.196,-0C0.17,-0 0.146,-0.007 0.124,-0.02C0.102,-0.033 0.084,-0.051 0.071,-0.073C0.058,-0.095 0.051,-0.119 0.051,-0.145L0.051,-0.435C0.051,-0.461 0.058,-0.485 0.071,-0.507C0.084,-0.529 0.102,-0.547 0.124,-0.56C0.146,-0.573 0.17,-0.58 0.196,-0.58L0.494,-0.58C0.521,-0.58 0.545,-0.573 0.567,-0.56C0.589,-0.547 0.606,-0.529 0.619,-0.507C0.632,-0.485 0.639,-0.461 0.639,-0.435L0.639,-0.213L0.204,-0.213L0.204,-0.153L0.639,-0.153L0.639,-0L0.196,-0ZM0.204,-0.347L0.486,-0.347L0.486,-0.427L0.204,-0.427L0.204,-0.347Z" style="fill:white;fill-rule:nonzero;"/>
        </g>
        <g transform="matrix(10,0,0,10,178.936,77.2846)">
            <path d="M0.054,-0L0.054,-0.58L0.497,-0.58C0.524,-0.58 0.548,-0.573 0.57,-0.56C0.592,-0.547 0.61,-0.529 0.623,-0.507C0.636,-0.485 0.642,-0.461 0.642,-0.435L0.642,-0L0.489,-0L0.489,-0.427L0.207,-0.427L0.207,-0L0.054,-0Z" style="fill:white;fill-rule:nonzero;"/>
        </g>
        <g transform="matrix(10,0,0,10,155.156,87.2846)">
            <path d="M0.197,-0C0.171,-0 0.146,-0.007 0.124,-0.02C0.102,-0.033 0.085,-0.051 0.072,-0.073C0.059,-0.095 0.052,-0.119 0.052,-0.145L0.052,-0.575C0.052,-0.602 0.059,-0.626 0.072,-0.648C0.085,-0.67 0.102,-0.687 0.124,-0.7C0.146,-0.713 0.17,-0.72 0.197,-0.72L0.263,-0.72L0.263,-0.567L0.205,-0.567L0.205,-0.153L0.263,-0.153L0.263,-0L0.197,-0Z" style="fill:white;fill-rule:nonzero;"/>
        </g>
        <g transform="matrix(10,0,0,10,157.926,87.2846)">
            <path d="M0.058,-0L0.058,-0.72L0.723,-0.72L0.723,-0.564L0.215,-0.564L0.215,-0.438L0.624,-0.438L0.624,-0.282L0.215,-0.282L0.215,-0.156L0.723,-0.156L0.723,-0L0.058,-0Z" style="fill:white;fill-rule:nonzero;"/>
        </g>
        <g transform="matrix(10,0,0,10,165.586,87.2846)">
            <path d="M0.204,-0C0.177,-0 0.152,-0.007 0.13,-0.02C0.107,-0.033 0.089,-0.051 0.076,-0.074C0.063,-0.096 0.056,-0.121 0.056,-0.148L0.056,-0.572C0.056,-0.599 0.063,-0.624 0.076,-0.646C0.089,-0.669 0.107,-0.687 0.13,-0.7C0.152,-0.713 0.177,-0.72 0.204,-0.72L0.627,-0.72C0.654,-0.72 0.679,-0.713 0.701,-0.7C0.724,-0.687 0.742,-0.669 0.756,-0.646C0.769,-0.624 0.776,-0.599 0.776,-0.572L0.776,-0.504L0.619,-0.504L0.619,-0.564L0.211,-0.564L0.211,-0.156L0.619,-0.156L0.619,-0.264L0.463,-0.264L0.463,-0.42L0.776,-0.42L0.776,-0.148C0.776,-0.121 0.769,-0.096 0.756,-0.074C0.742,-0.051 0.724,-0.033 0.701,-0.02C0.679,-0.007 0.654,-0 0.627,-0L0.204,-0Z" style="fill:white;fill-rule:nonzero;"/>
        </g>
        <g transform="matrix(10,0,0,10,173.886,87.2846)">
            <path d="M0.056,-0L0.056,-0.153L0.114,-0.153L0.114,-0.567L0.056,-0.567L0.056,-0.72L0.123,-0.72C0.149,-0.72 0.173,-0.713 0.195,-0.701C0.217,-0.688 0.235,-0.67 0.248,-0.648C0.261,-0.626 0.268,-0.602 0.268,-0.575L0.268,-0.145C0.268,-0.119 0.261,-0.095 0.248,-0.073C0.235,-0.051 0.217,-0.033 0.195,-0.02C0.173,-0.007 0.149,-0 0.123,-0L0.056,-0Z" style="fill:white;fill-rule:nonzero;"/>
        </g>
    </g>
    <g transform="matrix(1,0,0,1,-40.7776,-75.8952)">
        <g transform="matrix(8,0,0,8,153.474,194.475)">
            <path d="M0.058,-0L0.058,-0.72L0.629,-0.72C0.656,-0.72 0.681,-0.713 0.703,-0.7C0.726,-0.687 0.744,-0.669 0.758,-0.646C0.771,-0.624 0.778,-0.599 0.778,-0.572L0.778,-0.148C0.778,-0.121 0.771,-0.096 0.758,-0.074C0.744,-0.051 0.726,-0.033 0.703,-0.02C0.681,-0.007 0.656,-0 0.629,-0L0.058,-0ZM0.212,-0.156L0.621,-0.156L0.621,-0.564L0.212,-0.564L0.212,-0.156Z" style="fill-rule:nonzero;"/>
        </g>
        <g transform="matrix(8,0,0,8,160.146,194.475)">
            <path d="M0.052,-0L0.052,-0.435C0.052,-0.461 0.059,-0.485 0.072,-0.507C0.085,-0.529 0.103,-0.547 0.125,-0.56C0.147,-0.573 0.171,-0.58 0.198,-0.58L0.518,-0.58L0.518,-0.427L0.205,-0.427L0.205,-0L0.052,-0Z" style="fill-rule:nonzero;"/>
        </g>
        <g transform="matrix(8,0,0,8,164.242,194.475)">
            <path d="M0.052,-0L0.052,-0.58L0.205,-0.58L0.205,-0L0.052,-0ZM0.052,-0.616L0.052,-0.77L0.205,-0.77L0.205,-0.616L0.052,-0.616Z" style="fill-rule:nonzero;"/>
        </g>
        <g transform="matrix(8,0,0,8,165.786,194.475)">
            <path d="M0.054,-0L0.054,-0.58L0.497,-0.58C0.524,-0.58 0.548,-0.573 0.57,-0.56C0.592,-0.547 0.61,-0.529 0.623,-0.507C0.636,-0.485 0.642,-0.461 0.642,-0.435L0.642,-0L0.489,-0L0.489,-0.427L0.207,-0.427L0.207,-0L0.054,-0Z" style="fill-rule:nonzero;"/>
        </g>
        <g transform="matrix(8,0,0,8,171.354,194.475)">
            <path d="M0.054,-0L0.054,-0.77L0.207,-0.77L0.207,-0.367L0.285,-0.367L0.482,-0.58L0.636,-0.58L0.636,-0.528L0.42,-0.29L0.636,-0.052L0.636,-0L0.482,-0L0.285,-0.213L0.207,-0.213L0.207,-0L0.054,-0Z" style="fill-rule:nonzero;"/>
        </g>
        <g transform="matrix(8,0,0,8,176.522,194.475)">
            <path d="M0.193,-0C0.167,-0 0.143,-0.007 0.121,-0.02C0.099,-0.033 0.081,-0.051 0.068,-0.073C0.055,-0.095 0.048,-0.119 0.048,-0.145L0.048,-0.174L0.201,-0.174L0.201,-0.153L0.483,-0.153L0.483,-0.213L0.193,-0.213C0.167,-0.213 0.143,-0.22 0.121,-0.233C0.099,-0.246 0.081,-0.264 0.068,-0.286C0.055,-0.308 0.048,-0.332 0.048,-0.358L0.048,-0.435C0.048,-0.461 0.055,-0.485 0.068,-0.507C0.081,-0.529 0.099,-0.547 0.121,-0.56C0.143,-0.573 0.167,-0.58 0.193,-0.58L0.491,-0.58C0.518,-0.58 0.542,-0.573 0.564,-0.56C0.586,-0.547 0.604,-0.529 0.617,-0.507C0.63,-0.485 0.637,-0.461 0.637,-0.435L0.637,-0.406L0.483,-0.406L0.483,-0.427L0.201,-0.427L0.201,-0.367L0.491,-0.367C0.518,-0.367 0.542,-0.36 0.564,-0.347C0.586,-0.334 0.604,-0.316 0.617,-0.294C0.63,-0.272 0.637,-0.248 0.637,-0.222L0.637,-0.145C0.637,-0.119 0.63,-0.095 0.617,-0.073C0.604,-0.051 0.586,-0.033 0.564,-0.02C0.542,-0.007 0.518,-0 0.491,-0L0.193,-0Z" style="fill-rule:nonzero;"/>
        </g>
    </g>
    <g transform="matrix(1,0,0,1,-38,-42)">
        <path d="M281,45L761,45L761,355L684,355" style="fill:none;stroke:rgb(127,127,127);stroke-width:3px;stroke-linecap:square;stroke-linejoin:miter;stroke-dasharray:3,6,0,0;"/>
        <path d="M358,355L358,285" style="fill:none;stroke:white;stroke-width:3px;stroke-linecap:square;stroke-linejoin:miter;"/>
        <g transform="matrix(1,0,0,1,291,0)">
            <path d="M358,355L358,285" style="fill:none;stroke:white;stroke-width:3px;stroke-linecap:square;stroke-linejoin:miter;"/>
        </g>
        <path d="M413,259L358,259L358,140L281,140L281,45L41,45L41,355L684,355L684,140L586,140L586,259L433,259" style="fill:none;stroke:white;stroke-width:3px;stroke-linecap:square;stroke-linejoin:miter;"/>
        <path d="M149,149L149,252" style="fill:none;stroke:white;stroke-width:3px;stroke-linecap:square;stroke-linejoin:miter;"/>
        <path d="M358,140L586,140" style="fill:none;stroke:white;stroke-width:3px;stroke-linecap:square;stroke-linejoin:miter;"/>
        <path d="M413,140L413,164" style="fill:none;stroke:white;stroke-width:3px;stroke-linecap:square;stroke-linejoin:miter;"/>
        <path d="M433,193L433,259" style="fill:none;stroke:white;stroke-width:3px;stroke-linecap:square;stroke-linejoin:miter;"/>
        <path d="M433,176L475,176L475,259" style="fill:none;stroke:white;stroke-width:3px;stroke-linecap:square;stroke-linejoin:miter;"/>
        <g transform="matrix(0.772152,0,0,0.772152,94.1013,41.0127)">
            <path d="M413,180L413,259" style="fill:none;stroke:white;stroke-width:3.89px;stroke-linecap:square;stroke-linejoin:miter;"/>
        </g>
        <path d="M433,176L433,140" style="fill:none;stroke:white;stroke-width:3px;stroke-linecap:square;stroke-linejoin:miter;"/>
        <path d="M453,195L453,224" style="fill:none;stroke:white;stroke-width:3px;stroke-linecap:square;stroke-linejoin:miter;"/>
        <path d="M628,234L628,168L649,168L649,190" style="fill:none;stroke:white;stroke-width:3px;stroke-linecap:square;stroke-linejoin:miter;"/>
        <path d="M672,168L672,234L649,234L649,209.5" style="fill:none;stroke:white;stroke-width:3px;stroke-linecap:square;stroke-linejoin:miter;"/>
        <path d="M433,244L475,244" style="fill:none;stroke:white;stroke-width:3px;stroke-linecap:square;stroke-linejoin:miter;"/>
        <path d="M358,234L413,234" style="fill:none;stroke:white;stroke-width:3px;stroke-linecap:square;stroke-linejoin:miter;"/>
        <g transform="matrix(1,0,0,1,0,40)">
            <path d="M628,176L649,176" style="fill:none;stroke:white;stroke-width:3px;stroke-linecap:square;stroke-linejoin:miter;"/>
            <path d="M628,182L649,182" style="fill:none;stroke:white;stroke-width:3px;stroke-linecap:square;stroke-linejoin:miter;"/>
            <path d="M628,188L649,188" style="fill:none;stroke:white;stroke-width:3px;stroke-linecap:square;stroke-linejoin:miter;"/>
        </g>
        <g transform="matrix(1,0,0,1,21,-8)">
            <path d="M628,176L649,176" style="fill:none;stroke:white;stroke-width:3px;stroke-linecap:square;stroke-linejoin:miter;"/>
        </g>
        <g transform="matrix(0.952381,0,0,1,20.619,-7.10543e-15)">
            <g transform="matrix(1,0,0,1,-195,26)">
                <path d="M628,176L649,176" style="fill:none;stroke:white;stroke-width:3.07px;stroke-linecap:square;stroke-linejoin:miter;"/>
            </g>
            <g transform="matrix(1,0,0,1,-195,26)">
                <path d="M628,182L649,182" style="fill:none;stroke:white;stroke-width:3.07px;stroke-linecap:square;stroke-linejoin:miter;"/>
            </g>
            <g transform="matrix(1,0,0,1,-195,26)">
                <path d="M628,188L649,188" style="fill:none;stroke:white;stroke-width:3.07px;stroke-linecap:square;stroke-linejoin:miter;"/>
            </g>
            <g transform="matrix(1,0,0,1,-195,32)">
                <path d="M628,188L649,188" style="fill:none;stroke:white;stroke-width:3.07px;stroke-linecap:square;stroke-linejoin:miter;"/>
            </g>
        </g>
        <g transform="matrix(1,0,0,1,21,-2.5)">
            <g transform="matrix(1,0,0,1,-195,26)">
                <path d="M628,176L649,176" style="fill:none;stroke:white;stroke-width:3px;stroke-linecap:square;stroke-linejoin:miter;"/>
            </g>
            <g transform="matrix(1,0,0,1,-195,26)">
                <path d="M628,182L649,182" style="fill:none;stroke:white;stroke-width:3px;stroke-linecap:square;stroke-linejoin:miter;"/>
            </g>
            <g transform="matrix(1,0,0,1,-195,26)">
                <path d="M628,188L649,188" style="fill:none;stroke:white;stroke-width:3px;stroke-linecap:square;stroke-linejoin:miter;"/>
            </g>
            <g transform="matrix(1,0,0,1,-195,32)">
                <path d="M628,188L649,188" style="fill:none;stroke:white;stroke-width:3px;stroke-linecap:square;stroke-linejoin:miter;"/>
            </g>
        </g>
        <g transform="matrix(1,0,0,1,21,38)">
            <path d="M628,176L649,176" style="fill:none;stroke:white;stroke-width:3px;stroke-linecap:square;stroke-linejoin:miter;"/>
            <path d="M628,182L649,182" style="fill:none;stroke:white;stroke-width:3px;stroke-linecap:square;stroke-linejoin:miter;"/>
            <path d="M628,188L649,188" style="fill:none;stroke:white;stroke-width:3px;stroke-linecap:square;stroke-linejoin:miter;"/>
        </g>
        <g>
            <g transform="matrix(1.75,0,0,1.75,-118.75,-104.75)">
                <circle cx="153" cy="145" r="4" style="fill:white;"/>
            </g>
            <g transform="matrix(1.75,0,0,1.75,-118.75,-1.75)">
                <circle cx="153" cy="145" r="4" style="fill:white;"/>
            </g>
            <g transform="matrix(1.75,0,0,1.75,-11.75,-1.75)">
                <circle cx="153" cy="145" r="4" style="fill:white;"/>
            </g>
            <g transform="matrix(1.75,0,0,1.75,-11.75,-104.75)">
                <circle cx="153" cy="145" r="4" style="fill:white;"/>
            </g>
        </g>
        <path d="M256,149L256,252" style="fill:none;stroke:white;stroke-width:3px;stroke-linecap:square;stroke-linejoin:miter;"/>
    </g>
</svg>
