<?xml version="1.0" encoding="UTF-8" standalone="no"?><!DOCTYPE svg PUBLIC "-//W3C//DTD SVG 1.1//EN" "http://www.w3.org/Graphics/SVG/1.1/DTD/svg11.dtd"><svg width="100%" height="100%" viewBox="0 0 726 316" version="1.1" xmlns="http://www.w3.org/2000/svg" xmlns:xlink="http://www.w3.org/1999/xlink" xml:space="preserve" xmlns:serif="http://www.serif.com/" style="fill-rule:evenodd;clip-rule:evenodd;stroke-linecap:round;stroke-linejoin:round;stroke-miterlimit:1.5;"><rect x="-389" y="-266" width="1309" height="1071" style="stroke:#fff;stroke-width:1px;"/><rect x="3" y="100.5" width="53" height="115" style="fill:none;stroke:#fff;stroke-width:3px;stroke-linecap:square;stroke-linejoin:miter;"/><rect x="3" y="3" width="240" height="74.569" style="fill:#83a8f2;"/><rect x="3" y="243" width="317" height="70" style="fill:#83a8f2;"/><rect x="111" y="124" width="32" height="86" style="fill:#9330bb;"/><rect x="111" y="107" width="32" height="17" style="fill:#b9e891;"/><rect x="218" y="107" width="53" height="66" style="fill:#f9f497;"/><rect x="186" y="107" width="32" height="103" style="fill:#f9f497;"/><path d="M76.592,46.445l0,-11.504l9.136,-0c0.432,-0 0.828,0.106 1.188,0.32c0.36,0.213 0.649,0.501 0.868,0.864c0.219,0.362 0.328,0.757 0.328,1.184l0,2.976c0,0.426 -0.109,0.821 -0.328,1.184c-0.219,0.362 -0.508,0.65 -0.868,0.864c-0.36,0.213 -0.756,0.32 -1.188,0.32l-6.656,0.016l0,3.776l-2.48,-0Zm2.48,-6.288l6.528,-0l0,-2.736l-6.528,-0l0,2.736Z" style="fill-rule:nonzero;"/><path d="M91.616,46.445c-0.437,-0 -0.835,-0.107 -1.192,-0.32c-0.357,-0.214 -0.643,-0.499 -0.856,-0.856c-0.213,-0.358 -0.32,-0.755 -0.32,-1.192l0,-6.784c0,-0.438 0.107,-0.835 0.32,-1.192c0.213,-0.358 0.499,-0.643 0.856,-0.856c0.357,-0.214 0.755,-0.32 1.192,-0.32l9.12,-0l0,2.496l-8.48,-0c-0.171,-0 -0.301,0.042 -0.392,0.128c-0.091,0.085 -0.136,0.218 -0.136,0.4l0,5.472c0,0.17 0.045,0.301 0.136,0.392c0.091,0.09 0.221,0.136 0.392,0.136l8.48,-0l0,2.496l-9.12,-0Z" style="fill-rule:nonzero;"/><rect x="102.448" y="40.493" width="6.672" height="2.448" style="fill-rule:nonzero;"/><path d="M119.616,46.445l-3.344,-3.984l3.248,-0l2.656,3.136l0,0.848l-2.56,-0Zm-8.944,-0l0,-11.504l9.136,-0c0.432,-0 0.828,0.106 1.188,0.32c0.36,0.213 0.649,0.501 0.868,0.864c0.219,0.362 0.328,0.757 0.328,1.184l0,2.976c0,0.426 -0.109,0.821 -0.328,1.184c-0.219,0.362 -0.508,0.65 -0.868,0.864c-0.36,0.213 -0.756,0.32 -1.188,0.32l-6.656,0.016l0,3.776l-2.48,-0Zm2.48,-6.288l6.528,-0l0,-2.736l-6.528,-0l0,2.736Z" style="fill-rule:nonzero;"/><path d="M126.112,46.445c-0.42,-0 -0.805,-0.107 -1.155,-0.32c-0.35,-0.214 -0.632,-0.495 -0.845,-0.845c-0.213,-0.35 -0.32,-0.735 -0.32,-1.155l0,-4.64c0,-0.42 0.107,-0.805 0.32,-1.155c0.213,-0.35 0.495,-0.632 0.845,-0.845c0.35,-0.214 0.735,-0.32 1.155,-0.32l4.768,-0c0.431,-0 0.821,0.106 1.17,0.318c0.348,0.212 0.627,0.494 0.836,0.848c0.209,0.353 0.314,0.738 0.314,1.154l0,3.552l-6.96,-0l0,0.96l6.96,-0l0,2.448l-7.088,-0Zm0.128,-5.552l4.512,-0l0,-1.28l-4.512,-0l0,1.28Z" style="fill-rule:nonzero;"/><path d="M134.88,46.445l0,-9.28l2.448,-0l0,9.28l-2.448,-0Zm0,-9.856l0,-2.464l2.448,-0l0,2.464l-2.448,-0Z" style="fill-rule:nonzero;"/><path d="M138.24,46.445l0,-12.32l2.448,-0l0,3.04l4.64,-0c0.42,-0 0.805,0.106 1.155,0.32c0.35,0.213 0.632,0.495 0.845,0.845c0.213,0.35 0.32,0.735 0.32,1.155l0,6.96l-2.448,-0l0,-6.832l-4.512,-0l0,6.832l-2.448,-0Z" style="fill-rule:nonzero;"/><path d="M151.2,46.445c-0.42,-0 -0.805,-0.107 -1.155,-0.32c-0.35,-0.214 -0.632,-0.495 -0.845,-0.845c-0.213,-0.35 -0.32,-0.735 -0.32,-1.155l0,-4.64c0,-0.42 0.107,-0.805 0.32,-1.155c0.213,-0.35 0.495,-0.632 0.845,-0.845c0.35,-0.214 0.735,-0.32 1.155,-0.32l4.768,-0c0.431,-0 0.821,0.106 1.169,0.318c0.349,0.212 0.628,0.494 0.837,0.848c0.209,0.353 0.314,0.738 0.314,1.154l0,3.552l-6.96,-0l0,0.96l6.96,-0l0,2.448l-7.088,-0Zm0.128,-5.552l4.512,-0l0,-1.28l-4.512,-0l0,1.28Z" style="fill-rule:nonzero;"/><path d="M160,46.445l0,-9.28l7.088,-0c0.424,-0 0.813,0.106 1.166,0.32c0.353,0.213 0.634,0.495 0.842,0.845c0.208,0.35 0.312,0.735 0.312,1.155l0,6.96l-2.448,-0l0,-6.832l-4.512,-0l0,6.832l-2.448,-0Z" style="fill-rule:nonzero;"/><path d="M115.092,284.16l0,-11.504l9.136,-0c0.432,-0 0.828,0.107 1.188,0.32c0.36,0.213 0.649,0.501 0.868,0.864c0.219,0.363 0.328,0.757 0.328,1.184l0,2.976c0,0.427 -0.109,0.821 -0.328,1.184c-0.219,0.363 -0.508,0.651 -0.868,0.864c-0.36,0.213 -0.756,0.32 -1.188,0.32l-6.656,0.016l0,3.776l-2.48,-0Zm2.48,-6.288l6.528,-0l0,-2.736l-6.528,-0l0,2.736Z" style="fill-rule:nonzero;"/><path d="M130.116,284.16c-0.437,-0 -0.835,-0.107 -1.192,-0.32c-0.357,-0.213 -0.643,-0.499 -0.856,-0.856c-0.213,-0.357 -0.32,-0.755 -0.32,-1.192l0,-6.784c0,-0.437 0.107,-0.835 0.32,-1.192c0.213,-0.357 0.499,-0.643 0.856,-0.856c0.357,-0.213 0.755,-0.32 1.192,-0.32l9.12,-0l0,2.496l-8.48,-0c-0.171,-0 -0.301,0.043 -0.392,0.128c-0.091,0.085 -0.136,0.219 -0.136,0.4l0,5.472c0,0.171 0.045,0.301 0.136,0.392c0.091,0.091 0.221,0.136 0.392,0.136l8.48,0l0,2.496l-9.12,0Z" style="fill-rule:nonzero;"/><rect x="140.948" y="278.208" width="6.672" height="2.448" style="fill-rule:nonzero;"/><path d="M158.116,284.16l-3.344,-3.984l3.248,-0l2.656,3.136l0,0.848l-2.56,-0Zm-8.944,-0l-0,-11.504l9.136,-0c0.432,-0 0.828,0.107 1.188,0.32c0.36,0.213 0.649,0.501 0.868,0.864c0.219,0.363 0.328,0.757 0.328,1.184l0,2.976c0,0.427 -0.109,0.821 -0.328,1.184c-0.219,0.363 -0.508,0.651 -0.868,0.864c-0.36,0.213 -0.756,0.32 -1.188,0.32l-6.656,0.016l0,3.776l-2.48,-0Zm2.48,-6.288l6.528,-0l0,-2.736l-6.528,-0l0,2.736Z" style="fill-rule:nonzero;"/><path d="M164.612,284.16c-0.42,-0 -0.805,-0.107 -1.155,-0.32c-0.35,-0.213 -0.632,-0.495 -0.845,-0.845c-0.213,-0.35 -0.32,-0.735 -0.32,-1.155l0,-4.64c0,-0.42 0.107,-0.805 0.32,-1.155c0.213,-0.35 0.495,-0.632 0.845,-0.845c0.35,-0.213 0.735,-0.32 1.155,-0.32l4.768,-0c0.431,-0 0.821,0.106 1.169,0.318c0.349,0.212 0.628,0.495 0.837,0.848c0.209,0.353 0.314,0.738 0.314,1.154l0,3.552l-6.96,-0l0,0.96l6.96,-0l0,2.448l-7.088,-0Zm0.128,-5.552l4.512,-0l0,-1.28l-4.512,-0l0,1.28Z" style="fill-rule:nonzero;"/><path d="M173.38,284.16l0,-9.28l2.448,-0l0,9.28l-2.448,-0Zm0,-9.856l0,-2.464l2.448,-0l0,2.464l-2.448,-0Z" style="fill-rule:nonzero;"/><path d="M176.74,284.16l0,-12.32l2.448,-0l0,3.04l4.64,-0c0.42,-0 0.805,0.107 1.155,0.32c0.35,0.213 0.632,0.495 0.845,0.845c0.213,0.35 0.32,0.735 0.32,1.155l0,6.96l-2.448,-0l0,-6.832l-4.512,-0l0,6.832l-2.448,-0Z" style="fill-rule:nonzero;"/><path d="M189.7,284.16c-0.42,-0 -0.805,-0.107 -1.155,-0.32c-0.35,-0.213 -0.632,-0.495 -0.845,-0.845c-0.213,-0.35 -0.32,-0.735 -0.32,-1.155l-0,-4.64c-0,-0.42 0.107,-0.805 0.32,-1.155c0.213,-0.35 0.495,-0.632 0.845,-0.845c0.35,-0.213 0.735,-0.32 1.155,-0.32l4.768,-0c0.431,-0 0.821,0.106 1.169,0.318c0.349,0.212 0.628,0.495 0.837,0.848c0.209,0.353 0.314,0.738 0.314,1.154l-0,3.552l-6.96,-0l0,0.96l6.96,-0l-0,2.448l-7.088,-0Zm0.128,-5.552l4.512,-0l0,-1.28l-4.512,-0l0,1.28Z" style="fill-rule:nonzero;"/><path d="M198.5,284.16l0,-9.28l7.088,-0c0.424,-0 0.813,0.107 1.166,0.32c0.353,0.213 0.634,0.495 0.842,0.845c0.208,0.35 0.312,0.735 0.312,1.155l-0,6.96l-2.448,-0l0,-6.832l-4.512,-0l0,6.832l-2.448,-0Z" style="fill-rule:nonzero;"/><path d="M250.66,162.952c0,0.432 -0.107,0.828 -0.32,1.188c-0.213,0.36 -0.5,0.647 -0.86,0.86c-0.36,0.213 -0.756,0.32 -1.188,0.32l-1.072,-0l0,-2.48l0.944,-0l0,-6.528l-2.016,-0l0,6.64c0,0.432 -0.107,0.828 -0.32,1.188c-0.213,0.36 -0.499,0.647 -0.856,0.86c-0.358,0.213 -0.755,0.32 -1.192,0.32l-2.272,-0c-0.432,-0 -0.828,-0.107 -1.188,-0.32c-0.36,-0.213 -0.647,-0.5 -0.86,-0.86c-0.213,-0.36 -0.32,-0.756 -0.32,-1.188l0,-6.784c0,-0.428 0.107,-0.82 0.32,-1.177c0.213,-0.357 0.5,-0.644 0.86,-0.863c0.36,-0.219 0.756,-0.328 1.188,-0.328l1.072,-0l0,2.512l-0.944,-0l0,6.528l2.016,-0l0,-6.672c0,-0.428 0.107,-0.82 0.32,-1.177c0.213,-0.357 0.499,-0.644 0.856,-0.863c0.358,-0.219 0.755,-0.328 1.192,-0.328l2.272,-0c0.432,-0 0.828,0.109 1.188,0.328c0.36,0.219 0.647,0.506 0.86,0.863c0.213,0.357 0.32,0.749 0.32,1.177l0,6.784Z" style="fill-rule:nonzero;"/><path d="M250.66,149.848c0,0.432 -0.107,0.823 -0.32,1.172c-0.213,0.349 -0.495,0.631 -0.845,0.844c-0.35,0.213 -0.735,0.32 -1.155,0.32l-9.712,-0l0,-2.448l2.752,0l0,-3.44l2.448,0l0,3.44l4.384,0l0,-3.44l2.448,0l0,3.552Z" style="fill-rule:nonzero;"/><path d="M250.66,143.32c0,0.424 -0.107,0.813 -0.32,1.166c-0.213,0.353 -0.495,0.634 -0.845,0.842c-0.35,0.208 -0.735,0.312 -1.155,0.312l-3.552,-0l0,-6.96l-0.96,-0l0,6.96l-2.448,-0l0,-7.088c0,-0.431 0.106,-0.821 0.318,-1.17c0.212,-0.348 0.495,-0.627 0.848,-0.836c0.353,-0.209 0.738,-0.314 1.154,-0.314l6.96,-0l0,7.088Zm-2.448,-0.128l0,-4.512l-1.28,-0l0,4.512l1.28,-0Z" style="fill-rule:nonzero;"/><path d="M250.66,134.744l-9.28,-0l0,-7.088c0,-0.424 0.107,-0.813 0.32,-1.166c0.213,-0.353 0.495,-0.634 0.845,-0.842c0.35,-0.208 0.735,-0.312 1.155,-0.312l6.96,-0l0,2.448l-6.832,-0l0,4.512l6.832,-0l0,2.448Z" style="fill-rule:nonzero;"/><path d="M250.66,121.784c0,0.431 -0.106,0.821 -0.318,1.169c-0.212,0.349 -0.495,0.628 -0.848,0.837c-0.353,0.209 -0.738,0.314 -1.154,0.314l-4.64,-0c-0.42,-0 -0.805,-0.104 -1.155,-0.312c-0.35,-0.208 -0.632,-0.487 -0.845,-0.836c-0.213,-0.349 -0.32,-0.74 -0.32,-1.172l0,-4.656l-3.04,-0l0,-2.448l12.32,-0l0,7.104Zm-2.448,-0.144l0,-4.512l-4.384,-0l0,4.512l4.384,-0Z" style="fill-rule:nonzero;"/><rect x="320" y="247" width="121" height="66" style="fill:#f9f497;"/><rect x="458" y="247" width="121" height="66" style="fill:#f9f497;"/><path d="M357.548,286.16c-0.432,-0 -0.828,-0.107 -1.188,-0.32c-0.36,-0.213 -0.647,-0.5 -0.86,-0.86c-0.213,-0.36 -0.32,-0.756 -0.32,-1.188l0,-1.072l2.48,-0l0,0.944l6.528,-0l0,-2.016l-6.64,-0c-0.432,-0 -0.828,-0.107 -1.188,-0.32c-0.36,-0.213 -0.647,-0.499 -0.86,-0.856c-0.213,-0.358 -0.32,-0.755 -0.32,-1.192l0,-2.272c0,-0.432 0.107,-0.828 0.32,-1.188c0.213,-0.36 0.5,-0.647 0.86,-0.86c0.36,-0.213 0.756,-0.32 1.188,-0.32l6.784,-0c0.428,-0 0.82,0.107 1.177,0.32c0.357,0.213 0.644,0.5 0.863,0.86c0.219,0.36 0.328,0.756 0.328,1.188l0,1.072l-2.512,-0l0,-0.944l-6.528,-0l0,2.016l6.672,-0c0.428,-0 0.82,0.107 1.177,0.32c0.357,0.213 0.644,0.499 0.863,0.856c0.219,0.358 0.328,0.755 0.328,1.192l0,2.272c0,0.432 -0.109,0.828 -0.328,1.188c-0.219,0.36 -0.506,0.647 -0.863,0.86c-0.357,0.213 -0.749,0.32 -1.177,0.32l-6.784,-0Z" style="fill-rule:nonzero;"/><path d="M370.652,286.16c-0.432,-0 -0.823,-0.107 -1.172,-0.32c-0.349,-0.213 -0.631,-0.495 -0.844,-0.845c-0.213,-0.35 -0.32,-0.735 -0.32,-1.155l0,-9.712l2.448,-0l0,2.752l3.44,-0l0,2.448l-3.44,-0l0,4.384l3.44,-0l0,2.448l-3.552,-0Z" style="fill-rule:nonzero;"/><path d="M377.18,286.16c-0.424,-0 -0.813,-0.107 -1.166,-0.32c-0.353,-0.213 -0.634,-0.495 -0.842,-0.845c-0.208,-0.35 -0.312,-0.735 -0.312,-1.155l0,-3.552l6.96,-0l0,-0.96l-6.96,-0l0,-2.448l7.088,-0c0.431,-0 0.821,0.106 1.17,0.318c0.348,0.212 0.627,0.495 0.836,0.848c0.209,0.353 0.314,0.738 0.314,1.154l0,6.96l-7.088,-0Zm0.128,-2.448l4.512,-0l0,-1.28l-4.512,-0l0,1.28Z" style="fill-rule:nonzero;"/><path d="M385.756,286.16l0,-9.28l7.088,-0c0.424,-0 0.813,0.107 1.166,0.32c0.353,0.213 0.634,0.495 0.842,0.845c0.208,0.35 0.312,0.735 0.312,1.155l0,6.96l-2.448,-0l0,-6.832l-4.512,-0l0,6.832l-2.448,-0Z" style="fill-rule:nonzero;"/><path d="M398.716,286.16c-0.431,-0 -0.821,-0.106 -1.169,-0.318c-0.349,-0.212 -0.628,-0.495 -0.837,-0.848c-0.209,-0.353 -0.314,-0.738 -0.314,-1.154l0,-4.64c0,-0.42 0.104,-0.805 0.312,-1.155c0.208,-0.35 0.487,-0.632 0.836,-0.845c0.349,-0.213 0.74,-0.32 1.172,-0.32l4.656,-0l0,-3.04l2.448,-0l0,12.32l-7.104,-0Zm0.144,-2.448l4.512,-0l0,-4.384l-4.512,-0l0,4.384Z" style="fill-rule:nonzero;"/><path d="M495.548,286.16c-0.432,-0 -0.828,-0.107 -1.188,-0.32c-0.36,-0.213 -0.647,-0.5 -0.86,-0.86c-0.213,-0.36 -0.32,-0.756 -0.32,-1.188l0,-1.072l2.48,-0l0,0.944l6.528,-0l0,-2.016l-6.64,-0c-0.432,-0 -0.828,-0.107 -1.188,-0.32c-0.36,-0.213 -0.647,-0.499 -0.86,-0.856c-0.213,-0.358 -0.32,-0.755 -0.32,-1.192l0,-2.272c0,-0.432 0.107,-0.828 0.32,-1.188c0.213,-0.36 0.5,-0.647 0.86,-0.86c0.36,-0.213 0.756,-0.32 1.188,-0.32l6.784,-0c0.428,-0 0.82,0.107 1.177,0.32c0.357,0.213 0.644,0.5 0.863,0.86c0.219,0.36 0.328,0.756 0.328,1.188l0,1.072l-2.512,-0l0,-0.944l-6.528,-0l0,2.016l6.672,-0c0.428,-0 0.82,0.107 1.177,0.32c0.357,0.213 0.644,0.499 0.863,0.856c0.219,0.358 0.328,0.755 0.328,1.192l0,2.272c0,0.432 -0.109,0.828 -0.328,1.188c-0.219,0.36 -0.506,0.647 -0.863,0.86c-0.357,0.213 -0.749,0.32 -1.177,0.32l-6.784,-0Z" style="fill-rule:nonzero;"/><path d="M508.652,286.16c-0.432,-0 -0.823,-0.107 -1.172,-0.32c-0.349,-0.213 -0.631,-0.495 -0.844,-0.845c-0.213,-0.35 -0.32,-0.735 -0.32,-1.155l0,-9.712l2.448,-0l0,2.752l3.44,-0l0,2.448l-3.44,-0l0,4.384l3.44,-0l0,2.448l-3.552,-0Z" style="fill-rule:nonzero;"/><path d="M515.18,286.16c-0.424,-0 -0.813,-0.107 -1.166,-0.32c-0.353,-0.213 -0.634,-0.495 -0.842,-0.845c-0.208,-0.35 -0.312,-0.735 -0.312,-1.155l0,-3.552l6.96,-0l0,-0.96l-6.96,-0l0,-2.448l7.088,-0c0.431,-0 0.821,0.106 1.17,0.318c0.348,0.212 0.627,0.495 0.836,0.848c0.209,0.353 0.314,0.738 0.314,1.154l0,6.96l-7.088,-0Zm0.128,-2.448l4.512,-0l0,-1.28l-4.512,-0l0,1.28Z" style="fill-rule:nonzero;"/><path d="M523.756,286.16l0,-9.28l7.088,-0c0.424,-0 0.813,0.107 1.166,0.32c0.353,0.213 0.634,0.495 0.842,0.845c0.208,0.35 0.312,0.735 0.312,1.155l0,6.96l-2.448,-0l0,-6.832l-4.512,-0l0,6.832l-2.448,-0Z" style="fill-rule:nonzero;"/><path d="M536.716,286.16c-0.431,-0 -0.821,-0.106 -1.169,-0.318c-0.349,-0.212 -0.628,-0.495 -0.837,-0.848c-0.209,-0.353 -0.314,-0.738 -0.314,-1.154l0,-4.64c0,-0.42 0.104,-0.805 0.312,-1.155c0.208,-0.35 0.487,-0.632 0.836,-0.845c0.349,-0.213 0.74,-0.32 1.172,-0.32l4.656,-0l0,-3.04l2.448,-0l0,12.32l-7.104,-0Zm0.144,-2.448l4.512,-0l0,-4.384l-4.512,-0l0,4.384Z" style="fill-rule:nonzero;"/><path d="M208.016,178.052l-3.984,3.344l0,-3.248l3.136,-2.656l0.848,0l0,2.56Zm0,8.944l-11.504,0l0,-9.136c0,-0.432 0.107,-0.828 0.32,-1.188c0.213,-0.36 0.501,-0.649 0.864,-0.868c0.363,-0.219 0.757,-0.328 1.184,-0.328l2.976,0c0.427,0 0.821,0.109 1.184,0.328c0.363,0.219 0.651,0.508 0.864,0.868c0.213,0.36 0.32,0.756 0.32,1.188l0.016,6.656l3.776,0l0,2.48Zm-6.288,-2.48l0,-6.528l-2.736,0l0,6.528l2.736,0Z" style="fill-rule:nonzero;"/><path d="M208.016,171.556c0,0.42 -0.107,0.805 -0.32,1.155c-0.213,0.35 -0.495,0.632 -0.845,0.845c-0.35,0.213 -0.735,0.32 -1.155,0.32l-4.64,0c-0.42,0 -0.805,-0.107 -1.155,-0.32c-0.35,-0.213 -0.632,-0.495 -0.845,-0.845c-0.213,-0.35 -0.32,-0.735 -0.32,-1.155l0,-4.768c0,-0.431 0.106,-0.821 0.318,-1.169c0.212,-0.349 0.495,-0.628 0.848,-0.837c0.353,-0.209 0.738,-0.314 1.154,-0.314l3.552,0l0,6.96l0.96,-0l0,-6.96l2.448,0l0,7.088Zm-5.552,-0.128l0,-4.512l-1.28,-0l0,4.512l1.28,-0Z" style="fill-rule:nonzero;"/><path d="M208.016,160.436c0,0.432 -0.107,0.823 -0.32,1.172c-0.213,0.349 -0.495,0.631 -0.845,0.844c-0.35,0.213 -0.735,0.32 -1.155,0.32l-9.712,0l0,-2.448l2.752,0l0,-3.44l2.448,0l0,3.44l4.384,0l0,-3.44l2.448,0l0,3.552Z" style="fill-rule:nonzero;"/><path d="M208.016,156.228l-6.96,0c-0.42,0 -0.805,-0.107 -1.155,-0.32c-0.35,-0.213 -0.632,-0.497 -0.845,-0.85c-0.213,-0.353 -0.32,-0.742 -0.32,-1.166l0,-5.12l2.448,0l0,5.008l6.832,0l0,2.448Z" style="fill-rule:nonzero;"/><path d="M208.016,145.812c0,0.42 -0.107,0.805 -0.32,1.155c-0.213,0.35 -0.495,0.632 -0.845,0.845c-0.35,0.213 -0.735,0.32 -1.155,0.32l-4.64,0c-0.42,0 -0.805,-0.107 -1.155,-0.32c-0.35,-0.213 -0.632,-0.495 -0.845,-0.845c-0.213,-0.35 -0.32,-0.735 -0.32,-1.155l0,-4.768c0,-0.431 0.106,-0.821 0.318,-1.169c0.212,-0.349 0.495,-0.628 0.848,-0.837c0.353,-0.209 0.738,-0.314 1.154,-0.314l4.64,0c0.42,0 0.805,0.104 1.155,0.312c0.35,0.208 0.632,0.487 0.845,0.836c0.213,0.349 0.32,0.74 0.32,1.172l0,4.768Zm-2.448,-0.128l0,-4.512l-4.384,-0l0,4.512l4.384,-0Z" style="fill-rule:nonzero;"/><path d="M208.016,135.108c0,0.42 -0.107,0.805 -0.32,1.155c-0.213,0.35 -0.495,0.632 -0.845,0.845c-0.35,0.213 -0.735,0.32 -1.155,0.32l-0.464,0l0,-2.448l0.336,0l0,-4.512l-0.96,0l0,4.64c0,0.42 -0.107,0.805 -0.32,1.155c-0.213,0.35 -0.495,0.632 -0.845,0.845c-0.35,0.213 -0.735,0.32 -1.155,0.32l-1.232,0c-0.42,0 -0.805,-0.107 -1.155,-0.32c-0.35,-0.213 -0.632,-0.495 -0.845,-0.845c-0.213,-0.35 -0.32,-0.735 -0.32,-1.155l0,-4.768c0,-0.432 0.107,-0.823 0.32,-1.172c0.213,-0.349 0.495,-0.631 0.845,-0.844c0.35,-0.213 0.735,-0.32 1.155,-0.32l0.464,0l0,2.464l-0.336,0l0,4.512l0.96,0l0,-4.64c0,-0.432 0.107,-0.823 0.32,-1.172c0.213,-0.349 0.495,-0.631 0.845,-0.844c0.35,-0.213 0.735,-0.32 1.155,-0.32l1.232,0c0.42,0 0.805,0.107 1.155,0.32c0.35,0.213 0.632,0.495 0.845,0.844c0.213,0.349 0.32,0.74 0.32,1.172l0,4.768Z" style="fill-rule:nonzero;"/><g><path d="M271,98l0,42" style="fill:none;stroke:#fff;stroke-width:1.5px;stroke-linecap:square;stroke-linejoin:miter;"/><path d="M271,158l0,59l17,-0" style="fill:none;stroke:#fff;stroke-width:1.5px;stroke-linecap:square;stroke-linejoin:miter;"/><path d="M320,217l-15,-0" style="fill:none;stroke:#fff;stroke-width:1.5px;stroke-linecap:square;stroke-linejoin:miter;"/></g><path d="M130.928,185.384c0,0.432 -0.107,0.828 -0.32,1.188c-0.213,0.36 -0.5,0.647 -0.86,0.86c-0.36,0.213 -0.756,0.32 -1.188,0.32l-6.784,-0c-0.432,-0 -0.828,-0.107 -1.188,-0.32c-0.36,-0.213 -0.647,-0.5 -0.86,-0.86c-0.213,-0.36 -0.32,-0.756 -0.32,-1.188l0,-6.784c0,-0.428 0.107,-0.82 0.32,-1.177c0.213,-0.357 0.5,-0.644 0.86,-0.863c0.36,-0.219 0.756,-0.328 1.188,-0.328l6.784,-0c0.432,-0 0.828,0.109 1.188,0.328c0.36,0.219 0.647,0.506 0.86,0.863c0.213,0.357 0.32,0.749 0.32,1.177l0,6.784Zm-2.496,-0.112l0,-6.528l-6.528,-0l0,6.528l6.528,-0Z" style="fill-rule:nonzero;"/><path d="M130.928,174.536l-6.96,0c-0.42,0 -0.805,-0.107 -1.155,-0.32c-0.35,-0.213 -0.632,-0.497 -0.845,-0.85c-0.213,-0.353 -0.32,-0.742 -0.32,-1.166l0,-5.12l2.448,-0l0,5.008l6.832,-0l0,2.448Z" style="fill-rule:nonzero;"/><path d="M134.592,165.048l-2.464,0l0,-5.504l-1.2,-0l0,4.64c0,0.425 -0.106,0.814 -0.318,1.168c-0.212,0.354 -0.495,0.637 -0.848,0.849c-0.353,0.213 -0.738,0.319 -1.154,0.319l-4.64,0c-0.42,0 -0.805,-0.107 -1.155,-0.32c-0.35,-0.213 -0.632,-0.497 -0.845,-0.85c-0.213,-0.353 -0.32,-0.742 -0.32,-1.166l0,-4.768c0,-0.432 0.107,-0.823 0.32,-1.172c0.213,-0.349 0.495,-0.628 0.845,-0.836c0.35,-0.208 0.735,-0.312 1.155,-0.312l8.304,0c0.431,0 0.821,0.103 1.17,0.309c0.348,0.206 0.627,0.486 0.836,0.84c0.209,0.354 0.314,0.744 0.314,1.171l0,5.632Zm-6.112,-0.976l0,-4.528l-4.384,0l0,4.528l4.384,0Z" style="fill-rule:nonzero;"/><path d="M130.928,153.336c0,0.424 -0.107,0.813 -0.32,1.166c-0.213,0.353 -0.495,0.634 -0.845,0.842c-0.35,0.208 -0.735,0.312 -1.155,0.312l-3.552,-0l0,-6.96l-0.96,-0l0,6.96l-2.448,-0l0,-7.088c0,-0.431 0.106,-0.821 0.318,-1.17c0.212,-0.348 0.495,-0.627 0.848,-0.836c0.353,-0.209 0.738,-0.314 1.154,-0.314l6.96,-0l0,7.088Zm-2.448,-0.128l0,-4.512l-1.28,-0l0,4.512l1.28,-0Z" style="fill-rule:nonzero;"/><g transform="matrix(1,0,0,1,181.574,77.5634)"><g transform="matrix(10,0,0,10,155.906,67.2846)"><path d="M0.297,-0l-0.262,-0.72l0.165,0l0.157,0.429l0.157,-0.429l0.143,0l0.158,0.429l0.157,-0.429l0.164,0l-0.262,0.72l-0.119,-0l-0.17,-0.463l-0.169,0.463l-0.119,-0Z" style="fill:#fff;fill-rule:nonzero;"/></g><g transform="matrix(10,0,0,10,167.696,67.2846)"><path d="M0.204,-0c-0.027,-0 -0.052,-0.007 -0.075,-0.02c-0.022,-0.013 -0.04,-0.031 -0.053,-0.053c-0.013,-0.023 -0.02,-0.048 -0.02,-0.075l-0,-0.424c-0,-0.027 0.007,-0.052 0.02,-0.075c0.013,-0.022 0.031,-0.04 0.053,-0.053c0.023,-0.013 0.048,-0.02 0.075,-0.02l0.57,0l0,0.156l-0.53,-0c-0.011,-0 -0.019,0.003 -0.024,0.008c-0.006,0.005 -0.009,0.014 -0.009,0.025l0,0.342c0,0.011 0.003,0.019 0.009,0.024c0.005,0.006 0.013,0.009 0.024,0.009l0.53,-0l0,0.156l-0.57,-0Z" style="fill:#fff;fill-rule:nonzero;"/></g><g transform="matrix(10,0,0,10,146.161,77.2846)"><path d="M0.057,-0l0,-0.72l0.155,0l0,0.282l0.425,-0l0,-0.282l0.155,0l0,0.72l-0.155,-0l0,-0.282l-0.425,0l-0,0.282l-0.155,-0Z" style="fill:#fff;fill-rule:nonzero;"/></g><g transform="matrix(10,0,0,10,154.671,77.2846)"><path d="M0.196,-0c-0.026,-0 -0.05,-0.007 -0.072,-0.02c-0.022,-0.013 -0.04,-0.031 -0.053,-0.053c-0.013,-0.022 -0.02,-0.046 -0.02,-0.072l0,-0.29c0,-0.026 0.007,-0.05 0.02,-0.072c0.013,-0.022 0.031,-0.04 0.053,-0.053c0.022,-0.013 0.046,-0.02 0.072,-0.02l0.298,0c0.027,0 0.051,0.007 0.073,0.02c0.022,0.013 0.039,0.031 0.052,0.053c0.013,0.022 0.02,0.046 0.02,0.072l0,0.222l-0.435,0l0,0.06l0.435,0l0,0.153l-0.443,-0Zm0.008,-0.347l0.282,0l-0,-0.08l-0.282,0l0,0.08Z" style="fill:#fff;fill-rule:nonzero;"/></g><g transform="matrix(10,0,0,10,161.541,77.2846)"><path d="M0.052,-0l0,-0.435c0,-0.026 0.007,-0.05 0.02,-0.072c0.013,-0.022 0.031,-0.04 0.053,-0.053c0.022,-0.013 0.046,-0.02 0.073,-0.02l0.32,0l0,0.153l-0.313,0l0,0.427l-0.153,0Z" style="fill:#fff;fill-rule:nonzero;"/></g><g transform="matrix(10,0,0,10,166.661,77.2846)"><path d="M0.052,-0l0,-0.435c0,-0.026 0.007,-0.05 0.02,-0.072c0.013,-0.022 0.031,-0.04 0.053,-0.053c0.022,-0.013 0.046,-0.02 0.073,-0.02l0.32,0l0,0.153l-0.313,0l0,0.427l-0.153,0Z" style="fill:#fff;fill-rule:nonzero;"/></g><g transform="matrix(10,0,0,10,171.781,77.2846)"><path d="M0.196,-0c-0.026,-0 -0.05,-0.007 -0.072,-0.02c-0.022,-0.013 -0.04,-0.031 -0.053,-0.053c-0.013,-0.022 -0.02,-0.046 -0.02,-0.072l0,-0.29c0,-0.026 0.007,-0.05 0.02,-0.072c0.013,-0.022 0.031,-0.04 0.053,-0.053c0.022,-0.013 0.046,-0.02 0.072,-0.02l0.298,0c0.027,0 0.051,0.007 0.073,0.02c0.022,0.013 0.039,0.031 0.052,0.053c0.013,0.022 0.02,0.046 0.02,0.072l0,0.222l-0.435,0l0,0.06l0.435,0l0,0.153l-0.443,-0Zm0.008,-0.347l0.282,0l-0,-0.08l-0.282,0l0,0.08Z" style="fill:#fff;fill-rule:nonzero;"/></g><g transform="matrix(10,0,0,10,178.701,77.2846)"><path d="M0.054,-0l0,-0.58l0.443,0c0.026,0 0.051,0.007 0.073,0.02c0.022,0.013 0.04,0.031 0.053,0.053c0.013,0.022 0.019,0.046 0.019,0.072l0,0.435l-0.153,-0l0,-0.427l-0.282,-0l0,0.427l-0.153,-0Z" style="fill:#fff;fill-rule:nonzero;"/></g></g><path d="M113.16,118.58l0,-5.76l4.568,-0c0.216,-0 0.414,0.053 0.594,0.16c0.18,0.107 0.325,0.25 0.434,0.43c0.109,0.18 0.164,0.378 0.164,0.594l0,3.392c0,0.216 -0.055,0.414 -0.164,0.594c-0.109,0.18 -0.254,0.323 -0.434,0.43c-0.18,0.107 -0.378,0.16 -0.594,0.16l-4.568,0Zm1.232,-1.248l3.272,0l0,-3.264l-3.272,0l0,3.264Z" style="fill-rule:nonzero;"/><path d="M119.784,118.58l0,-3.48c0,-0.21 0.053,-0.403 0.16,-0.578c0.107,-0.175 0.248,-0.315 0.425,-0.422c0.177,-0.107 0.371,-0.16 0.583,-0.16l2.56,-0l0,1.224l-2.504,-0l0,3.416l-1.224,-0Z" style="fill-rule:nonzero;"/><path d="M123.88,118.58l0,-4.64l1.224,-0l0,4.64l-1.224,-0Zm0,-4.928l0,-1.232l1.224,-0l0,1.232l-1.224,-0Z" style="fill-rule:nonzero;"/><path d="M125.44,118.58l0,-4.64l3.544,-0c0.212,-0 0.406,0.053 0.583,0.16c0.177,0.107 0.317,0.247 0.421,0.422c0.104,0.175 0.156,0.368 0.156,0.578l0,3.48l-1.224,-0l0,-3.416l-2.256,-0l0,3.416l-1.224,-0Z" style="fill-rule:nonzero;"/><path d="M131.008,118.58l0,-6.16l1.224,-0l0,3.224l0.624,-0l1.576,-1.704l1.232,-0l0,0.416l-1.728,1.904l1.728,1.904l0,0.416l-1.232,-0l-1.576,-1.704l-0.624,-0l0,1.704l-1.224,-0Z" style="fill-rule:nonzero;"/><path d="M137.288,118.58c-0.21,-0 -0.402,-0.053 -0.577,-0.16c-0.175,-0.107 -0.316,-0.248 -0.423,-0.423c-0.107,-0.175 -0.16,-0.367 -0.16,-0.577l0,-0.232l1.224,-0l0,0.168l2.256,-0l0,-0.48l-2.32,-0c-0.21,-0 -0.402,-0.053 -0.577,-0.16c-0.175,-0.107 -0.316,-0.248 -0.423,-0.423c-0.107,-0.175 -0.16,-0.367 -0.16,-0.577l0,-0.616c0,-0.21 0.053,-0.403 0.16,-0.578c0.107,-0.175 0.248,-0.315 0.423,-0.422c0.175,-0.107 0.367,-0.16 0.577,-0.16l2.384,-0c0.216,-0 0.411,0.053 0.586,0.16c0.175,0.107 0.315,0.247 0.422,0.422c0.107,0.175 0.16,0.368 0.16,0.578l0,0.232l-1.232,-0l0,-0.168l-2.256,-0l0,0.48l2.32,-0c0.216,-0 0.411,0.053 0.586,0.16c0.175,0.107 0.315,0.247 0.422,0.422c0.107,0.175 0.16,0.368 0.16,0.578l0,0.616c0,0.21 -0.053,0.402 -0.16,0.577c-0.107,0.175 -0.247,0.316 -0.422,0.423c-0.175,0.107 -0.37,0.16 -0.586,0.16l-2.384,-0Z" style="fill-rule:nonzero;"/><g><g><circle cx="111" cy="107" r="7" style="fill:#fff;"/><circle cx="111" cy="210" r="7" style="fill:#fff;"/><circle cx="218" cy="210" r="7" style="fill:#fff;"/><circle cx="218" cy="107" r="7" style="fill:#fff;"/></g><path d="M320,313l0,-70" style="fill:none;stroke:#fff;stroke-width:3px;stroke-linecap:square;stroke-linejoin:miter;"/><path d="M590,313l0,-70" style="fill:none;stroke:#fff;stroke-width:3px;stroke-linecap:square;stroke-linejoin:miter;"/><path d="M375,217l-55,0l0,-119l-77,0l0,-95l-240,0l0,310l643,0l0,-215l-98,0l0,119l-153,0" style="fill:none;stroke:#fff;stroke-width:3px;stroke-linecap:square;stroke-linejoin:miter;"/><path d="M111,107l0,103" style="fill:none;stroke:#fff;stroke-width:3px;stroke-linecap:square;stroke-linejoin:miter;"/><path d="M218,107l0,103" style="fill:none;stroke:#fff;stroke-width:3px;stroke-linecap:square;stroke-linejoin:miter;"/><path d="M320,98l228,0" style="fill:none;stroke:#fff;stroke-width:3px;stroke-linecap:square;stroke-linejoin:miter;"/><path d="M375,98l0,24" style="fill:none;stroke:#fff;stroke-width:3px;stroke-linecap:square;stroke-linejoin:miter;"/><path d="M395,151l0,66" style="fill:none;stroke:#fff;stroke-width:3px;stroke-linecap:square;stroke-linejoin:miter;"/><path d="M395,134l42,0l0,83" style="fill:none;stroke:#fff;stroke-width:3px;stroke-linecap:square;stroke-linejoin:miter;"/><path d="M375,138l0,61" style="fill:none;stroke:#fff;stroke-width:3px;stroke-linecap:square;stroke-linejoin:miter;"/><path d="M395,134l0,-36" style="fill:none;stroke:#fff;stroke-width:3px;stroke-linecap:square;stroke-linejoin:miter;"/><path d="M415,153l0,29" style="fill:none;stroke:#fff;stroke-width:3px;stroke-linecap:square;stroke-linejoin:miter;"/><path d="M590,192l0,-66l21,0l0,22" style="fill:none;stroke:#fff;stroke-width:3px;stroke-linecap:square;stroke-linejoin:miter;"/><path d="M634,126l0,66l-23,0l0,-24.5" style="fill:none;stroke:#fff;stroke-width:3px;stroke-linecap:square;stroke-linejoin:miter;"/><path d="M395,202l42,0" style="fill:none;stroke:#fff;stroke-width:3px;stroke-linecap:square;stroke-linejoin:miter;"/><path d="M320,192l55,0" style="fill:none;stroke:#fff;stroke-width:3px;stroke-linecap:square;stroke-linejoin:miter;"/><g><path d="M590,134l21,0" style="fill:none;stroke:#fff;stroke-width:3px;stroke-linecap:square;stroke-linejoin:miter;"/><path d="M590,140l21,0" style="fill:none;stroke:#fff;stroke-width:3px;stroke-linecap:square;stroke-linejoin:miter;"/><path d="M590,146l21,0" style="fill:none;stroke:#fff;stroke-width:3px;stroke-linecap:square;stroke-linejoin:miter;"/></g><g><path d="M590,174l21,0" style="fill:none;stroke:#fff;stroke-width:3px;stroke-linecap:square;stroke-linejoin:miter;"/><path d="M590,180l21,0" style="fill:none;stroke:#fff;stroke-width:3px;stroke-linecap:square;stroke-linejoin:miter;"/><path d="M590,186l21,0" style="fill:none;stroke:#fff;stroke-width:3px;stroke-linecap:square;stroke-linejoin:miter;"/></g><g><path d="M611,132l21,0" style="fill:none;stroke:#fff;stroke-width:3px;stroke-linecap:square;stroke-linejoin:miter;"/><path d="M611,138l21,0" style="fill:none;stroke:#fff;stroke-width:3px;stroke-linecap:square;stroke-linejoin:miter;"/><path d="M611,144l21,0" style="fill:none;stroke:#fff;stroke-width:3px;stroke-linecap:square;stroke-linejoin:miter;"/></g><g><path d="M395,160l20,0" style="fill:none;stroke:#fff;stroke-width:3px;stroke-linecap:square;stroke-linejoin:miter;"/><path d="M395,166l20,0" style="fill:none;stroke:#fff;stroke-width:3px;stroke-linecap:square;stroke-linejoin:miter;"/><path d="M395,172l20,0" style="fill:none;stroke:#fff;stroke-width:3px;stroke-linecap:square;stroke-linejoin:miter;"/><path d="M395,178l20,0" style="fill:none;stroke:#fff;stroke-width:3px;stroke-linecap:square;stroke-linejoin:miter;"/></g><g><path d="M416,157.5l21,0" style="fill:none;stroke:#fff;stroke-width:3px;stroke-linecap:square;stroke-linejoin:miter;"/><path d="M416,163.5l21,0" style="fill:none;stroke:#fff;stroke-width:3px;stroke-linecap:square;stroke-linejoin:miter;"/><path d="M416,169.5l21,0" style="fill:none;stroke:#fff;stroke-width:3px;stroke-linecap:square;stroke-linejoin:miter;"/><path d="M416,175.5l21,0" style="fill:none;stroke:#fff;stroke-width:3px;stroke-linecap:square;stroke-linejoin:miter;"/></g><g><path d="M611,172l21,0" style="fill:none;stroke:#fff;stroke-width:3px;stroke-linecap:square;stroke-linejoin:miter;"/><path d="M611,178l21,0" style="fill:none;stroke:#fff;stroke-width:3px;stroke-linecap:square;stroke-linejoin:miter;"/><path d="M611,184l21,0" style="fill:none;stroke:#fff;stroke-width:3px;stroke-linecap:square;stroke-linejoin:miter;"/></g><path d="M243,3l480,0l0,310l-77,0" style="fill:none;stroke:#7f7f7f;stroke-width:3px;stroke-linecap:square;stroke-linejoin:miter;stroke-dasharray:3,6,0,0;"/></g></svg>